<?xml version="1.0" encoding="UTF-8" standalone="no"?>
<svg width="19px" height="19px" viewBox="0 0 19 19" version="1.1" xmlns="http://www.w3.org/2000/svg" xmlns:xlink="http://www.w3.org/1999/xlink" xmlns:sketch="http://www.bohemiancoding.com/sketch/ns">
    <!-- Generator: Sketch 3.4.4 (17249) - http://www.bohemiancoding.com/sketch -->
    <title>calendar</title>
    <desc>Created with Sketch.</desc>
    <defs></defs>
    <g id="MyStaysure---Mobile" stroke="none" stroke-width="1" fill="none" fill-rule="evenodd" sketch:type="MSPage">
        <g id="Tablet-Portrait---My-Details" sketch:type="MSArtboardGroup" transform="translate(-171.000000, -564.000000)" fill="#6F2C91">
            <g id="Form-Content" sketch:type="MSLayerGroup" transform="translate(20.000000, 180.000000)">
                <g id="Personal-Details" transform="translate(20.000000, 16.000000)" sketch:type="MSShapeGroup">
                    <g id="Date-of-birth" transform="translate(1.000000, 336.000000)">
                        <g id="DOB-Input" transform="translate(0.000000, 22.000000)">
                            <g id="calendar" transform="translate(130.000000, 10.000000)">
                                <path d="M5.99810791,3.99328613 L5.99999994,0 L4.00762939,0.00048828125 L4.01623535,4.00030518 L5.99810791,3.99328613 Z" id="Shape"></path>
                                <path d="M14.9981079,3.99328613 L14.9999999,0 L13.0076294,0.00048828125 L13.0162354,4.00030518 L14.9981079,3.99328613 Z" id="Shape"></path>
                                <path d="M16.0234375,2.00408936 L16.0228882,5.00421143 L12.0023193,5.01306152 L12.0082397,2.01293945 L7.00980966,1.98428297 L7.01068115,5.0090332 L3.0057373,5.01226807 L3.00219727,2.012146 L0.00354003906,2.01123047 L0,19 L18.9987183,19 L18.9658641,2.01373083 L16.0234375,2.00408936 Z M1.00518799,18.0162964 L1.00964355,7.00708008 L18.0059204,7.00762939 L18.0024414,18.0117188 C18.0023589,18.0117188 1.00518799,18.0162964 1.00518799,18.0162964 Z" id="Shape"></path>
                                <path d="M17,17 L17,15 L14,15 L14,17 L17,17 Z" id="Shape-Copy-10"></path>
                                <path d="M13,17 L13,15 L10,15 L10,17 L13,17 Z" id="Shape-Copy-13"></path>
                                <path d="M9,17 L9,15 L6,15 L6,17 L9,17 Z" id="Shape-Copy-13"></path>
                                <path d="M5,17 L5,15 L2,15 L2,17 L5,17 Z" id="Shape-Copy-13"></path>
                                <path d="M17,14 L17,12 L14,12 L14,14 L17,14 Z" id="Shape-Copy-10"></path>
                                <path d="M13,14 L13,12 L10,12 L10,14 L13,14 Z" id="Shape-Copy-13"></path>
                                <path d="M9,14 L9,12 L6,12 L6,14 L9,14 Z" id="Shape-Copy-13"></path>
                                <path d="M5,14 L5,12 L2,12 L2,14 L5,14 Z" id="Shape-Copy-13"></path>
                                <path d="M17,11 L17,9 L14,9 L14,11 L17,11 Z" id="Shape-Copy-10"></path>
                                <path d="M13,11 L13,9 L10,9 L10,11 L13,11 Z" id="Shape-Copy-13"></path>
                                <path d="M9,11 L9,9 L6,9 L6,11 L9,11 Z" id="Shape-Copy-13"></path>
                            </g>
                        </g>
                    </g>
                </g>
            </g>
        </g>
    </g>
</svg>