<?xml version="1.0" encoding="utf-8"?>
<!-- Generator: Adobe Illustrator 19.0.0, SVG Export Plug-In . SVG Version: 6.00 Build 0)  -->
<svg version="1.1" id="Layer_1" xmlns="http://www.w3.org/2000/svg" xmlns:xlink="http://www.w3.org/1999/xlink" x="0px" y="0px"
	 viewBox="-289 412.9 16 16" style="enable-background:new -289 412.9 16 16;" xml:space="preserve">
<style type="text/css">
	.st0{fill:#663366;}
</style>
<title>Close</title>
<desc>Created with Sketch.</desc>
<g id="Travel-Home-Page-v2---Small-Screen">
	<g id="Travel-Home-_x28_Small_x29_" transform="translate(-242.000000, -20.000000)">
		<g id="Header" transform="translate(-868.000000, 0.000000)">
			<g id="Close" transform="translate(1110.000000, 20.000000)">
				<path id="Container" class="st0" d="M-286.7,413.8l12.7,12.7c0.4,0.4,0.4,1,0,1.4l0,0c-0.4,0.4-1,0.4-1.4,0l-12.7-12.7
					c-0.4-0.4-0.4-1,0-1.4l0,0C-287.7,413.4-287,413.4-286.7,413.8z"/>
				<path id="Container_1_" class="st0" d="M-288.1,426.5l12.7-12.7c0.4-0.4,1-0.4,1.4,0l0,0c0.4,0.4,0.4,1,0,1.4l-12.7,12.7
					c-0.4,0.4-1,0.4-1.4,0l0,0C-288.5,427.6-288.5,426.9-288.1,426.5z"/>
			</g>
		</g>
	</g>
</g>
</svg>
