<?xml version="1.0" encoding="utf-8"?>
<!-- Generator: Adobe Illustrator 19.0.0, SVG Export Plug-In . SVG Version: 6.00 Build 0)  -->
<svg version="1.1" id="Layer_1" focusable="false" xmlns="http://www.w3.org/2000/svg" xmlns:xlink="http://www.w3.org/1999/xlink"
	 x="0px" y="0px" width="512px" height="512px" viewBox="243 -244 512 512" style="enable-background:new 243 -244 512 512;"
	 xml:space="preserve">
<style type="text/css">
	.st0{fill:#FFFFFF;}
</style>
<path class="st0" d="M753.5,11.8C683.5,11,627-45.9,627-116c-70.2,0-127-56.5-127.9-126.4c-27.3-4.1-55.1,0.3-79.7,12.8l-69.1,35.2
	c-24.9,12.7-45.1,32.9-57.8,57.8l-35.1,68.9c-12.7,25-17.2,53.3-12.8,80.9l12.1,76.3c4.4,27.6,17.4,53.2,37.2,73l54.8,54.8
	c19.7,19.7,45.2,32.7,72.7,37.1l76.7,12.1c27.5,4.4,55.7-0.1,80.5-12.8l69.1-35.2c24.9-12.7,45.1-32.9,57.8-57.8l35.1-68.9
	C753.2,67.1,757.6,39.1,753.5,11.8L753.5,11.8z M419,124c-17.7,0-32-14.3-32-32s14.3-32,32-32s32,14.3,32,32S436.7,124,419,124z
	 M451-36c-17.7,0-32-14.3-32-32s14.3-32,32-32s32,14.3,32,32S468.7-36,451-36z M611,92c-17.7,0-32-14.3-32-32s14.3-32,32-32
	s32,14.3,32,32S628.7,92,611,92z"/>
</svg>
