<?xml version="1.0" encoding="UTF-8" standalone="no"?>
<svg width="16px" height="16px" viewBox="0 0 16 16" version="1.1" xmlns="http://www.w3.org/2000/svg" xmlns:xlink="http://www.w3.org/1999/xlink">
    <!-- Generator: Sketch 3.8.3 (29802) - http://www.bohemiancoding.com/sketch -->
    <title>icon-cross</title>
    <desc>Created with Sketch.</desc>
    <defs></defs>
    <g id="Page-1" stroke="none" stroke-width="1" fill="none" fill-rule="evenodd">
        <path d="M12.6008654,0.245480769 C12.8644231,-0.0180769231 13.2917788,-0.0180769231 13.5553365,0.245480769 L15.7822115,2.47240385 C15.9087981,2.59899038 15.9799038,2.77057692 15.9798558,2.94961538 C15.9798558,3.12855769 15.9087981,3.30024038 15.7822115,3.42677885 L11.2258466,8.01522745 L15.7821876,12.562966 C16.0457452,12.8264757 16.0457452,13.2538314 15.7821876,13.5173891 L13.5164745,15.8153982 C13.3846957,15.9472251 13.2119553,16.0130905 13.039263,16.0130905 C12.8665226,16.0130905 12.6937822,15.9472251 12.5620515,15.8153982 L8.0211341,11.2425059 L3.48021673,15.8153982 C3.34848596,15.9472251 3.17574558,16.0130905 3.00300519,16.0130905 C2.83031289,16.0130905 2.6575725,15.9472251 2.52579366,15.8153982 L0.260080645,13.5173891 C-0.00347704744,13.2538314 -0.00347704744,12.8264757 0.260080645,12.562966 L4.81642163,8.01522745 L0.2600567,3.42677885 C0.1334701,3.30024038 0.0624124,3.12855769 0.0624124,2.94961538 C0.0623644,2.77057692 0.1334701,2.59899038 0.2600567,2.47240385 L2.4869317,0.245480769 C2.7504894,-0.0180769231 3.1778451,-0.0180769231 3.4414028,0.245480769 L8.0211341,4.8165655 L12.6008654,0.245480769 Z" id="icon-cross" fill="#CC0000"></path>
    </g>
</svg>