<?xml version="1.0" encoding="UTF-8" standalone="no"?>
<svg width="20px" height="20px" viewBox="0 0 20 20" version="1.1" xmlns="http://www.w3.org/2000/svg" xmlns:xlink="http://www.w3.org/1999/xlink" xmlns:sketch="http://www.bohemiancoding.com/sketch/ns">
    <!-- Generator: Sketch 3.4.4 (17249) - http://www.bohemiancoding.com/sketch -->
    <title>Info Icon Copy</title>
    <desc>Created with Sketch.</desc>
    <defs></defs>
    <g id="MyStaysure---Mobile" stroke="none" stroke-width="1" fill="none" fill-rule="evenodd" sketch:type="MSPage">
        <g id="Mobile---Register-Password---Very-Weak" sketch:type="MSArtboardGroup" transform="translate(-271.000000, -339.000000)">
            <g id="Sign-In-Form" sketch:type="MSLayerGroup" transform="translate(15.000000, 180.000000)">
                <g id="Password" transform="translate(16.000000, 94.000000)" sketch:type="MSShapeGroup">
                    <g id="Strength-Indicator" transform="translate(3.000000, 65.000000)">
                        <g id="Info-Icon-Copy" transform="translate(237.000000, 0.000000)">
                            <path d="M9.84533333,0 C4.40733333,0 0,4.406 0,9.84533333 C0,15.282 4.40733333,19.69 9.84533333,19.69 C15.2833333,19.69 19.6906667,15.282 19.6906667,9.84533333 C19.69,4.406 15.2826667,0 9.84533333,0 L9.84533333,0 Z" id="Shape" fill="#1E6BB8"></path>
                            <path d="M9.59,12.8913333 C8.698,12.8913333 8.064,13.5253333 8.064,14.4513333 C8.064,15.342 8.68133333,16.0106667 9.59,16.0106667 C10.5326667,16.0106667 11.1326667,15.342 11.1326667,14.4513333 C11.1146667,13.5253333 10.514,12.8913333 9.59,12.8913333 L9.59,12.8913333 Z" id="Shape" fill="#FFFFFF"></path>
                            <path d="M9.828,4.06133333 C8.612,4.06133333 7.60133333,4.40333333 6.966,4.76333333 L7.54933333,6.63266667 C7.99466667,6.32466667 8.68066667,6.118 9.246,6.118 C10.1026667,6.136 10.4986667,6.54733333 10.4986667,7.14666667 C10.4986667,7.71333333 10.052,8.278 9.50266667,8.94733333 C8.732,9.85666667 8.44,10.748 8.492,11.622 L8.50866667,12.068 L10.7886667,12.068 L10.7886667,11.7593333 C10.772,10.9873333 11.0466667,10.318 11.6626667,9.616 C12.3153333,8.896 13.1366667,8.03866667 13.1366667,6.73533333 C13.1366667,5.312 12.0926667,4.06133333 9.828,4.06133333 L9.828,4.06133333 Z" id="Shape" fill="#FFFFFF"></path>
                        </g>
                    </g>
                </g>
            </g>
        </g>
    </g>
</svg>