<?xml version="1.0" encoding="UTF-8" standalone="no"?>
<svg width="18px" height="18px" viewBox="0 0 18 18" version="1.1" xmlns="http://www.w3.org/2000/svg" xmlns:xlink="http://www.w3.org/1999/xlink">
    <!-- Generator: Sketch 39.1 (31720) - http://www.bohemiancoding.com/sketch -->
    <title>Fill-4</title>
    <desc>Created with Sketch.</desc>
    <defs></defs>
    <g id="Page-1" stroke="none" stroke-width="1" fill="none" fill-rule="evenodd">
        <g id="share-pinterest" fill="#AA252A">
            <g id="Page-1">
                <g id="Pinterest-badge-36px">
                    <path d="M9.24185449,0.751111111 C4.54731126,0.751111111 0.741333334,4.55656789 0.741333334,9.25111112 C0.741333334,12.8522761 2.98176865,15.9281191 6.14412304,17.1663778 C6.06959821,16.4940909 6.00236951,15.4622086 6.17330758,14.7284257 C6.32808993,14.0649983 7.17027264,10.5029198 7.17027264,10.5029198 C7.17027264,10.5029198 6.91595014,9.9937537 6.91595014,9.24120921 C6.91595014,8.05923496 7.60074474,7.1769235 8.45387165,7.1769235 C9.17931617,7.1769235 9.52953076,7.72100689 9.52953076,8.37401118 C9.52953076,9.10362491 9.06518374,10.1938763 8.82545351,11.2043913 C8.62533088,12.0502221 9.24967178,12.7402282 10.0840372,12.7402282 C11.5948588,12.7402282 12.7565081,11.1470645 12.7565081,8.84773895 C12.7565081,6.81263779 11.2941537,5.38936985 9.20589496,5.38936985 C6.78722543,5.38936985 5.36760556,7.20350228 5.36760556,9.07860958 C5.36760556,9.80874443 5.649028,10.5925581 6.0002849,11.0183398 C6.06959821,11.1022454 6.08002126,11.176249 6.05917516,11.2622393 C5.99455222,11.5306329 5.85123524,12.1080701 5.82309299,12.2258505 C5.78609115,12.3816752 5.69957981,12.4145078 5.53854364,12.339983 C4.47695565,11.8454091 3.81352831,10.2934164 3.81352831,9.04681927 C3.81352831,6.3654888 5.76159698,3.90304244 9.42999061,3.90304244 C12.3781513,3.90304244 14.6701807,6.00433 14.6701807,8.81230057 C14.6701807,11.7416997 12.8226945,14.0993943 10.2591445,14.0993943 C9.3976791,14.0993943 8.58832905,13.6517242 8.31107583,13.1232755 C8.31107583,13.1232755 7.88477295,14.7461449 7.78158472,15.1437844 C7.58927939,15.8822577 7.07125363,16.8078248 6.72468711,17.3722331 C7.51996608,17.6182171 8.36527571,17.7511111 9.24185449,17.7511111 C13.9358765,17.7511111 17.7418545,13.9456543 17.7418545,9.25111112 C17.7418545,4.55656789 13.9358765,0.751111111 9.24185449,0.751111111" id="Fill-4"></path>
                </g>
            </g>
        </g>
    </g>
</svg>