<?xml version="1.0" encoding="UTF-8" standalone="no"?>
<svg width="28px" height="18px" viewBox="0 0 28 18" version="1.1" xmlns="http://www.w3.org/2000/svg" xmlns:xlink="http://www.w3.org/1999/xlink">
    <!-- Generator: Sketch 39.1 (31720) - http://www.bohemiancoding.com/sketch -->
    <title>share-gplus-reverse</title>
    <desc>Created with Sketch.</desc>
    <defs>
        <polygon id="path-1" points="0 18.8272568 29.6330809 18.8272568 29.6330809 0.00372743156 0 0.00372743156"></polygon>
    </defs>
    <g id="Page-1" stroke="none" stroke-width="1" fill="none" fill-rule="evenodd">
        <g id="share-gplus-reverse" transform="translate(0.000000, -1.000000)">
            <g id="Page-1">
                <g id="share-gplus">
                    <g id="Page-1">
                        <g id="share-gplus">
                            <g id="Page-1">
                                <g id="g+">
                                    <g id="Fill-1-Clipped">
                                        <g>
                                            <mask id="mask-2" fill="white">
                                                <use xlink:href="#path-1"></use>
                                            </mask>
                                            <g id="path-1"></g>
                                            <path d="M24.7233547,8.4274898 L24.7233547,5.36983111 L22.5393128,5.36983111 L22.5393128,8.4274898 L19.3942924,8.4274898 L19.3942924,10.6115317 L22.5393128,10.6115317 L22.5393128,13.7565521 L24.7233547,13.7565521 L24.7233547,10.6115317 L27.7810134,10.6115317 L27.7810134,8.4274898 L24.7233547,8.4274898 L24.7233547,8.4274898 L24.7233547,8.4274898 L24.7233547,8.4274898 L24.7233547,8.4274898 Z M8.82352941,8.25276646 L8.82352941,11.7472335 C8.82352941,11.7472335 12.213512,11.7426907 13.5938265,11.7426907 C12.8463599,14.0080664 11.6841002,15.2417007 8.82352941,15.2417007 C5.92862551,15.2417007 3.66919045,12.8949039 3.66919045,10 C3.66919045,7.10509609 5.92862551,4.75829936 8.82352941,4.75829936 C10.354106,4.75829936 11.3426034,5.29627256 12.2493302,6.04609785 C12.9751311,5.32029702 12.914502,5.2168608 14.7610658,3.47303436 C13.1935353,2.04624345 11.1101339,1.17647059 8.82352941,1.17647059 C3.95040768,1.17647059 0,5.12687827 0,10 C0,14.8730344 3.95040768,18.8235294 8.82352941,18.8235294 C16.107484,18.8235294 17.8878276,12.4810716 17.2976121,8.25276646 L8.82352941,8.25276646 L8.82352941,8.25276646 L8.82352941,8.25276646 L8.82352941,8.25276646 L8.82352941,8.25276646 Z" id="Fill-1" fill="#FFFFFF" mask="url(#mask-2)"></path>
                                        </g>
                                    </g>
                                </g>
                            </g>
                        </g>
                    </g>
                </g>
            </g>
        </g>
    </g>
</svg>