<?xml version="1.0" encoding="UTF-8" standalone="no"?>
<svg width="22px" height="22px" viewBox="0 0 22 22" version="1.1" xmlns="http://www.w3.org/2000/svg" xmlns:xlink="http://www.w3.org/1999/xlink">
    <!-- Generator: Sketch 39.1 (31720) - http://www.bohemiancoding.com/sketch -->
    <title>share-pinterest-reverse</title>
    <desc>Created with Sketch.</desc>
    <defs></defs>
    <g id="Page-1" stroke="none" stroke-width="1" fill="none" fill-rule="evenodd">
        <g id="share-pinterest-reverse" fill="#FFFFFF">
            <g id="Page-1">
                <g id="share-pinterest">
                    <g id="Page-1">
                        <g id="share-pinterest">
                            <g id="Page-1">
                                <g id="Pinterest-badge-36px">
                                    <path d="M11.2955999,0.918024691 C5.55782487,0.918024691 0.906074075,5.56913853 0.906074075,11.3069136 C0.906074075,15.7083375 3.64438391,19.4677011 7.50948372,20.9811284 C7.41839781,20.1594444 7.3362294,18.898255 7.54515371,18.0014092 C7.73433214,17.1905535 8.76366656,12.836902 8.76366656,12.836902 C8.76366656,12.836902 8.45282795,12.2145879 8.45282795,11.2948113 C8.45282795,9.85017606 9.28979913,8.77179539 10.3325098,8.77179539 C11.2191642,8.77179539 11.6472043,9.4367862 11.6472043,10.2349026 C11.6472043,11.1266527 11.079669,12.4591821 10.7866654,13.694256 C10.5420711,14.7280492 11.3051544,15.57139 12.3249344,15.57139 C14.1714941,15.57139 15.5912877,13.6241899 15.5912877,10.8139032 C15.5912877,8.3265573 13.8039656,6.58700759 11.2516494,6.58700759 C8.29549775,6.58700759 6.5604068,8.80428056 6.5604068,11.0960784 C6.5604068,11.9884654 6.90436756,12.9464599 7.33368154,13.4668598 C7.41839781,13.569411 7.4311371,13.6598599 7.40565853,13.7649591 C7.32667494,14.0929958 7.15150974,14.7987523 7.11711365,14.9427062 C7.07188918,15.1331586 6.9661531,15.1732873 6.76933112,15.0822014 C5.47183468,14.4777222 4.66097905,12.5808423 4.66097905,11.0572236 C4.66097905,7.78004187 7.04195186,4.7703852 11.5255441,4.7703852 C15.1288516,4.7703852 17.9302209,7.33862556 17.9302209,10.7705896 C17.9302209,14.3509663 15.6721822,17.232593 12.5389544,17.232593 C11.4860522,17.232593 10.4968466,16.6854407 10.1579816,16.0395589 C10.1579816,16.0395589 9.63694472,18.023066 9.51082577,18.5090698 C9.27578592,19.4116483 8.64264333,20.542897 8.21906202,21.2327293 C9.19106965,21.5333765 10.2242259,21.6958025 11.2955999,21.6958025 C17.0327379,21.6958025 21.6844888,17.0446886 21.6844888,11.3069136 C21.6844888,5.56913853 17.0327379,0.918024691 11.2955999,0.918024691" id="Fill-4"></path>
                                </g>
                            </g>
                        </g>
                    </g>
                </g>
            </g>
        </g>
    </g>
</svg>