<?xml version="1.0" encoding="UTF-8" standalone="no"?>
<svg width="23px" height="19px" viewBox="0 0 23 19" version="1.1" xmlns="http://www.w3.org/2000/svg" xmlns:xlink="http://www.w3.org/1999/xlink">
    <!-- Generator: Sketch 39.1 (31720) - http://www.bohemiancoding.com/sketch -->
    <title>share-twitter-reverse</title>
    <desc>Created with Sketch.</desc>
    <defs></defs>
    <g id="Page-1" stroke="none" stroke-width="1" fill="none" fill-rule="evenodd">
        <g id="share-twitter-reverse" fill="#FFFFFF">
            <g id="Page-1">
                <g id="share-twitter">
                    <g id="Page-1">
                        <g id="Twitter_Logo_Blue">
                            <path d="M7.6818686,18.9123687 C16.0854689,18.9123687 20.6818837,11.9500473 20.6818837,5.91235357 C20.6818837,5.71460085 20.6818837,5.51773889 20.668522,5.32176771 C21.562713,4.67498343 22.3345937,3.87414592 22.9480232,2.95675194 C22.1141471,3.32624826 21.2295602,3.56856384 20.3237909,3.67560984 C21.2775862,3.10460512 21.9914375,2.2065137 22.3324955,1.14847247 C21.4356222,1.68067255 20.4544201,2.05574064 19.4312314,2.25749116 C18.0149679,0.751536664 15.7645388,0.382949002 13.9418554,1.35841097 C12.119172,2.33387294 11.1775267,4.4107919 11.6449403,6.42455096 C7.9712786,6.24038218 4.54853517,4.50521218 2.22852527,1.65087129 C1.01584027,3.73853861 1.63525628,6.40928256 3.64308084,7.75002875 C2.91597541,7.72847859 2.20472312,7.53233435 1.5693495,7.17814917 L1.5693495,7.23604977 C1.56994466,9.41096731 3.10304796,11.2842221 5.23490124,11.7148819 C4.56224764,11.8983288 3.85649397,11.925145 3.17185924,11.7932704 C3.77041572,13.6544824 5.48572169,14.9295074 7.44046775,14.9662219 C5.82257875,16.237747 3.8239618,16.9280071 1.76621145,16.9259336 C1.4026881,16.9252357 1.03951832,16.9032254 0.678571427,16.860016 C2.76801249,18.2008834 5.19919299,18.9121166 7.6818686,18.9088056" id="Shape"></path>
                        </g>
                    </g>
                </g>
            </g>
        </g>
    </g>
</svg>