<?xml version="1.0" encoding="UTF-8" standalone="no"?>
<svg width="24px" height="15px" viewBox="0 0 24 15" version="1.1" xmlns="http://www.w3.org/2000/svg" xmlns:xlink="http://www.w3.org/1999/xlink">
    <!-- Generator: Sketch 39.1 (31720) - http://www.bohemiancoding.com/sketch -->
    <title>share-gplus</title>
    <desc>Created with Sketch.</desc>
    <defs>
        <polygon id="path-1" points="0 16.0031683 25.1881188 16.0031683 25.1881188 0.00316831683 0 0.00316831683"></polygon>
    </defs>
    <g id="Page-1" stroke="none" stroke-width="1" fill="none" fill-rule="evenodd">
        <g id="share-gplus" transform="translate(0.000000, -1.000000)">
            <g id="Page-1">
                <g id="g+">
                    <g id="Fill-1-Clipped">
                        <mask id="mask-2" fill="white">
                            <use xlink:href="#path-1"></use>
                        </mask>
                        <g id="path-1"></g>
                        <path d="M21.0148515,7.16336633 L21.0148515,4.56435644 L19.1584159,4.56435644 L19.1584159,7.16336633 L16.4851485,7.16336633 L16.4851485,9.01980197 L19.1584159,9.01980197 L19.1584159,11.6930693 L21.0148515,11.6930693 L21.0148515,9.01980197 L23.6138614,9.01980197 L23.6138614,7.16336633 L21.0148515,7.16336633 L21.0148515,7.16336633 L21.0148515,7.16336633 Z M7.5,7.01485149 L7.5,9.9851485 C7.5,9.9851485 10.3814852,9.98128713 11.5547525,9.98128713 C10.9194059,11.9068564 9.93148515,12.9554456 7.5,12.9554456 C5.03933168,12.9554456 3.11881188,10.9606683 3.11881188,8.5 C3.11881188,6.03933168 5.03933168,4.04455446 7.5,4.04455446 C8.80099013,4.04455446 9.64121288,4.50183168 10.4119307,5.13918317 C11.0288614,4.52225247 10.9773267,4.43433168 12.5469059,2.95207921 C11.214505,1.73930693 9.44361383,1 7.5,1 C3.35784653,1 0,4.35784653 0,8.5 C0,12.6420792 3.35784653,16 7.5,16 C13.6913614,16 15.2046535,10.6089109 14.7029703,7.01485149 L7.5,7.01485149 L7.5,7.01485149 L7.5,7.01485149 Z" id="Fill-1" fill="#C53929" mask="url(#mask-2)"></path>
                    </g>
                </g>
            </g>
        </g>
    </g>
</svg>