<?xml version="1.0" encoding="UTF-8" standalone="no"?>
<svg width="17px" height="17px" viewBox="0 0 17 17" version="1.1" xmlns="http://www.w3.org/2000/svg" xmlns:xlink="http://www.w3.org/1999/xlink">
    <!-- Generator: Sketch 39.1 (31720) - http://www.bohemiancoding.com/sketch -->
    <title>Fill 15</title>
    <desc>Created with Sketch.</desc>
    <defs></defs>
    <g id="Page-1" stroke="none" stroke-width="1" fill="none" fill-rule="evenodd">
        <path d="M16.0616987,0 L0.938301348,0 C0.419945746,0 0,0.419945746 0,0.938237652 L0,16.0617623 C0,16.5799269 0.419945746,17 0.938301348,17 L9.08020413,17 L9.08020413,10.416731 L6.864804,10.416731 L6.864804,7.85106821 L9.08020413,7.85106821 L9.08020413,5.95898746 C9.08020413,3.76320562 10.4212534,2.56757364 12.3800872,2.56757364 C13.3183249,2.56757364 14.1247124,2.63744783 14.3598133,2.66865872 L14.3598133,4.96335999 L13.001184,4.96399694 C11.9359371,4.96399694 11.7296904,5.47018667 11.7296904,6.21300591 L11.7296904,7.85106821 L14.2702571,7.85106821 L13.9394216,10.416731 L11.7296904,10.416731 L11.7296904,17 L16.0616987,17 C16.5798632,17 16.9999363,16.5799269 16.9999363,16.0617623 L16.9999363,0.938237652 C16.9999363,0.419945746 16.5798632,0 16.0616987,0" id="Fill-15" fill="#375085"></path>
    </g>
</svg>