<?xml version="1.0" encoding="UTF-8" standalone="no"?>
<svg width="21px" height="21px" viewBox="0 0 21 21" version="1.1" xmlns="http://www.w3.org/2000/svg" xmlns:xlink="http://www.w3.org/1999/xlink">
    <!-- Generator: Sketch 39.1 (31720) - http://www.bohemiancoding.com/sketch -->
    <title>share-facebook-reverse</title>
    <desc>Created with Sketch.</desc>
    <defs></defs>
    <g id="Page-1" stroke="none" stroke-width="1" fill="none" fill-rule="evenodd">
        <g id="share-facebook-reverse" fill="#FFFFFF">
            <g id="Page-1">
                <g id="share-facebook">
                    <g id="Page-1">
                        <path d="M19.8409963,0 L1.15908248,0 C0.518758454,0 0,0.518758454 0,1.1590038 L0,19.8410748 C0,20.4811629 0.518758454,21.0000787 1.15908248,21.0000787 L11.2167648,21.0000787 L11.2167648,12.8677747 L8.48008378,12.8677747 L8.48008378,9.69841472 L11.2167648,9.69841472 L11.2167648,7.36112974 C11.2167648,4.64868318 12.8733613,3.1717205 15.2931062,3.1717205 C16.4521101,3.1717205 17.4482395,3.258036 17.7386594,3.29659077 L17.7386594,6.13123237 L16.0603463,6.1320192 C14.7444481,6.1320192 14.4896718,6.75731474 14.4896718,7.67491841 L14.4896718,9.69841472 L17.6280307,9.69841472 L17.21935,12.8677747 L14.4896718,12.8677747 L14.4896718,21.0000787 L19.8409963,21.0000787 C20.4810842,21.0000787 21,20.4811629 21,19.8410748 L21,1.1590038 C21,0.518758454 20.4810842,0 19.8409963,0" id="Fill-15"></path>
                    </g>
                </g>
            </g>
        </g>
    </g>
</svg>