<?xml version="1.0" encoding="UTF-8" standalone="no"?>
<svg width="20px" height="16px" viewBox="0 0 20 16" version="1.1" xmlns="http://www.w3.org/2000/svg" xmlns:xlink="http://www.w3.org/1999/xlink">
    <!-- Generator: Sketch 39.1 (31720) - http://www.bohemiancoding.com/sketch -->
    <title>Shape</title>
    <desc>Created with Sketch.</desc>
    <defs></defs>
    <g id="Page-1" stroke="none" stroke-width="1" fill="none" fill-rule="evenodd">
        <g id="Twitter_Logo_Blue" transform="translate(-3.000000, -4.000000)" fill="#1DA1F2">
            <path d="M9.46894198,19.9262052 C16.545658,19.9262052 20.4163231,14.0631977 20.4163231,8.97882406 C20.4163231,8.81229545 20.4163231,8.64651696 20.4050712,8.4814886 C21.1580741,7.93682815 21.8080789,7.26243867 22.3246511,6.48989637 C21.6224397,6.80105117 20.8775244,7.00510639 20.1147713,7.09525039 C20.9179673,6.61440431 21.5191053,5.8581168 21.806312,4.96713471 C21.0510503,5.4153032 20.2247748,5.73115001 19.3631422,5.90104519 C18.1704993,4.63287298 16.2754011,4.32248337 14.7405098,5.14392503 C13.2056185,5.96536669 12.4126541,7.71435107 12.8062655,9.41014818 C9.71265566,9.25505868 6.83034541,7.79386289 4.87665286,5.3902074 C3.85544444,7.14824304 4.37705792,9.39729058 6.06785755,10.52634 C5.45555824,10.5081925 4.85660894,10.3430184 4.32155747,10.0447572 L4.32155747,10.0935156 C4.32205866,11.9250251 5.61309302,13.5025028 7.40833789,13.8651637 C6.84189275,14.0196453 6.24757387,14.0422274 5.67103936,13.9311751 C6.17508692,15.4985115 7.61955511,16.5722168 9.26565705,16.6031342 C7.90322421,17.6738922 6.22017836,18.2551639 4.48733596,18.2534178 C4.18121103,18.2528301 3.87538385,18.2342951 3.57142857,18.1979082 C5.33095789,19.3270597 7.37826778,19.9259929 9.46894198,19.9232047" id="Shape"></path>
        </g>
    </g>
</svg>