<?xml version="1.0" encoding="UTF-8" standalone="no"?>
<svg width="32px" height="32px" viewBox="0 0 32 32" version="1.1" xmlns="http://www.w3.org/2000/svg" xmlns:xlink="http://www.w3.org/1999/xlink">
    <!-- Generator: Sketch 39.1 (31720) - http://www.bohemiancoding.com/sketch -->
    <title>Combined Shape</title>
    <desc>Created with Sketch.</desc>
    <defs></defs>
    <g id="Page-1" stroke="none" stroke-width="1" fill="none" fill-rule="evenodd">
        <g id="Artboard" fill="#FFFFFF">
            <g id="g+">
                <path d="M32,28 C32,30.209 30.209,32 28,32 L4,32 C1.791,32 0,30.209 0,28 L0,4 C0,1.791 1.791,0 4,0 L28,0 C30.209,0 32,1.791 32,4 L32,28 Z M25.4158416,14.5742574 L25.4158416,11.8019802 L23.4356436,11.8019802 L23.4356436,14.5742574 L20.5841584,14.5742574 L20.5841584,16.5544554 L23.4356436,16.5544554 L23.4356436,19.4059406 L25.4158416,19.4059406 L25.4158416,16.5544554 L28.1881188,16.5544554 L28.1881188,14.5742574 L25.4158416,14.5742574 Z M11,14.4158416 L11,17.5841584 C11,17.5841584 14.0735842,17.5800396 15.3250693,17.5800396 C14.6473663,19.6339802 13.5935842,20.7524752 11,20.7524752 C8.37528713,20.7524752 6.32673267,18.6247129 6.32673267,16 C6.32673267,13.3752871 8.37528713,11.2475248 11,11.2475248 C12.3877228,11.2475248 13.2839604,11.7352871 14.1060594,12.4151287 C14.7641188,11.7570693 14.7091485,11.6632871 16.3833663,10.0822178 C14.9621386,8.78859406 13.0731881,8 11,8 C6.58170297,8 3,11.581703 3,16 C3,20.4182178 6.58170297,24 11,24 C17.6041188,24 19.218297,18.249505 18.6831683,14.4158416 L11,14.4158416 Z" id="Combined-Shape"></path>
            </g>
        </g>
    </g>
</svg>