<?xml version="1.0" encoding="UTF-8" standalone="no"?>
<svg width="32px" height="32px" viewBox="0 0 32 32" version="1.1" xmlns="http://www.w3.org/2000/svg" xmlns:xlink="http://www.w3.org/1999/xlink">
    <!-- Generator: Sketch 3.8.3 (29802) - http://www.bohemiancoding.com/sketch -->
    <title>Combined Shape</title>
    <desc>Created with Sketch.</desc>
    <defs></defs>
    <g id="Page-1" stroke="none" stroke-width="1" fill="none" fill-rule="evenodd">
        <g id="staysure-sui-sprite" transform="translate(0.000000, -62.000000)" fill="#FFFFFF">
            <path d="M32,90 C32,92.209 30.209,94 28,94 L4,94 C1.791,94 0,92.209 0,90 L0,66 C0,63.791 1.791,62 4,62 L28,62 C30.209,62 32,63.791 32,66 L32,90 Z M16.39,73.55 L16.39,77.042 L13.832,77.042 L13.832,81.312 L16.39,81.312 L16.39,94 L21.645,94 L21.645,81.312 L25.172,81.312 C25.172,81.312 25.502,79.265 25.662,77.026 L21.665,77.026 L21.665,74.106 C21.665,73.67 22.238,73.083 22.804,73.083 L25.667,73.083 L25.667,68.638 L21.774,68.638 C16.261,68.637 16.39,72.912 16.39,73.55 Z" id="Combined-Shape"></path>
        </g>
    </g>
</svg>