<?xml version="1.0" encoding="UTF-8" standalone="no"?>
<svg width="32px" height="32px" viewBox="0 0 32 32" version="1.1" xmlns="http://www.w3.org/2000/svg" xmlns:xlink="http://www.w3.org/1999/xlink">
    <!-- Generator: Sketch 39.1 (31720) - http://www.bohemiancoding.com/sketch -->
    <title>Combined Shape</title>
    <desc>Created with Sketch.</desc>
    <defs></defs>
    <g id="Page-1" stroke="none" stroke-width="1" fill="none" fill-rule="evenodd">
        <g id="Artboard" fill="#FFFFFF">
            <path d="M32,28 C32,30.209 30.209,32 28,32 L4,32 C1.791,32 0,30.209 0,28 L0,4 C0,1.791 1.791,0 4,0 L28,0 C30.209,0 32,1.791 32,4 L32,28 Z M16.0006744,5 C9.9253832,5 5,9.92470877 5,16 C5,20.6603311 7.89938688,24.6408338 11.9918455,26.2432863 C11.8954016,25.3732679 11.8083998,24.0378909 12.0296137,23.0882894 C12.2299203,22.2297364 13.3198038,17.6199877 13.3198038,17.6199877 C13.3198038,17.6199877 12.9906806,16.9610668 12.9906806,15.9871858 C12.9906806,14.457572 13.8768853,13.3157572 14.9809319,13.3157572 C15.9197425,13.3157572 16.3729614,14.0198651 16.3729614,14.8649295 C16.3729614,15.8091355 15.7720417,17.220049 15.4618026,18.5277744 C15.2028204,19.6223789 16.0107909,20.515328 17.0905579,20.515328 C19.0457388,20.515328 20.5490497,18.4535868 20.5490497,15.477989 C20.5490497,12.8443286 18.656591,11.0024525 15.9541386,11.0024525 C12.8240956,11.0024525 10.9869405,13.3501533 10.9869405,15.7767627 C10.9869405,16.7216432 11.3511343,17.7359902 11.805702,18.2870018 C11.8954016,18.3955855 11.9088903,18.491355 11.8819129,18.6026364 C11.7982833,18.9499693 11.6128142,19.697241 11.5763948,19.8496628 C11.5285101,20.0513182 11.4165543,20.0938075 11.2081545,19.9973636 C9.83433476,19.3573268 8.97578173,17.3488657 8.97578173,15.7356223 C8.97578173,12.2656652 11.4968118,9.07896996 16.2441447,9.07896996 C20.0594114,9.07896996 23.0255671,11.7982833 23.0255671,15.4321275 C23.0255671,19.2231147 20.6347026,22.2742489 17.3171674,22.2742489 C16.2023299,22.2742489 15.1549356,21.6949111 14.7961373,21.0110362 C14.7961373,21.0110362 14.2444513,23.1112201 14.1109135,23.6258124 C13.8620478,24.5814838 13.1916616,25.7792765 12.7431637,26.5096873 C13.7723483,26.8280196 14.8662784,27 16.0006744,27 C22.0752912,27 27.0006744,22.0752912 27.0006744,16 C27.0006744,9.92470877 22.0752912,5 16.0006744,5 Z" id="Combined-Shape"></path>
        </g>
    </g>
</svg>