<?xml version="1.0" encoding="UTF-8" standalone="no"?>
<svg width="32px" height="32px" viewBox="0 0 32 32" version="1.1" xmlns="http://www.w3.org/2000/svg" xmlns:xlink="http://www.w3.org/1999/xlink">
    <!-- Generator: Sketch 3.8.3 (29802) - http://www.bohemiancoding.com/sketch -->
    <title>Combined Shape</title>
    <desc>Created with Sketch.</desc>
    <defs></defs>
    <g id="Page-1" stroke="none" stroke-width="1" fill="none" fill-rule="evenodd">
        <g id="staysure-sui-sprite" transform="translate(-42.000000, -62.000000)" fill="#FFFFFF">
            <path d="M74,90 C74,92.209 72.209,94 70,94 L46,94 C43.791,94 42,92.209 42,90 L42,66 C42,63.791 43.791,62 46,62 L70,62 C72.209,62 74,63.791 74,66 L74,90 Z M69.389,71.998 C68.561,72.365 67.672,72.614 66.739,72.725 C67.692,72.154 68.422,71.249 68.768,70.173 C67.874,70.702 66.887,71.085 65.835,71.294 C64.993,70.396 63.795,69.836 62.466,69.836 C59.917,69.836 57.85,71.903 57.85,74.45 C57.85,74.811 57.891,75.164 57.97,75.502 C54.135,75.309 50.734,73.472 48.457,70.679 C48.059,71.36 47.833,72.152 47.833,72.999 C47.833,74.6 48.648,76.013 49.886,76.84 C49.13,76.815 48.418,76.607 47.795,76.261 L47.795,76.319 C47.795,78.554 49.387,80.42 51.497,80.845 C51.11,80.949 50.703,81.007 50.281,81.007 C49.983,81.007 49.695,80.977 49.412,80.921 C50,82.756 51.704,84.09 53.723,84.127 C52.144,85.364 50.153,86.1 47.991,86.1 C47.618,86.1 47.251,86.078 46.89,86.037 C48.933,87.349 51.358,88.114 53.965,88.114 C62.456,88.114 67.097,81.081 67.097,74.982 L67.082,74.384 C67.988,73.736 68.772,72.923 69.389,71.998 Z" id="Combined-Shape"></path>
        </g>
    </g>
</svg>