<?xml version="1.0" encoding="UTF-8" standalone="no"?>
<svg width="25px" height="25px" viewBox="0 0 25 25" version="1.1" xmlns="http://www.w3.org/2000/svg" xmlns:xlink="http://www.w3.org/1999/xlink" xmlns:sketch="http://www.bohemiancoding.com/sketch/ns">
    <!-- Generator: Sketch 3.4.4 (17249) - http://www.bohemiancoding.com/sketch -->
    <title>Check</title>
    <desc>Created with Sketch.</desc>
    <defs></defs>
    <g id="MyStaysure---Mobile" stroke="none" stroke-width="1" fill="none" fill-rule="evenodd" sketch:type="MSPage">
        <g id="Tablet-Portrait---Dashboard---Menu-Open" sketch:type="MSArtboardGroup" transform="translate(-259.000000, -538.000000)" fill="#D9D9D9">
            <g id="Pending-Tasks" sketch:type="MSLayerGroup" transform="translate(237.000000, 410.000000)">
                <g id="Table" transform="translate(22.000000, 68.000000)" sketch:type="MSShapeGroup">
                    <g id="Task-2" transform="translate(0.000000, 60.000000)">
                        <g id="Check">
                            <path d="M12.3066667,0 C5.50916667,0 0,5.5075 0,12.3066667 C0,19.1025 5.50916667,24.6125 12.3066667,24.6125 C19.1041667,24.6125 24.6133333,19.1025 24.6133333,12.3066667 C24.6125,5.5075 19.1033333,0 12.3066667,0 L12.3066667,0 Z M12.3066667,22.605 C6.61666667,22.605 2.00583333,17.995 2.00583333,12.3058333 C2.00583333,6.61583333 6.61666667,2.00416667 12.3066667,2.00416667 C17.995,2.00416667 22.6058333,6.61666667 22.6058333,12.3058333 C22.6058333,17.995 17.995,22.605 12.3066667,22.605 L12.3066667,22.605 Z" id="Shape"></path>
                            <path d="M17.7404684,7.18170416 C17.5491962,6.99043195 17.2390505,6.99043195 17.0477783,7.18170416 L10.3155688,13.9139835 L7.45220779,11.0506922 C7.26100537,10.85942 6.95082479,10.85942 6.75958747,11.0506922 L5.14347339,12.6668412 C4.95220118,12.8580785 4.95220118,13.1682242 5.14347339,13.3594964 L9.96927608,18.1852642 C10.0649122,18.2809352 10.1902754,18.3287358 10.3156037,18.3287358 C10.4409669,18.3287358 10.5663301,18.2809352 10.6619313,18.1852642 L19.3565825,9.49047345 C19.4484504,9.39864046 19.5000192,9.27404487 19.5000192,9.14418074 C19.5000541,9.01424683 19.4484504,8.88972101 19.3565825,8.79785313 L17.7404684,7.18170416 Z" id="Shape"></path>
                        </g>
                    </g>
                </g>
            </g>
        </g>
    </g>
</svg>