<svg xmlns="http://www.w3.org/2000/svg" width="31" height="41" viewBox="0 0 31 41">
    <path d="M26.25 5H20a5 5 0 0 0-10 0H3.75A3.751 3.751 0 0 0 0 8.75v27.5A3.751 3.751 0 0 0 3.75 40h22.5A3.751 3.751 0 0 0 30 36.25V8.75A3.751 3.751 0 0 0 26.25 5zM15 3.125A1.875 1.875 0 1 1 13.125 5 1.871 1.871 0 0 1 15 3.125zm9.469 18.109L13.3 32.313a.938.938 0 0 1-1.328-.008L5.516 25.8a.938.938 0 0 1 .008-1.328l2.219-2.2a.938.938 0 0 1 1.328.008l3.593 3.62 8.281-8.219a.938.938 0 0 1 1.328.008l2.2 2.219a.938.938 0 0 1-.004 1.326z" transform="translate(.5 .5)" style="fill:#0aa4ad;"/>
</svg>
