<svg xmlns="http://www.w3.org/2000/svg" width="46.729" height="41" viewBox="0 0 46.729 41">
    <path d="M22.857 32C10.232 32 0 40.313 0 50.571a16.484 16.484 0 0 0 5.089 11.67C3.973 66.741.241 70.75.2 70.795a.71.71 0 0 0-.134.777.7.7 0 0 0 .648.428 20.419 20.419 0 0 0 12.554-4.589 27.23 27.23 0 0 0 9.589 1.732c12.625 0 22.857-8.312 22.857-18.571S35.482 32 22.857 32zM11.429 53.429a2.857 2.857 0 1 1 2.857-2.857 2.854 2.854 0 0 1-2.857 2.857zm11.429 0a2.857 2.857 0 1 1 2.857-2.857 2.854 2.854 0 0 1-2.858 2.857zm11.429 0a2.857 2.857 0 1 1 2.857-2.857 2.854 2.854 0 0 1-2.858 2.857z" transform="translate(.515 -31.5)" style="fill:#0aa4ad;opacity:.995"/>
</svg>
