<svg xmlns="http://www.w3.org/2000/svg" width="50" height="50" viewBox="0 0 50 50">
  <path id="instagram-square" d="M25,51.047A5.953,5.953,0,1,0,30.955,57,5.953,5.953,0,0,0,25,51.047Zm13.919-4.576a6.027,6.027,0,0,0-3.394-3.394c-2.344-.925-7.924-.718-10.525-.718s-8.175-.215-10.526.718a6.027,6.027,0,0,0-3.394,3.394c-.924,2.344-.718,7.93-.718,10.528s-.206,8.177.722,10.529a6.027,6.027,0,0,0,3.394,3.394c2.344.925,7.924.718,10.526.718s8.174.215,10.525-.718a6.027,6.027,0,0,0,3.394-3.394c.932-2.344.718-7.93.718-10.528s.214-8.176-.718-10.528ZM25,66.152a9.141,9.141,0,1,1,6.475-2.677A9.152,9.152,0,0,1,25,66.152ZM34.529,49.6a2.124,2.124,0,1,1,1.514-.623,2.136,2.136,0,0,1-1.514.623ZM44.643,32H5.357A5.357,5.357,0,0,0,0,37.357V76.643A5.357,5.357,0,0,0,5.357,82H44.643A5.357,5.357,0,0,0,50,76.643V37.357A5.357,5.357,0,0,0,44.643,32ZM42.732,64.366c-.144,2.86-.8,5.4-2.885,7.478s-4.621,2.749-7.478,2.885c-2.948.166-11.785.166-14.732,0-2.86-.144-5.386-.8-7.478-2.885s-2.749-4.623-2.885-7.478c-.166-2.949-.166-11.787,0-14.732.144-2.86.789-5.4,2.885-7.478s4.628-2.741,7.478-2.877c2.948-.166,11.785-.166,14.732,0,2.86.144,5.394.8,7.478,2.885s2.749,4.623,2.885,7.483C42.9,52.585,42.9,61.415,42.732,64.366Z" transform="translate(0 -32)" fill="#65509c"/>
</svg>
