<svg xmlns="http://www.w3.org/2000/svg" width="76.461" height="67.683" viewBox="0 0 76.461 67.683">
  <path id="Path_507" data-name="Path 507" d="M68.607-127.743q0,3.7,4.389,3.927l4.62.231a11.412,11.412,0,0,1,8.2,4.389,14.11,14.11,0,0,1,3.58,9.471,14.376,14.376,0,0,1-4.62,10.857,16.111,16.111,0,0,1-11.55,4.389,16.408,16.408,0,0,1-13.282-6.353q-5.2-6.352-5.2-16.285Q54.747-135.6,69.3-155q5.313-7.161,9.24-7.161,4.389,0,4.389,4.62,0,1.848-2.541,5.082a70.243,70.243,0,0,0-10.395,18.711A18.088,18.088,0,0,0,68.607-127.743Zm-42.042,0q0,3.7,4.389,3.927l4.62.231a11.6,11.6,0,0,1,8.431,4.389,14.11,14.11,0,0,1,3.58,9.471,14.376,14.376,0,0,1-4.62,10.857,16.111,16.111,0,0,1-11.55,4.389,16.408,16.408,0,0,1-13.283-6.353q-5.2-6.352-5.2-16.285,0-18.48,14.553-37.884,5.313-7.161,9.24-7.161,4.389,0,4.389,4.62,0,1.848-2.541,5.082a70.8,70.8,0,0,0-8.316,13.4Q26.565-131.439,26.565-127.743Z" transform="translate(-12.936 162.162)" fill="#707070" opacity="0.197"/>
</svg>
