<?xml version="1.0" encoding="utf-8"?>
<!-- Generator: Adobe Illustrator 24.3.0, SVG Export Plug-In . SVG Version: 6.00 Build 0)  -->
<svg version="1.1" id="Layer_1" xmlns="http://www.w3.org/2000/svg" xmlns:xlink="http://www.w3.org/1999/xlink" x="0px" y="0px"
	 viewBox="0 0 199.5 54.7" style="enable-background:new 0 0 199.5 54.7;" xml:space="preserve">
<style type="text/css">
	.st0{fill:#FFFFFF;}
	.st1{fill:#FF7600;}
</style>
<path id="_x32_0_x5F_off_2_" class="st1" d="M31.1,42.4c1.5,0,2.8,0.5,3.7,1.5c1,1,1.4,2.3,1.4,3.8c0,1.5-0.5,2.8-1.4,3.7
	c-1,1-2.2,1.4-3.7,1.4H4.4c-1.3,0-2.4-0.4-3.2-1.2C0.4,50.9,0,49.8,0,48.5v-0.4c0-4,0.5-7.3,1.5-10c1-2.7,3.2-5.1,6.5-7.3l9.7-6.3
	c3.8-2.5,5.7-5.5,5.7-9c0-1.6-0.5-2.9-1.5-3.8c-1-0.9-2.4-1.4-4.4-1.4c-3.2,0-5.4,1.5-6.4,4.4c-0.8,2.4-2.6,3.6-5.4,3.6
	c-1.6,0-3-0.5-4-1.6c-1-1.1-1.4-2.4-1.3-3.9C0.8,9,2.7,5.9,6.1,3.6C9.5,1.2,13.5,0,18,0c5.3,0,9.5,1.3,12.6,4
	c3.1,2.7,4.7,6.3,4.7,10.9c0,3.8-0.8,7.1-2.5,9.7c-1.7,2.7-4.2,5.2-7.6,7.4L16.1,38c-1.9,1.2-3,2.7-3.2,4.4H31.1z M77.2,16.9v19.9
	c0,5.2-1.6,9.3-4.9,12.3c-3.2,3-7.5,4.6-12.8,4.6c-5.3,0-9.5-1.5-12.8-4.6c-3.2-3-4.9-7.1-4.9-12.3V16.9c0-5.3,1.5-9.4,4.6-12.4
	c3-3,7.4-4.5,13.1-4.5c5.3,0,9.5,1.5,12.8,4.6C75.6,7.6,77.2,11.7,77.2,16.9z M53.3,17.1v19.4c0,2.1,0.5,3.8,1.6,5
	c1.1,1.2,2.6,1.8,4.6,1.8c2,0,3.5-0.6,4.6-1.8c1.1-1.2,1.6-2.9,1.6-5V17.1c0-2.1-0.5-3.8-1.6-5c-1.1-1.2-2.6-1.8-4.6-1.8
	c-2,0-3.5,0.6-4.6,1.8C53.9,13.3,53.3,15,53.3,17.1z M137.8,34.9v6.9c0,3.8-1.2,6.8-3.5,9.1c-2.4,2.3-5.4,3.4-9.3,3.4
	c-3.8,0-6.9-1.1-9.3-3.4c-2.4-2.3-3.5-5.3-3.5-9.1v-6.9c0-3.8,1.2-6.8,3.5-9.1c2.3-2.3,5.4-3.4,9.3-3.4c3.8,0,6.9,1.1,9.3,3.4
	C136.7,28.1,137.8,31.1,137.8,34.9z M121,34.3v8.1c0,1.3,0.4,2.4,1.1,3.2c0.7,0.8,1.7,1.2,3,1.2c1.2,0,2.2-0.4,3-1.2
	c0.7-0.8,1.1-1.9,1.1-3.2v-8.1c0-1.3-0.4-2.4-1.1-3.2c-0.7-0.8-1.7-1.2-3-1.2c-1.2,0-2.2,0.4-3,1.2C121.3,31.9,121,33,121,34.3z
	 M141.3,29.7c-0.7-0.7-1-1.6-1-2.7s0.3-2,1-2.7c0.7-0.7,1.5-1,2.6-1h0.9v-0.7c0-3.7,1-6.5,3-8.4c2-1.9,4.8-2.8,8.5-2.8h0.3
	c1.1,0,2,0.3,2.7,1c0.7,0.7,1,1.6,1,2.7s-0.3,2-1,2.7c-0.7,0.7-1.6,1-2.7,1h-0.2c-1.9,0-2.8,1.1-2.8,3.4v1.2h2.7c1.1,0,2,0.3,2.6,1
	c0.7,0.7,1,1.6,1,2.7s-0.3,2-1,2.7c-0.7,0.7-1.5,1-2.6,1h-2.7v18.9c0,1.3-0.4,2.3-1.2,3.1c-0.8,0.8-1.9,1.2-3.2,1.2
	c-1.3,0-2.3-0.4-3.2-1.2c-0.8-0.8-1.2-1.8-1.2-3.1V30.7h-0.9C142.8,30.7,141.9,30.4,141.3,29.7z M161.7,29.7c-0.7-0.7-1-1.6-1-2.7
	s0.3-2,1-2.7c0.7-0.7,1.5-1,2.6-1h0.9v-0.7c0-3.7,1-6.5,3-8.4c2-1.9,4.8-2.8,8.5-2.8h0.3c1.1,0,2,0.3,2.7,1c0.7,0.7,1,1.6,1,2.7
	s-0.3,2-1,2.7c-0.7,0.7-1.6,1-2.7,1h-0.2c-1.9,0-2.8,1.1-2.8,3.4v1.2h2.7c1.1,0,2,0.3,2.6,1c0.7,0.7,1,1.6,1,2.7s-0.3,2-1,2.7
	c-0.7,0.7-1.5,1-2.6,1h-2.7v18.9c0,1.3-0.4,2.3-1.2,3.1c-0.8,0.8-1.9,1.2-3.2,1.2c-1.3,0-2.3-0.4-3.2-1.2c-0.8-0.8-1.2-1.8-1.2-3.1
	V30.7h-0.9C163.2,30.7,162.3,30.4,161.7,29.7z M93.8,33v3.8c0,1.3-0.4,2.5-1.3,3.3c-0.9,0.9-2.1,1.3-3.6,1.3c-1.6,0-2.8-0.4-3.6-1.3
	c-0.9-0.9-1.3-2-1.3-3.3V33c0-1.3,0.4-2.5,1.3-3.3c0.9-0.9,2.1-1.3,3.6-1.3c1.6,0,2.8,0.4,3.6,1.3C93.4,30.6,93.8,31.7,93.8,33z
	 M97,41.5l-6.6,12.1c-0.3,0.6-0.8,0.9-1.5,0.9c-0.5,0-0.9-0.2-1.2-0.5c-0.3-0.3-0.5-0.8-0.5-1.2c0-0.3,0.1-0.6,0.2-0.9l6-10.4
	l6.6-12c0.3-0.6,0.8-0.9,1.5-0.9c0.5,0,0.9,0.2,1.2,0.5c0.3,0.3,0.5,0.8,0.5,1.2c0,0.3-0.1,0.6-0.2,0.9L97,41.5z M87.6,33.1v3.6
	c0,1,0.4,1.6,1.3,1.6s1.3-0.5,1.3-1.6v-3.6c0-1-0.4-1.6-1.3-1.6S87.6,32.1,87.6,33.1z M106.2,46.1V50c0,1.3-0.4,2.5-1.3,3.3
	c-0.9,0.9-2.1,1.3-3.6,1.3c-1.6,0-2.8-0.4-3.6-1.3c-0.9-0.9-1.3-2-1.3-3.3v-3.8c0-1.3,0.4-2.5,1.3-3.3c0.9-0.9,2.1-1.3,3.6-1.3
	c1.6,0,2.8,0.4,3.6,1.3C105.8,43.7,106.2,44.8,106.2,46.1z M99.9,46.3v3.6c0,1,0.4,1.6,1.3,1.6c0.9,0,1.3-0.5,1.3-1.6v-3.6
	c0-1-0.4-1.6-1.3-1.6C100.4,44.7,99.9,45.2,99.9,46.3z M196.9,49l2.7-0.2v1.8l-2.7-0.2l0.4,3h-2.1l0.4-3l-2.7,0.2v-1.8l2.7,0.2
	l-0.4-1.9l0.4-1.8l-2.7,0.2v-1.8l2.7,0.2l-0.4-3h2.1l-0.4,3l2.7-0.2v1.8l-2.7-0.2l0.4,1.8L196.9,49z"/>
</svg>
