<?xml version="1.0" encoding="utf-8"?>
<!-- Generator: Adobe Illustrator 24.3.0, SVG Export Plug-In . SVG Version: 6.00 Build 0)  -->
<svg version="1.1" id="Layer_1" xmlns="http://www.w3.org/2000/svg" xmlns:xlink="http://www.w3.org/1999/xlink" x="0px" y="0px"
	 viewBox="0 0 274.1 35.5" style="enable-background:new 0 0 274.1 35.5;" xml:space="preserve">
<style type="text/css">
	.st0{fill:#FFFFFF;}
	.st1{fill:#FF7600;}
</style>
<path id="summer_x5F_sale_2_" class="st0" d="M19.5,12c-1.5,0-2.5-0.7-3-2.1c-1-2.5-2.6-3.8-5-3.8c-1.5,0-2.6,0.4-3.4,1.1
	C7.3,7.8,6.9,8.7,6.9,9.8c0,1.8,1.1,3,3.2,3.8l4.8,1.7c1.3,0.4,2.3,0.9,3.2,1.3c0.8,0.4,1.7,1,2.6,1.8c0.9,0.8,1.6,1.7,2,2.8
	c0.5,1.1,0.7,2.4,0.7,3.9c0,3.1-1.1,5.6-3.2,7.5c-2.1,1.9-4.9,2.8-8.4,2.8c-3,0-5.5-0.7-7.6-2c-2-1.3-3.4-3.2-4-5.5
	c-0.3-1-0.1-2,0.4-2.8C1.1,24.4,2,24,3.2,24c1.3,0,2.3,0.8,2.9,2.5c0.4,1.2,1,2.2,1.9,2.8c0.8,0.6,2,0.9,3.6,0.9
	c1.7,0,3.1-0.4,4-1.2c1-0.8,1.5-1.8,1.5-3.1c0-2-1.2-3.5-3.7-4.4l-5.1-2c-2.5-1-4.3-2.2-5.6-3.6c-1.3-1.5-1.9-3.4-1.9-5.6
	c0-2.7,1-4.9,3-6.7c2-1.8,4.6-2.7,7.9-2.7c2.8,0,5.1,0.6,7,1.9c1.9,1.3,3.2,3,3.7,5.3c0.3,1,0.1,1.9-0.4,2.8
	C21.3,11.5,20.5,12,19.5,12z M41.9,33.4l-0.2-0.8c-1.4,1.9-3.5,2.9-6.3,2.9c-2.7,0-4.7-0.8-6.1-2.4c-1.4-1.6-2.1-3.8-2.1-6.5V12.7
	c0-0.9,0.3-1.7,0.8-2.2c0.6-0.6,1.3-0.8,2.2-0.8c0.9,0,1.7,0.3,2.3,0.8c0.6,0.6,0.9,1.3,0.9,2.2v13.5c0,1.2,0.3,2.1,0.9,2.8
	c0.6,0.7,1.5,1.1,2.7,1.1c1.3,0,2.3-0.4,3-1.3c0.8-0.8,1.1-1.9,1.1-3.2v-13c0-0.9,0.3-1.7,0.8-2.2c0.6-0.6,1.3-0.8,2.2-0.8
	c0.9,0,1.7,0.3,2.3,0.8c0.6,0.6,0.9,1.3,0.9,2.2v19.6c0,0.9-0.3,1.6-0.8,2.2c-0.5,0.5-1.2,0.8-2.1,0.8c-0.6,0-1.2-0.2-1.7-0.5
	C42.4,34.4,42,33.9,41.9,33.4z M58.4,11.5l0.2,0.8c1.5-2,3.6-3,6.3-3c3.4,0,5.7,1.4,7,4.1c0.6-1.3,1.5-2.3,2.7-3
	c1.2-0.7,2.6-1.1,4.2-1.1c2.7,0,4.7,0.9,6.1,2.6c1.4,1.7,2.1,4,2.1,6.8v13.5c0,0.9-0.3,1.6-0.9,2.2c-0.6,0.6-1.3,0.8-2.3,0.8
	c-0.9,0-1.6-0.3-2.2-0.8c-0.6-0.6-0.9-1.3-0.9-2.2V19.1c0-1.3-0.3-2.4-1-3.2c-0.6-0.8-1.6-1.2-2.8-1.2c-1.2,0-2.2,0.4-2.9,1.2
	c-0.8,0.8-1.1,1.8-1.1,3v13.3c0,0.9-0.3,1.6-0.9,2.2c-0.6,0.6-1.3,0.8-2.2,0.8c-0.9,0-1.6-0.3-2.2-0.8c-0.6-0.6-0.9-1.3-0.9-2.2
	V19.1c0-1.3-0.3-2.4-1-3.2c-0.7-0.8-1.6-1.2-2.8-1.2c-1.2,0-2.2,0.4-2.9,1.3c-0.7,0.8-1.1,1.9-1.1,3.2v13.1c0,0.9-0.3,1.6-0.9,2.2
	c-0.6,0.6-1.3,0.8-2.2,0.8c-0.9,0-1.7-0.3-2.3-0.8c-0.6-0.6-0.9-1.3-0.9-2.2V12.6c0-0.9,0.3-1.7,0.8-2.2c0.5-0.5,1.2-0.8,2.1-0.8
	c0.6,0,1.2,0.2,1.7,0.5C58,10.5,58.3,10.9,58.4,11.5z M97.7,11.5l0.2,0.8c1.5-2,3.6-3,6.3-3c3.4,0,5.7,1.4,7,4.1
	c0.6-1.3,1.5-2.3,2.7-3c1.2-0.7,2.6-1.1,4.2-1.1c2.7,0,4.7,0.9,6.1,2.6c1.4,1.7,2.1,4,2.1,6.8v13.5c0,0.9-0.3,1.6-0.9,2.2
	c-0.6,0.6-1.3,0.8-2.3,0.8c-0.9,0-1.6-0.3-2.2-0.8c-0.6-0.6-0.9-1.3-0.9-2.2V19.1c0-1.3-0.3-2.4-1-3.2c-0.6-0.8-1.6-1.2-2.8-1.2
	c-1.2,0-2.2,0.4-2.9,1.2c-0.8,0.8-1.1,1.8-1.1,3v13.3c0,0.9-0.3,1.6-0.9,2.2c-0.6,0.6-1.3,0.8-2.2,0.8c-0.9,0-1.6-0.3-2.2-0.8
	c-0.6-0.6-0.9-1.3-0.9-2.2V19.1c0-1.3-0.3-2.4-1-3.2c-0.7-0.8-1.6-1.2-2.8-1.2c-1.2,0-2.2,0.4-2.9,1.3c-0.7,0.8-1.1,1.9-1.1,3.2
	v13.1c0,0.9-0.3,1.6-0.9,2.2c-0.6,0.6-1.3,0.8-2.2,0.8c-0.9,0-1.7-0.3-2.3-0.8c-0.6-0.6-0.9-1.3-0.9-2.2V12.6c0-0.9,0.3-1.7,0.8-2.2
	c0.5-0.5,1.2-0.8,2.1-0.8c0.6,0,1.2,0.2,1.7,0.5C97.3,10.5,97.6,10.9,97.7,11.5z M147.6,26.1c0.9,0,1.6,0.4,2.1,1.1
	c0.5,0.7,0.6,1.6,0.3,2.6c-0.5,1.8-1.6,3.2-3.3,4.2c-1.7,1-3.6,1.5-5.9,1.5c-3.1,0-5.6-0.9-7.4-2.7c-1.9-1.8-2.8-4.2-2.8-7.3v-6.1
	c0-3.1,0.9-5.5,2.8-7.4c1.9-1.8,4.3-2.7,7.4-2.7c2.9,0,5.3,0.9,7.1,2.8c1.8,1.8,2.7,4.3,2.7,7.3v1.1c0,1-0.3,1.7-0.8,2.3
	c-0.5,0.5-1.3,0.8-2.2,0.8h-10.9v2.6c0,1.3,0.4,2.4,1.2,3.2c0.8,0.8,1.8,1.2,3.2,1.2c1.8,0,3.2-0.9,4.2-2.7
	C145.8,26.7,146.6,26.1,147.6,26.1z M136.6,18.7v0.6h8.1v-0.6c0-1.3-0.4-2.4-1.1-3.2c-0.7-0.8-1.7-1.3-2.9-1.3c-1.3,0-2.3,0.4-3,1.2
	C137,16.3,136.6,17.4,136.6,18.7z M160.5,11.5l0.3,1.2c1.3-2.1,3-3.2,4.9-3.2c0.8,0,1.4,0.3,2,0.8c0.5,0.5,0.8,1.2,0.8,1.9
	c0,1.7-0.9,2.6-2.8,2.9c-3,0.4-4.5,1.9-4.5,4.5v12.6c0,0.9-0.3,1.6-0.8,2.2c-0.6,0.6-1.3,0.8-2.2,0.8c-0.9,0-1.6-0.3-2.2-0.8
	c-0.6-0.6-0.9-1.3-0.9-2.2V12.6c0-0.9,0.3-1.7,0.8-2.2c0.5-0.5,1.2-0.8,2.1-0.8C159.3,9.6,160.2,10.2,160.5,11.5z M198.8,12
	c-1.5,0-2.5-0.7-3-2.1c-1-2.5-2.6-3.8-5-3.8c-1.5,0-2.6,0.4-3.4,1.1c-0.8,0.7-1.2,1.6-1.2,2.7c0,1.8,1.1,3,3.2,3.8l4.8,1.7
	c1.3,0.4,2.3,0.9,3.2,1.3c0.8,0.4,1.7,1,2.6,1.8c0.9,0.8,1.6,1.7,2,2.8c0.5,1.1,0.7,2.4,0.7,3.9c0,3.1-1.1,5.6-3.2,7.5
	c-2.1,1.9-4.9,2.8-8.4,2.8c-3,0-5.5-0.7-7.6-2c-2-1.3-3.4-3.2-4-5.5c-0.3-1-0.1-2,0.4-2.8c0.6-0.8,1.4-1.3,2.6-1.3
	c1.3,0,2.3,0.8,2.9,2.5c0.4,1.2,1,2.2,1.9,2.8c0.8,0.6,2,0.9,3.6,0.9c1.7,0,3.1-0.4,4-1.2c1-0.8,1.5-1.8,1.5-3.1
	c0-2-1.2-3.5-3.7-4.4l-5.1-2c-2.5-1-4.3-2.2-5.6-3.6c-1.3-1.5-1.9-3.4-1.9-5.6c0-2.7,1-4.9,3-6.7c2-1.8,4.6-2.7,7.9-2.7
	c2.8,0,5.1,0.6,7,1.9c1.9,1.3,3.2,3,3.7,5.3c0.3,1,0.1,1.9-0.4,2.8C200.6,11.5,199.8,12,198.8,12z M220.9,33.3l-0.2-0.7
	c-1.4,1.9-3.4,2.9-6.1,2.9c-2.7,0-4.8-0.9-6.3-2.7c-1.5-1.8-2.2-4.1-2.2-7.1v-6.7c0-2.9,0.7-5.3,2.2-7.1c1.5-1.8,3.6-2.7,6.3-2.7
	c2.6,0,4.7,1,6.1,2.9l0.2-0.7c0.3-1.3,1.2-2,2.8-2c0.9,0,1.5,0.3,2.1,0.8c0.5,0.5,0.8,1.3,0.8,2.2v19.7c0,0.9-0.3,1.6-0.8,2.2
	c-0.5,0.5-1.2,0.8-2.1,0.8C222.1,35.3,221.2,34.6,220.9,33.3z M216.2,30.1c1.3,0,2.3-0.4,3-1.3c0.8-0.8,1.1-1.9,1.1-3.2v-6.5
	c0-1.3-0.4-2.4-1.1-3.2c-0.8-0.8-1.8-1.3-3-1.3c-1.2,0-2.2,0.4-2.9,1.2c-0.7,0.8-1,1.9-1,3.2v6.7c0,1.3,0.3,2.3,1,3.1
	C214,29.7,214.9,30.1,216.2,30.1z M232.9,0.8c0.6-0.6,1.3-0.8,2.2-0.8c0.9,0,1.6,0.3,2.2,0.8c0.6,0.6,0.9,1.3,0.9,2.2v29.2
	c0,0.9-0.3,1.6-0.9,2.2c-0.6,0.6-1.3,0.8-2.2,0.8c-0.9,0-1.6-0.3-2.2-0.8c-0.6-0.6-0.9-1.3-0.9-2.2V3C232,2.1,232.3,1.4,232.9,0.8z
	 M259.7,26.1c0.9,0,1.6,0.4,2.1,1.1c0.5,0.7,0.6,1.6,0.3,2.6c-0.5,1.8-1.6,3.2-3.3,4.2c-1.7,1-3.6,1.5-5.9,1.5
	c-3.1,0-5.6-0.9-7.4-2.7c-1.9-1.8-2.8-4.2-2.8-7.3v-6.1c0-3.1,0.9-5.5,2.8-7.4c1.9-1.8,4.3-2.7,7.4-2.7c2.9,0,5.3,0.9,7.1,2.8
	c1.8,1.8,2.7,4.3,2.7,7.3v1.1c0,1-0.3,1.7-0.8,2.3c-0.5,0.5-1.3,0.8-2.2,0.8h-10.9v2.6c0,1.3,0.4,2.4,1.2,3.2
	c0.8,0.8,1.8,1.2,3.2,1.2c1.8,0,3.2-0.9,4.2-2.7C257.9,26.7,258.7,26.1,259.7,26.1z M248.8,18.7v0.6h8.1v-0.6c0-1.3-0.4-2.4-1.1-3.2
	c-0.7-0.8-1.7-1.3-2.9-1.3c-1.3,0-2.3,0.4-3,1.2C249.1,16.3,248.8,17.4,248.8,18.7z M266.8,31.9c0-1,0.4-1.9,1.1-2.6
	c0.7-0.7,1.5-1.1,2.5-1.1c1,0,1.9,0.4,2.6,1.1c0.7,0.7,1.1,1.6,1.1,2.6c0,1-0.4,1.8-1.1,2.5c-0.7,0.7-1.6,1.1-2.6,1.1
	c-1,0-1.8-0.4-2.5-1.1C267.2,33.8,266.8,32.9,266.8,31.9z M273.6,9.9l-1.1,14c0,0.5-0.2,1-0.6,1.3c-0.4,0.3-0.9,0.5-1.4,0.5
	c-0.5,0-1-0.2-1.4-0.5c-0.4-0.3-0.6-0.8-0.6-1.3l-1.2-14V4.2c0-1,0.3-1.7,0.9-2.3c0.6-0.6,1.4-0.8,2.3-0.8c1,0,1.7,0.3,2.3,0.8
	c0.6,0.6,0.9,1.3,0.9,2.3V9.9z"/>
</svg>
