<?xml version="1.0" encoding="utf-8"?>
<!-- Generator: Adobe Illustrator 24.0.2, SVG Export Plug-In . SVG Version: 6.00 Build 0)  -->
<svg version="1.1" id="_x31_00_x2C_00_TP_Rev_1_" xmlns="http://www.w3.org/2000/svg" xmlns:xlink="http://www.w3.org/1999/xlink"
	 x="0px" y="0px" viewBox="0 0 172.9 85.4" style="enable-background:new 0 0 172.9 85.4;" xml:space="preserve">
<style type="text/css">
	.st0{fill:#65509C;}
	.st1{fill:#FFFFFF;}
	.st2{fill:#65509D;}
</style>
<g>
	<path class="st0" d="M38.7,10c0.5,0,0.9,0.2,1.2,0.6s0.4,0.9,0.3,1.4c-0.3,1.1-0.8,2-1.7,2.6c-0.9,0.6-1.9,0.9-3.2,0.9
		c-1.6,0-2.8-0.4-3.8-1.3c-1-0.9-1.4-2.1-1.4-3.6V5.5c0-1.5,0.4-2.7,1.3-3.6s2.2-1.3,3.9-1.3c1.3,0,2.3,0.3,3.2,0.9s1.4,1.5,1.7,2.6
		c0.1,0.5,0.1,1-0.2,1.4s-0.7,0.6-1.3,0.6c-0.8,0-1.3-0.4-1.5-1.1c-0.3-1-0.9-1.5-2-1.5c-0.6,0-1.1,0.2-1.4,0.6
		c-0.3,0.4-0.5,0.9-0.5,1.5v5c0,0.6,0.2,1.2,0.5,1.5c0.3,0.4,0.8,0.6,1.4,0.6c1,0,1.7-0.5,2-1.5C37.4,10.4,37.9,10,38.7,10z
		 M49.4,11.4c0.5,0,0.8,0.2,1.1,0.6c0.3,0.4,0.3,0.8,0.1,1.3c-0.3,0.7-0.8,1.2-1.5,1.6s-1.5,0.6-2.5,0.6c-1.4,0-2.5-0.4-3.3-1.2
		s-1.2-1.9-1.2-3.2V8.7c0-1.3,0.4-2.4,1.2-3.2s1.9-1.2,3.3-1.2c1.3,0,2.3,0.4,3.1,1.2s1.2,1.9,1.2,3.2V9c0,0.5-0.1,0.8-0.4,1.1
		c-0.3,0.3-0.6,0.4-1.1,0.4h-4.2v0.9c0,0.5,0.1,0.9,0.4,1.2c0.3,0.3,0.7,0.4,1.1,0.4c0.6,0,1-0.3,1.4-0.8c0.2-0.3,0.4-0.5,0.6-0.6
		C48.9,11.5,49.1,11.4,49.4,11.4z M45.1,8.3v0.2h2.8V8.3c0-0.5-0.1-0.9-0.4-1.1c-0.2-0.3-0.6-0.4-1-0.4s-0.8,0.1-1,0.4
		C45.3,7.5,45.1,7.9,45.1,8.3z M53.2,0.7c0.3-0.3,0.7-0.4,1.1-0.4c0.5,0,0.8,0.1,1.1,0.4s0.4,0.6,0.4,1.1v12.1
		c0,0.5-0.1,0.8-0.4,1.1c-0.3,0.3-0.7,0.4-1.1,0.4c-0.5,0-0.8-0.1-1.1-0.4c-0.3-0.3-0.4-0.7-0.4-1.1V1.8C52.8,1.4,52.9,1,53.2,0.7z
		 M65.2,11.4c0.5,0,0.8,0.2,1.1,0.6c0.3,0.4,0.3,0.8,0.1,1.3c-0.3,0.7-0.8,1.2-1.5,1.6s-1.5,0.6-2.5,0.6c-1.4,0-2.5-0.4-3.3-1.2
		s-1.2-1.9-1.2-3.2V8.7c0-1.3,0.4-2.4,1.2-3.2s1.9-1.2,3.2-1.2s2.3,0.4,3.1,1.2s1.2,1.9,1.2,3.2V9c0,0.5-0.1,0.8-0.4,1.1
		s-0.6,0.4-1.1,0.4h-4.2v0.9c0,0.5,0.1,0.9,0.4,1.2c0.3,0.3,0.7,0.4,1.1,0.4c0.6,0,1-0.3,1.4-0.8c0.2-0.3,0.4-0.5,0.6-0.6
		C64.6,11.5,64.9,11.4,65.2,11.4z M60.9,8.3v0.2h2.8V8.3c0-0.5-0.1-0.9-0.4-1.1c-0.2-0.3-0.6-0.4-1-0.4s-0.8,0.1-1,0.4
		C61,7.5,60.9,7.9,60.9,8.3z M68.6,13.9v-12c0-0.5,0.1-0.8,0.4-1.1s0.7-0.4,1.1-0.4s0.8,0.1,1.1,0.4c0.3,0.3,0.4,0.6,0.4,1.1v3.3
		C72.2,4.6,73,4.3,74,4.3c1.2,0,2.1,0.4,2.7,1.2c0.6,0.8,0.9,1.8,0.9,3.1v2.7c0,1.3-0.3,2.3-0.9,3.1s-1.5,1.2-2.7,1.2
		c-1.1,0-1.9-0.4-2.5-1.1v0.1c-0.3,0.6-0.7,0.9-1.4,0.9c-0.4,0-0.8-0.1-1.1-0.4C68.7,14.7,68.6,14.3,68.6,13.9z M72,12.4
		c0.3,0.3,0.6,0.4,1.1,0.4s0.8-0.1,1-0.4s0.4-0.7,0.4-1.1V8.6c0-0.5-0.1-0.9-0.4-1.1s-0.6-0.4-1-0.4S72.3,7.2,72,7.5
		c-0.3,0.3-0.4,0.7-0.4,1.1v2.7C71.6,11.7,71.8,12.1,72,12.4z M82.5,5.3l0.1,0.4c0.5-0.9,1.1-1.3,1.8-1.3c0.4,0,0.7,0.1,1,0.4
		c0.3,0.2,0.4,0.6,0.4,1c0,0.8-0.5,1.3-1.4,1.4c-1.1,0.2-1.6,0.7-1.6,1.6v5.1c0,0.5-0.1,0.8-0.4,1.1c-0.3,0.3-0.6,0.4-1.1,0.4
		s-0.8-0.1-1.1-0.4c-0.3-0.3-0.4-0.6-0.4-1.1v-8c0-0.5,0.1-0.8,0.4-1.1c0.3-0.3,0.6-0.4,1.1-0.4C81.9,4.4,82.4,4.7,82.5,5.3z
		 M93.2,14.5v-0.1c-0.6,0.8-1.4,1.1-2.5,1.1c-1.2,0-2.1-0.4-2.7-1.2s-0.9-1.8-0.9-3.1V8.6c0-1.3,0.3-2.3,0.9-3.1
		c0.5-0.8,1.4-1.2,2.6-1.2c1.1,0,1.9,0.4,2.5,1.1V5.3c0.2-0.6,0.7-0.9,1.4-0.9c0.4,0,0.8,0.1,1.1,0.4C95.9,5.1,96,5.4,96,5.9v8
		c0,0.5-0.1,0.8-0.4,1.1c-0.3,0.3-0.6,0.4-1.1,0.4C93.9,15.4,93.4,15.1,93.2,14.5z M90.4,12.4c0.2,0.3,0.6,0.4,1,0.4
		s0.8-0.1,1.1-0.4c0.3-0.3,0.4-0.7,0.4-1.1V8.6c0-0.5-0.1-0.9-0.4-1.1c-0.3-0.3-0.6-0.4-1.1-0.4s-0.8,0.1-1,0.4S90,8.2,90,8.6v2.7
		C90.1,11.7,90.2,12.1,90.4,12.4z M97.9,6.9c-0.2-0.2-0.4-0.6-0.4-0.9c0-0.4,0.1-0.7,0.4-0.9c0.2-0.2,0.5-0.4,0.9-0.4h0.7V3.1
		c0-0.5,0.1-0.8,0.4-1.1s0.6-0.4,1.1-0.4s0.8,0.1,1.1,0.4c0.3,0.3,0.4,0.6,0.4,1.1v1.5h0.7c0.4,0,0.7,0.1,0.9,0.4
		c0.2,0.2,0.4,0.6,0.4,0.9c0,0.4-0.1,0.7-0.4,0.9s-0.5,0.4-0.9,0.4h-0.7v6.7c0,0.5-0.1,0.8-0.4,1.1c-0.3,0.3-0.7,0.4-1.1,0.4
		c-0.5,0-0.8-0.1-1.1-0.4c-0.3-0.3-0.4-0.6-0.4-1.1V7.2h-0.7C98.4,7.2,98.1,7.1,97.9,6.9z M106.4,2.9c-0.3-0.3-0.5-0.7-0.5-1.2
		s0.2-0.9,0.5-1.2s0.7-0.5,1.2-0.5s0.9,0.2,1.2,0.5s0.5,0.7,0.5,1.2s-0.2,0.9-0.5,1.2s-0.7,0.5-1.2,0.5
		C107.1,3.4,106.7,3.2,106.4,2.9z M106.5,4.8c0.3-0.3,0.7-0.4,1.1-0.4c0.5,0,0.8,0.1,1.1,0.4c0.3,0.3,0.4,0.6,0.4,1.1v8
		c0,0.5-0.1,0.8-0.4,1.1c-0.3,0.3-0.7,0.4-1.1,0.4c-0.5,0-0.8-0.1-1.1-0.4c-0.3-0.3-0.4-0.6-0.4-1.1v-8
		C106.1,5.5,106.2,5.1,106.5,4.8z M114.3,5.3v0.2c0.6-0.8,1.5-1.2,2.6-1.2c1.2,0,2.1,0.4,2.6,1.1s0.9,1.7,0.9,2.9v5.5
		c0,0.5-0.1,0.8-0.4,1.1s-0.7,0.4-1.1,0.4c-0.5,0-0.8-0.1-1.1-0.4c-0.3-0.3-0.4-0.6-0.4-1.1V8.6c0-0.5-0.1-0.9-0.4-1.1
		c-0.2-0.3-0.6-0.4-1-0.4s-0.8,0.1-1.1,0.4s-0.4,0.7-0.4,1.1v5.3c0,0.5-0.1,0.8-0.4,1.1c-0.3,0.3-0.7,0.4-1.1,0.4
		c-0.5,0-0.8-0.1-1.1-0.4c-0.3-0.3-0.4-0.6-0.4-1.1v-8c0-0.5,0.1-0.8,0.4-1.1c0.3-0.3,0.6-0.4,1.1-0.4
		C113.6,4.4,114.1,4.7,114.3,5.3z M128.6,5.4L128.6,5.4c0.3-0.7,0.7-1,1.4-1c0.4,0,0.8,0.1,1.1,0.4s0.4,0.6,0.4,1.1v9.6
		c0,1.2-0.4,2.2-1.2,3c-0.8,0.7-1.9,1.1-3.3,1.1c-0.9,0-1.6-0.1-2.3-0.4c-0.7-0.3-1.2-0.7-1.6-1.1c-0.3-0.4-0.4-0.9-0.2-1.4
		s0.7-0.8,1.3-0.8c0.4,0,0.9,0.2,1.3,0.7c0.4,0.4,0.9,0.7,1.4,0.7c1,0,1.5-0.5,1.5-1.5v-1.5c-0.6,0.6-1.3,0.9-2.3,0.9
		c-1.2,0-2.1-0.4-2.7-1.2s-0.9-1.8-0.9-3.1V8.6c0-1.3,0.3-2.3,0.9-3.1s1.5-1.2,2.7-1.2C127.1,4.3,128,4.7,128.6,5.4z M125.9,12
		c0.2,0.3,0.6,0.4,1,0.4s0.8-0.1,1.1-0.4c0.3-0.3,0.4-0.7,0.4-1.1V8.6c0-0.5-0.1-0.9-0.4-1.1s-0.6-0.4-1.1-0.4c-0.4,0-0.8,0.1-1,0.4
		s-0.4,0.7-0.4,1.1v2.2C125.5,11.3,125.7,11.7,125.9,12z"/>
	<g>
		<g>
			<path class="st1" d="M17.6,56.7c-1.3,0-2.4-0.5-3.2-1.4c-0.8-0.8-1.2-1.9-1.2-3.2c0-1.2,0.4-2.3,1.2-3.2s1.9-1.4,3.2-1.4h0.2v-12
				h-0.1c-1.3,0-2.4-0.4-3.2-1.3c-0.8-0.8-1.3-2-1.3-3.3s0.4-2.4,1.3-3.3c0.8-0.9,2-1.3,3.3-1.3h5.4c1.7,0,2.7,0.7,3.3,1.3
				c0.8,0.8,1.2,2,1.2,3.2v16.7h0.4c1.3,0,2.4,0.5,3.2,1.4c0.8,0.9,1.2,1.9,1.2,3.2c0,1.2-0.4,2.3-1.2,3.2s-1.9,1.4-3.2,1.4
				C28.1,56.7,17.6,56.7,17.6,56.7z"/>
			<path class="st0" d="M23.1,28.4c0.8,0,1.4,0.2,1.8,0.7c0.5,0.5,0.7,1.1,0.7,1.8v18.7H28c0.7,0,1.3,0.2,1.7,0.7
				c0.4,0.5,0.7,1.1,0.7,1.8s-0.2,1.3-0.7,1.8c-0.4,0.5-1,0.7-1.7,0.7H17.6c-0.7,0-1.3-0.2-1.7-0.7c-0.4-0.5-0.7-1.1-0.7-1.8
				s0.2-1.4,0.7-1.8c0.4-0.5,1-0.7,1.7-0.7h2.2v-16h-2.1c-0.7,0-1.4-0.2-1.8-0.7c-0.5-0.5-0.7-1.1-0.7-1.9s0.2-1.4,0.7-1.9
				c0.5-0.5,1.1-0.7,1.8-0.7H23.1 M23.1,24.4h-5.4c-1.8,0-3.5,0.7-4.7,1.9c-1.2,1.2-1.8,2.8-1.8,4.7c0,1.8,0.6,3.5,1.9,4.7
				c0.7,0.8,1.7,1.3,2.7,1.6v8.5c-1.1,0.3-2.1,0.9-2.9,1.8c-1.1,1.2-1.7,2.8-1.7,4.5s0.6,3.3,1.7,4.5c1.2,1.3,2.9,2,4.7,2H28
				c1.8,0,3.5-0.7,4.7-2c1.1-1.2,1.7-2.8,1.7-4.5s-0.6-3.3-1.7-4.5c-0.8-0.9-1.9-1.6-3.1-1.9V30.9c0-1.8-0.6-3.4-1.8-4.6
				C27,25.4,25.5,24.4,23.1,24.4L23.1,24.4z"/>
		</g>
		<g>
			<path class="st1" d="M42.1,57.1c-3.2,0-5.8-1-7.8-2.8c-2.1-1.9-3.1-4.5-3.1-7.7v-10c0-3.2,1-5.8,2.9-7.7c1.9-1.9,4.6-2.8,8-2.8
				c3.2,0,5.8,1,7.8,2.8c2.1,1.9,3.1,4.5,3.1,7.7v10c0,3.2-1,5.8-3.1,7.7C47.9,56.1,45.3,57.1,42.1,57.1z M42.1,35.2
				c-0.6,0-0.7,0.2-0.8,0.2C41.1,35.6,41,36,41,36.6v9.8c0,0.6,0.1,1,0.3,1.2c0.1,0.1,0.2,0.3,0.8,0.3s0.7-0.2,0.8-0.3
				c0.2-0.2,0.3-0.6,0.3-1.2v-9.8c0-0.6-0.1-1-0.3-1.2C42.8,35.4,42.7,35.2,42.1,35.2z"/>
			<path class="st0" d="M42.1,28c2.7,0,4.8,0.8,6.5,2.3c1.6,1.5,2.5,3.6,2.5,6.2v10c0,2.6-0.8,4.7-2.5,6.2S44.8,55,42.1,55
				s-4.8-0.8-6.5-2.3s-2.5-3.6-2.5-6.2v-10c0-2.7,0.8-4.8,2.3-6.3C37,28.7,39.2,28,42.1,28 M42.1,49.9c1,0,1.8-0.3,2.3-0.9
				c0.5-0.6,0.8-1.5,0.8-2.5v-9.8c0-1.1-0.3-1.9-0.8-2.5s-1.3-0.9-2.3-0.9s-1.8,0.3-2.3,0.9c-0.5,0.6-0.8,1.5-0.8,2.5v9.8
				c0,1.1,0.3,1.9,0.8,2.5C40.3,49.6,41.1,49.9,42.1,49.9 M42.1,24c-4,0-7.1,1.1-9.4,3.4s-3.5,5.3-3.5,9.1v10c0,3.7,1.3,6.9,3.7,9.1
				s5.5,3.4,9.2,3.4s6.8-1.1,9.2-3.4c2.4-2.3,3.7-5.4,3.7-9.1v-10c0-3.7-1.3-6.9-3.7-9.1C48.9,25.1,45.8,24,42.1,24L42.1,24z"/>
		</g>
		<g>
			<path class="st1" d="M63.8,57.1c-3.2,0-5.8-1-7.8-2.8c-2.1-1.9-3.1-4.5-3.1-7.7v-10c0-3.2,1-5.8,2.9-7.7c1.9-1.9,4.6-2.8,8-2.8
				c3.2,0,5.8,1,7.8,2.8c2.1,1.9,3.1,4.5,3.1,7.7v10c0,3.2-1,5.8-3.1,7.7C69.6,56.1,67,57.1,63.8,57.1z M63.8,35.2
				c-0.6,0-0.7,0.2-0.8,0.2c-0.2,0.2-0.3,0.6-0.3,1.2v9.8c0,0.6,0.1,1,0.3,1.2c0.1,0.1,0.2,0.3,0.8,0.3c0.6,0,0.7-0.2,0.8-0.3
				c0.2-0.2,0.3-0.6,0.3-1.2v-9.8c0-0.6-0.1-1-0.3-1.2C64.5,35.4,64.4,35.2,63.8,35.2z"/>
			<path class="st0" d="M63.8,28c2.7,0,4.8,0.8,6.5,2.3c1.6,1.5,2.5,3.6,2.5,6.2v10c0,2.6-0.8,4.7-2.5,6.2S66.5,55,63.8,55
				s-4.8-0.8-6.5-2.3s-2.5-3.6-2.5-6.2v-10c0-2.7,0.8-4.8,2.3-6.3C58.7,28.7,60.9,28,63.8,28 M63.8,49.9c1,0,1.8-0.3,2.3-0.9
				c0.5-0.6,0.8-1.5,0.8-2.5v-9.8c0-1.1-0.3-1.9-0.8-2.5s-1.3-0.9-2.3-0.9c-1,0-1.8,0.3-2.3,0.9c-0.5,0.6-0.8,1.5-0.8,2.5v9.8
				c0,1.1,0.3,1.9,0.8,2.5C62,49.6,62.8,49.9,63.8,49.9 M63.8,24c-4,0-7.1,1.1-9.4,3.4c-2.3,2.3-3.5,5.3-3.5,9.1v10
				c0,3.7,1.3,6.9,3.7,9.1s5.5,3.4,9.2,3.4s6.8-1.1,9.2-3.4c2.4-2.3,3.7-5.4,3.7-9.1v-10c0-3.7-1.3-6.9-3.7-9.1
				C70.6,25.1,67.5,24,63.8,24L63.8,24z"/>
		</g>
		<g>
			<path class="st1" d="M76.7,60.8c-1.3,0-2.4-0.6-3-1.6c-0.4-0.6-0.9-1.8-0.5-3.4l1.3-5.5c0.6-2.3,2.2-3.6,4.5-3.6
				c1.8,0,3.3,0.8,4.1,2.3c0.8,1.5,0.7,3.1-0.2,4.7l-2.8,5C79.3,60.1,78.1,60.8,76.7,60.8z"/>
			<path class="st0" d="M79,48.7c1.1,0,1.9,0.4,2.3,1.3c0.5,0.9,0.4,1.8-0.1,2.8l-2.8,5c-0.4,0.7-0.9,1.1-1.6,1.1
				c-0.6,0-1.1-0.2-1.4-0.7s-0.4-1.1-0.2-1.8l1.3-5.5C76.8,49.4,77.6,48.7,79,48.7 M79,44.7c-3.2,0-5.6,2-6.4,5.1l-1.3,5.6
				c-0.6,2.3,0.1,4,0.8,5c1,1.6,2.8,2.4,4.7,2.4c2.1,0,4-1.1,5.1-3.1l2.8-4.9c1.3-2.2,1.3-4.6,0.2-6.7C83.6,46,81.5,44.7,79,44.7
				L79,44.7z"/>
		</g>
		<g>
			<path class="st1" d="M94,57.1c-3.2,0-5.8-1-7.8-2.8c-2.1-1.9-3.1-4.5-3.1-7.7v-10c0-3.2,1-5.8,2.9-7.7c1.9-1.9,4.6-2.8,8-2.8
				c3.2,0,5.8,1,7.8,2.8c2.1,1.9,3.1,4.5,3.1,7.7v10c0,3.2-1,5.8-3.1,7.7C99.9,56.1,97.2,57.1,94,57.1z M94,35.2
				c-0.6,0-0.7,0.2-0.8,0.2c-0.2,0.2-0.3,0.6-0.3,1.2v9.8c0,0.6,0.1,1,0.3,1.2c0.1,0.1,0.2,0.3,0.8,0.3c0.6,0,0.7-0.2,0.8-0.3
				c0.2-0.2,0.3-0.6,0.3-1.2v-9.8c0-0.6-0.1-1-0.3-1.2C94.8,35.4,94.6,35.2,94,35.2z"/>
			<path class="st0" d="M94,28c2.7,0,4.8,0.8,6.5,2.3c1.6,1.5,2.5,3.6,2.5,6.2v10c0,2.6-0.8,4.7-2.5,6.2C98.9,54.2,96.7,55,94,55
				s-4.8-0.8-6.5-2.3c-1.6-1.5-2.5-3.6-2.5-6.2v-10c0-2.7,0.8-4.8,2.3-6.3C89,28.7,91.2,28,94,28 M94,49.9c1,0,1.8-0.3,2.3-0.9
				c0.5-0.6,0.8-1.5,0.8-2.5v-9.8c0-1.1-0.3-1.9-0.8-2.5S95,33.3,94,33.3s-1.8,0.3-2.3,0.9c-0.5,0.6-0.8,1.5-0.8,2.5v9.8
				c0,1.1,0.3,1.9,0.8,2.5C92.3,49.6,93.1,49.9,94,49.9 M94,24c-4,0-7.1,1.1-9.4,3.4s-3.5,5.3-3.5,9.1v10c0,3.7,1.3,6.9,3.7,9.1
				c2.4,2.2,5.5,3.4,9.2,3.4s6.8-1.1,9.2-3.4c2.4-2.3,3.7-5.4,3.7-9.1v-10c0-3.7-1.3-6.9-3.7-9.1C100.8,25.1,97.7,24,94,24L94,24z"
				/>
		</g>
		<g>
			<path class="st1" d="M115.8,57.1c-3.2,0-5.8-1-7.8-2.8c-2.1-1.9-3.1-4.5-3.1-7.7v-10c0-3.2,1-5.8,2.9-7.7c1.9-1.9,4.6-2.8,8-2.8
				c3.2,0,5.8,1,7.8,2.8c2.1,1.9,3.1,4.5,3.1,7.7v10c0,3.2-1,5.8-3.1,7.7C121.6,56.1,119,57.1,115.8,57.1z M115.8,35.2
				c-0.6,0-0.7,0.2-0.8,0.2c-0.2,0.2-0.3,0.6-0.3,1.2v9.8c0,0.6,0.1,1,0.3,1.2c0.1,0.1,0.2,0.3,0.8,0.3c0.6,0,0.7-0.2,0.8-0.3
				c0.2-0.2,0.3-0.6,0.3-1.2v-9.8c0-0.6-0.1-1-0.3-1.2C116.5,35.4,116.4,35.2,115.8,35.2z"/>
			<path class="st0" d="M115.8,28c2.7,0,4.8,0.8,6.5,2.3c1.6,1.5,2.5,3.6,2.5,6.2v10c0,2.6-0.8,4.7-2.5,6.2s-3.8,2.3-6.5,2.3
				s-4.8-0.8-6.5-2.3c-1.6-1.5-2.5-3.6-2.5-6.2v-10c0-2.7,0.8-4.8,2.3-6.3C110.7,28.7,112.9,28,115.8,28 M115.8,49.9
				c1,0,1.8-0.3,2.3-0.9c0.5-0.6,0.8-1.5,0.8-2.5v-9.8c0-1.1-0.3-1.9-0.8-2.5s-1.3-0.9-2.3-0.9s-1.8,0.3-2.3,0.9
				c-0.5,0.6-0.8,1.5-0.8,2.5v9.8c0,1.1,0.3,1.9,0.8,2.5C114,49.6,114.8,49.9,115.8,49.9 M115.8,24c-4,0-7.1,1.1-9.4,3.4
				s-3.5,5.3-3.5,9.1v10c0,3.7,1.3,6.9,3.7,9.1c2.4,2.2,5.5,3.4,9.2,3.4s6.8-1.1,9.2-3.4c2.4-2.3,3.7-5.4,3.7-9.1v-10
				c0-3.7-1.3-6.9-3.7-9.1C122.6,25.1,119.5,24,115.8,24L115.8,24z"/>
		</g>
		<g>
			<path class="st1" d="M137.5,57.1c-3.2,0-5.8-1-7.8-2.8c-2.1-1.9-3.1-4.5-3.1-7.7v-10c0-3.2,1-5.8,2.9-7.7c1.9-1.9,4.6-2.8,8-2.8
				c3.2,0,5.8,1,7.8,2.8c2.1,1.9,3.1,4.5,3.1,7.7v10c0,3.2-1,5.8-3.1,7.7C143.3,56.1,140.7,57.1,137.5,57.1z M137.5,35.2
				c-0.6,0-0.7,0.2-0.8,0.2c-0.2,0.2-0.3,0.6-0.3,1.2v9.8c0,0.6,0.1,1,0.3,1.2c0.1,0.1,0.2,0.3,0.8,0.3s0.7-0.2,0.8-0.3
				c0.2-0.2,0.3-0.6,0.3-1.2v-9.8c0-0.6-0.1-1-0.3-1.2C138.2,35.4,138.1,35.2,137.5,35.2z"/>
			<path class="st0" d="M137.5,28c2.7,0,4.8,0.8,6.5,2.3c1.6,1.5,2.5,3.6,2.5,6.2v10c0,2.6-0.8,4.7-2.5,6.2s-3.8,2.3-6.5,2.3
				s-4.8-0.8-6.5-2.3s-2.5-3.6-2.5-6.2v-10c0-2.7,0.8-4.8,2.3-6.3C132.4,28.7,134.6,28,137.5,28 M137.5,49.9c1,0,1.8-0.3,2.3-0.9
				s0.8-1.5,0.8-2.5v-9.8c0-1.1-0.3-1.9-0.8-2.5s-1.3-0.9-2.3-0.9s-1.8,0.3-2.3,0.9c-0.5,0.6-0.8,1.5-0.8,2.5v9.8
				c0,1.1,0.3,1.9,0.8,2.5C135.7,49.6,136.5,49.9,137.5,49.9 M137.5,24c-4,0-7.1,1.1-9.4,3.4c-2.3,2.3-3.5,5.3-3.5,9.1v10
				c0,3.7,1.3,6.9,3.7,9.1s5.5,3.4,9.2,3.4s6.8-1.1,9.2-3.4c2.4-2.3,3.7-5.4,3.7-9.1v-10c0-3.7-1.3-6.9-3.7-9.1
				C144.3,25.1,141.2,24,137.5,24L137.5,24z"/>
		</g>
		<g>
			<g>
				<path class="st1" d="M162.1,50.3c-0.8,0-1.5-0.3-2-0.8c-0.6-0.5-0.9-1.3-0.9-2.1v-3.1h-3.7c-0.8,0-1.5-0.3-2-0.8
					c-0.5-0.5-0.7-1.2-0.7-1.9c0-0.8,0.2-1.5,0.7-2c0.5-0.6,1.2-0.9,2-0.9h3.7v-3.1c0-0.8,0.3-1.6,0.9-2.1c0.5-0.5,1.3-0.8,2-0.8
					s1.5,0.3,2,0.8c0.6,0.5,0.9,1.3,0.9,2.1v3.1h3.7c0.8,0,1.5,0.3,2,0.9c0.5,0.5,0.7,1.2,0.7,2c0,0.8-0.3,1.4-0.8,1.9
					c-0.5,0.5-1.2,0.8-2,0.8H165v3.1c0,0.8-0.3,1.5-0.8,2C163.8,49.9,163.1,50.3,162.1,50.3z"/>
				<path class="st2" d="M162.1,34.2c0.4,0,0.7,0.1,1,0.4c0.3,0.3,0.4,0.6,0.4,1v4.6h5.2c0.4,0,0.7,0.1,0.9,0.4
					c0.2,0.3,0.3,0.6,0.3,1c0,0.4-0.1,0.7-0.3,0.9c-0.2,0.2-0.5,0.4-0.9,0.4h-5.2v4.6c0,0.4-0.1,0.7-0.4,1c-0.3,0.3-0.6,0.4-1,0.4
					c-0.4,0-0.7-0.1-1-0.4c-0.3-0.3-0.4-0.6-0.4-1v-4.6h-5.2c-0.4,0-0.7-0.1-0.9-0.4c-0.2-0.2-0.3-0.5-0.3-0.9c0-0.4,0.1-0.7,0.3-1
					c0.2-0.3,0.5-0.4,0.9-0.4h5.2v-4.6c0-0.4,0.1-0.8,0.4-1C161.3,34.3,161.7,34.2,162.1,34.2 M162.1,31.2c-1.2,0-2.2,0.4-3.1,1.2
					c-0.9,0.8-1.3,2-1.3,3.2v1.6h-2.2c-1.2,0-2.3,0.5-3.1,1.4c-0.7,0.8-1.1,1.8-1.1,3c0,1.1,0.4,2.2,1.2,3c0.8,0.8,1.9,1.3,3.1,1.3
					h2.2v1.6c0,1.2,0.5,2.3,1.3,3.2c0.8,0.8,1.9,1.2,3.1,1.2c1.2,0,2.3-0.4,3.1-1.3c0.8-0.8,1.3-1.9,1.3-3.1v-1.6h2.2
					c1.2,0,2.3-0.5,3.1-1.3c0.8-0.8,1.2-1.8,1.2-3c0-1.1-0.4-2.2-1.1-3c-0.8-0.9-1.9-1.4-3.1-1.4h-2.2v-1.6c0-1.2-0.5-2.4-1.3-3.2
					C164.3,31.6,163.3,31.2,162.1,31.2L162.1,31.2z"/>
			</g>
		</g>
	</g>
	<path class="st0" d="M0,68.1c0-0.4,0.1-0.7,0.3-0.9c0.2-0.2,0.5-0.3,0.9-0.3h7.5c0.4,0,0.7,0.1,0.9,0.4s0.3,0.5,0.3,0.9
		s-0.1,0.6-0.3,0.9s-0.5,0.2-0.9,0.2H6.3v10.8c0,0.4-0.1,0.7-0.4,1c-0.2,0.2-0.6,0.4-1,0.4s-0.7-0.1-1-0.4c-0.2-0.2-0.4-0.6-0.4-1
		V69.3H1.2c-0.4,0-0.6-0.1-0.9-0.4C0.1,68.7,0,68.4,0,68.1z M12.6,71.2l0.1,0.5c0.6-0.9,1.3-1.4,2.1-1.4c0.3,0,0.6,0.1,0.8,0.3
		c0.2,0.2,0.3,0.5,0.3,0.8c0,0.7-0.4,1.1-1.2,1.2c-1.3,0.2-1.9,0.8-1.9,1.9v5.4c0,0.4-0.1,0.7-0.4,0.9c-0.2,0.2-0.6,0.4-1,0.4
		s-0.7-0.1-1-0.4c-0.3-0.2-0.4-0.6-0.4-0.9v-8.4c0-0.4,0.1-0.7,0.3-0.9c0.2-0.2,0.5-0.4,0.9-0.4C12.1,70.4,12.5,70.7,12.6,71.2z
		 M23.9,80.6l-0.1-0.3c-0.6,0.8-1.5,1.3-2.7,1.3c-1.1,0-2-0.3-2.6-1s-0.9-1.6-0.9-2.8v-6c0-0.4,0.1-0.7,0.4-1c0.2-0.2,0.6-0.4,1-0.4
		s0.7,0.1,1,0.4c0.2,0.2,0.4,0.6,0.4,1v5.8c0,0.5,0.1,0.9,0.4,1.2c0.3,0.3,0.7,0.5,1.2,0.5s1-0.2,1.3-0.5s0.5-0.8,0.5-1.4v-5.6
		c0-0.4,0.1-0.7,0.4-1s0.6-0.4,0.9-0.4c0.4,0,0.7,0.1,1,0.4s0.4,0.6,0.4,1v8.4c0,0.4-0.1,0.7-0.3,0.9c-0.2,0.2-0.5,0.4-0.9,0.4
		c-0.3,0-0.5-0.1-0.7-0.2C24.1,81,23.9,80.8,23.9,80.6z M33,77.2l-1.9-0.6c-1.7-0.5-2.6-1.6-2.6-3.1c0-0.9,0.4-1.6,1.1-2.3
		c0.7-0.6,1.7-0.9,2.9-0.9c1.9,0,3.1,0.6,3.8,1.8c0.2,0.4,0.2,0.8,0,1.2c-0.2,0.4-0.5,0.6-1,0.6s-0.9-0.2-1.2-0.7
		c-0.4-0.6-1-0.9-1.6-0.9c-0.4,0-0.8,0.1-1.1,0.3C31.1,72.8,31,73,31,73.4c0,0.5,0.4,0.8,1.1,1l1.5,0.5c1,0.3,1.7,0.7,2.2,1.2
		s0.8,1.2,0.8,2.1c0,1-0.4,1.9-1.1,2.5c-0.8,0.6-1.8,0.9-3,0.9c-1,0-1.9-0.2-2.6-0.6s-1.2-1-1.4-1.7c-0.1-0.4-0.1-0.7,0.1-1.1
		c0.2-0.3,0.5-0.5,0.9-0.5s0.8,0.2,1.1,0.7c0.4,0.7,1.1,1.1,1.9,1.1c1.1,0,1.7-0.4,1.7-1.2C34.1,77.8,33.7,77.4,33,77.2z M37.9,71.8
		c0-0.3,0.1-0.6,0.3-0.8c0.2-0.2,0.5-0.3,0.8-0.3h0.9v-1.8c0-0.4,0.1-0.7,0.4-0.9c0.2-0.2,0.6-0.4,0.9-0.4s0.7,0.1,1,0.4
		c0.3,0.2,0.4,0.6,0.4,0.9v1.8h1c0.3,0,0.6,0.1,0.8,0.3c0.2,0.2,0.3,0.5,0.3,0.8s-0.1,0.6-0.3,0.8c-0.2,0.2-0.5,0.3-0.8,0.3h-1v7.3
		c0,0.4-0.1,0.7-0.4,0.9c-0.3,0.2-0.6,0.4-1,0.4s-0.7-0.1-0.9-0.4c-0.2-0.2-0.4-0.6-0.4-0.9v-7.3H39c-0.3,0-0.6-0.1-0.8-0.3
		S37.9,72.1,37.9,71.8z M48.8,71.2l0.1,0.3c0.6-0.8,1.5-1.3,2.6-1.3c1.2,0,2.1,0.4,2.7,1.1c0.6,0.8,0.9,1.8,0.9,3v3
		c0,1.3-0.3,2.3-0.9,3c-0.6,0.8-1.5,1.1-2.7,1.1c-1,0-1.8-0.3-2.4-1v3.7c0,0.4-0.1,0.7-0.4,0.9c-0.2,0.2-0.6,0.4-1,0.4
		s-0.7-0.1-1-0.4c-0.3-0.2-0.4-0.6-0.4-0.9V71.7c0-0.4,0.1-0.7,0.3-0.9c0.2-0.2,0.5-0.4,0.9-0.4C48.3,70.4,48.7,70.7,48.8,71.2z
		 M50.8,72.6c-0.5,0-1,0.2-1.3,0.5S49,73.9,49,74.5v2.8c0,0.5,0.2,1,0.5,1.4s0.8,0.5,1.3,0.5s0.9-0.2,1.2-0.5s0.4-0.8,0.4-1.3v-2.9
		c0-0.6-0.1-1-0.4-1.4C51.8,72.8,51.4,72.6,50.8,72.6z M57.6,68.7c-0.3-0.3-0.4-0.6-0.4-1.1s0.1-0.8,0.4-1.1s0.7-0.4,1.1-0.4
		c0.4,0,0.8,0.1,1.1,0.4s0.4,0.6,0.4,1.1s-0.1,0.8-0.4,1.1c-0.3,0.3-0.6,0.4-1.1,0.4C58.3,69.1,57.9,69,57.6,68.7z M58.7,70.4
		c0.4,0,0.7,0.1,0.9,0.4s0.4,0.6,0.4,1v8.4c0,0.4-0.1,0.7-0.4,0.9c-0.2,0.2-0.6,0.4-0.9,0.4c-0.4,0-0.7-0.1-1-0.4
		c-0.2-0.2-0.4-0.6-0.4-0.9v-8.4c0-0.4,0.1-0.7,0.4-1S58.3,70.4,58.7,70.4z M62.9,66.7c0.2-0.2,0.6-0.4,0.9-0.4
		c0.4,0,0.7,0.1,0.9,0.4s0.4,0.6,0.4,0.9v12.5c0,0.4-0.1,0.7-0.4,0.9c-0.2,0.2-0.6,0.4-0.9,0.4c-0.4,0-0.7-0.1-0.9-0.4
		c-0.2-0.2-0.4-0.6-0.4-0.9V67.6C62.5,67.2,62.6,66.9,62.9,66.7z M76.2,74.6v2.6c0,1.3-0.4,2.4-1.2,3.2c-0.8,0.8-1.9,1.2-3.2,1.2
		c-1.3,0-2.4-0.4-3.2-1.2c-0.8-0.8-1.2-1.8-1.2-3.2v-2.6c0-1.3,0.4-2.4,1.2-3.2c0.8-0.8,1.9-1.2,3.2-1.2c1.3,0,2.4,0.4,3.2,1.2
		C75.8,72.3,76.2,73.3,76.2,74.6z M70.1,74.5v2.9c0,0.6,0.2,1,0.5,1.4c0.2,0.3,0.6,0.5,1.2,0.5c0.5,0,1-0.2,1.3-0.5
		c0.3-0.4,0.5-0.8,0.5-1.4v-2.9c0-0.6-0.2-1-0.5-1.4s-0.7-0.5-1.3-0.5c-0.5,0-1,0.2-1.3,0.5C70.2,73.4,70.1,73.9,70.1,74.5z
		 M77.5,71.8c0-0.3,0.1-0.6,0.3-0.8c0.2-0.2,0.5-0.3,0.8-0.3h0.9v-1.8c0-0.4,0.1-0.7,0.4-0.9c0.2-0.2,0.6-0.4,0.9-0.4
		c0.4,0,0.7,0.1,1,0.4s0.4,0.6,0.4,0.9v1.8h1c0.3,0,0.6,0.1,0.8,0.3c0.2,0.2,0.3,0.5,0.3,0.8s-0.1,0.6-0.3,0.8
		c-0.2,0.2-0.5,0.3-0.8,0.3h-1v7.3c0,0.4-0.1,0.7-0.4,0.9c-0.3,0.2-0.6,0.4-1,0.4s-0.7-0.1-0.9-0.4c-0.2-0.2-0.4-0.6-0.4-0.9v-7.3
		h-0.9c-0.3,0-0.6-0.1-0.8-0.3S77.5,72.1,77.5,71.8z M98.2,75.4l1.9,4.2c0.1,0.1,0.1,0.3,0.1,0.4c0,0.4-0.1,0.7-0.4,1
		s-0.6,0.4-1,0.4c-0.6,0-1-0.3-1.3-0.9l-2-4.5h-2.3v4.1c0,0.4-0.1,0.7-0.4,1c-0.3,0.2-0.6,0.4-1,0.4s-0.7-0.1-1-0.4
		c-0.2-0.2-0.4-0.6-0.4-1V68.2c0-0.4,0.1-0.7,0.4-1c0.2-0.2,0.6-0.4,1-0.4h3.7c1.5,0,2.6,0.4,3.6,1.2s1.4,1.9,1.4,3.2
		c0,0.9-0.2,1.7-0.6,2.4S98.9,75,98.2,75.4z M95.2,69.2h-2v4.4h2c0.8,0,1.4-0.2,1.8-0.6s0.6-0.9,0.6-1.6s-0.2-1.2-0.6-1.6
		C96.6,69.4,96,69.2,95.2,69.2z M109.6,77.5c0.4,0,0.7,0.2,0.9,0.5c0.2,0.3,0.3,0.7,0.1,1.1c-0.2,0.8-0.7,1.4-1.4,1.8
		c-0.7,0.4-1.6,0.7-2.5,0.7c-1.3,0-2.4-0.4-3.2-1.2s-1.2-1.8-1.2-3.1v-2.6c0-1.3,0.4-2.4,1.2-3.2c0.8-0.8,1.9-1.2,3.2-1.2
		c1.2,0,2.3,0.4,3,1.2c0.8,0.8,1.2,1.8,1.2,3.1v0.5c0,0.4-0.1,0.7-0.4,1c-0.2,0.2-0.5,0.4-0.9,0.4h-4.7v1.1c0,0.6,0.2,1,0.5,1.4
		c0.3,0.3,0.8,0.5,1.4,0.5c0.8,0,1.4-0.4,1.8-1.2C108.8,77.7,109.1,77.5,109.6,77.5z M104.9,74.3v0.3h3.5v-0.3c0-0.6-0.2-1-0.5-1.4
		s-0.7-0.5-1.2-0.5s-1,0.2-1.3,0.5C105,73.3,104.9,73.8,104.9,74.3z M113.6,70.4c0.3,0,0.6,0.1,0.8,0.3c0.2,0.2,0.4,0.4,0.5,0.7
		l2,6.8l2.1-6.7c0.2-0.7,0.6-1,1.2-1c0.4,0,0.8,0.2,1,0.5s0.3,0.7,0.2,1.1l-2.8,8.1c-0.3,0.9-0.9,1.3-1.8,1.3s-1.5-0.4-1.8-1.3
		l-2.7-7.9c-0.2-0.5-0.1-0.9,0.1-1.3C112.8,70.6,113.1,70.4,113.6,70.4z M123.5,68.7c-0.3-0.3-0.4-0.6-0.4-1.1s0.1-0.8,0.4-1.1
		c0.3-0.3,0.7-0.4,1.1-0.4s0.8,0.1,1.1,0.4c0.3,0.3,0.4,0.6,0.4,1.1s-0.1,0.8-0.4,1.1c-0.3,0.3-0.6,0.4-1.1,0.4
		C124.2,69.1,123.8,69,123.5,68.7z M124.6,70.4c0.4,0,0.7,0.1,0.9,0.4s0.4,0.6,0.4,1v8.4c0,0.4-0.1,0.7-0.4,0.9
		c-0.2,0.2-0.6,0.4-0.9,0.4c-0.4,0-0.7-0.1-1-0.4c-0.2-0.2-0.4-0.6-0.4-0.9v-8.4c0-0.4,0.1-0.7,0.4-1S124.2,70.4,124.6,70.4z
		 M135.4,77.5c0.4,0,0.7,0.2,0.9,0.5s0.3,0.7,0.1,1.1c-0.2,0.8-0.7,1.4-1.4,1.8s-1.6,0.7-2.5,0.7c-1.3,0-2.4-0.4-3.2-1.2
		s-1.2-1.8-1.2-3.1v-2.6c0-1.3,0.4-2.4,1.2-3.2c0.8-0.8,1.9-1.2,3.2-1.2c1.2,0,2.3,0.4,3,1.2c0.8,0.8,1.2,1.8,1.2,3.1v0.5
		c0,0.4-0.1,0.7-0.4,1c-0.2,0.2-0.5,0.4-0.9,0.4h-4.7v1.1c0,0.6,0.2,1,0.5,1.4c0.3,0.3,0.8,0.5,1.4,0.5c0.8,0,1.4-0.4,1.8-1.2
		C134.6,77.7,134.9,77.5,135.4,77.5z M130.7,74.3v0.3h3.5v-0.3c0-0.6-0.2-1-0.5-1.4s-0.7-0.5-1.2-0.5s-1,0.2-1.3,0.5
		C130.8,73.3,130.7,73.8,130.7,74.3z M151.8,72.2l-2.4,8c-0.1,0.4-0.3,0.6-0.6,0.8c-0.3,0.2-0.6,0.3-0.9,0.3c-0.4,0-0.7-0.1-0.9-0.3
		c-0.3-0.2-0.4-0.5-0.5-0.8l-1.4-5.5l-1.4,5.5c-0.1,0.4-0.3,0.6-0.5,0.8c-0.3,0.2-0.6,0.3-0.9,0.3c-0.4,0-0.7-0.1-0.9-0.3
		c-0.3-0.2-0.5-0.5-0.6-0.8l-2.4-8.1c0-0.1,0-0.2,0-0.4c0-0.4,0.1-0.7,0.4-0.9c0.2-0.3,0.6-0.4,0.9-0.4c0.4,0,0.6,0.1,0.9,0.3
		s0.4,0.5,0.5,0.8l1.5,6.1l1.5-6.2c0.1-0.3,0.2-0.6,0.5-0.8s0.5-0.3,0.8-0.3s0.6,0.1,0.8,0.3c0.2,0.2,0.4,0.5,0.5,0.8l1.5,6.2
		l1.5-6.2c0.1-0.3,0.2-0.6,0.4-0.7c0.2-0.2,0.5-0.3,0.8-0.3s0.6,0.1,0.8,0.3s0.4,0.4,0.4,0.7C151.9,71.6,151.9,71.9,151.8,72.2z
		 M158,77.2l-1.9-0.6c-1.7-0.5-2.6-1.6-2.6-3.1c0-0.9,0.4-1.6,1.1-2.3c0.7-0.6,1.7-0.9,2.9-0.9c1.9,0,3.1,0.6,3.8,1.8
		c0.2,0.4,0.2,0.8,0,1.2c-0.2,0.4-0.5,0.6-1,0.6s-0.9-0.2-1.2-0.7c-0.4-0.6-1-0.9-1.6-0.9c-0.4,0-0.8,0.1-1.1,0.3
		c-0.3,0.2-0.4,0.4-0.4,0.8c0,0.5,0.4,0.8,1.1,1l1.5,0.5c1,0.3,1.7,0.7,2.2,1.2s0.8,1.2,0.8,2.1c0,1-0.4,1.9-1.1,2.5
		c-0.8,0.6-1.8,0.9-3,0.9c-1,0-1.9-0.2-2.6-0.6c-0.7-0.4-1.2-1-1.4-1.7c-0.1-0.4-0.1-0.7,0.1-1.1c0.2-0.3,0.5-0.5,0.9-0.5
		s0.8,0.2,1.1,0.7c0.4,0.7,1.1,1.1,1.9,1.1c1.1,0,1.7-0.4,1.7-1.2C159.1,77.8,158.7,77.4,158,77.2z"/>
</g>
</svg>
