<?xml version="1.0" encoding="UTF-8"?>
<svg width="287px" height="35px" viewBox="0 0 287 35" version="1.1" xmlns="http://www.w3.org/2000/svg" xmlns:xlink="http://www.w3.org/1999/xlink">
    <!-- Generator: Sketch 41.2 (35397) - http://www.bohemiancoding.com/sketch -->
    <title>Artboard Copy</title>
    <desc>Created with Sketch.</desc>
    <defs></defs>
    <g id="Page-1" stroke="none" stroke-width="1" fill="none" fill-rule="evenodd">
        <g id="Artboard-Copy" fill="#6F2C91">
            <path d="M21.124,13.743 C21.124,20.009698 18.9776881,25.1483133 14.685,29.159 C11.614318,32.0103476 8.32435088,33.7806632 4.815,34.47 L3.358,30.663 C8.90402773,29.0336585 12.6639901,25.7280249 14.638,20.746 C13.3219934,21.1846689 12.0530061,21.404 10.831,21.404 C7.85431845,21.404 5.4260094,20.6520075 3.546,19.148 C1.41532268,17.3933246 0.35,14.8553499 0.35,11.534 C0.35,8.61998543 1.27432409,6.19950963 3.123,4.2725 C4.97167591,2.34549037 7.50965053,1.382 10.737,1.382 C14.2150174,1.382 16.8626576,2.57265476 18.68,4.954 C20.3093415,7.11601081 21.124,10.0456482 21.124,13.743 L21.124,13.743 Z M15.766,13.414 C15.766,7.7739718 14.0113509,4.954 10.502,4.954 C8.87265852,4.954 7.63500423,5.64332644 6.789,7.022 C6.06832973,8.21267262 5.708,9.7479906 5.708,11.628 C5.708,16.0460221 7.77597932,18.255 11.912,18.255 C13.0713391,18.255 14.2306609,18.0200023 15.39,17.55 C15.6406679,16.3906609 15.766,15.012008 15.766,13.414 L15.766,13.414 Z M42.193,24.412 C42.193,27.420015 41.1120108,29.8483241 38.95,31.697 C36.7879891,33.5456759 34.0150169,34.47 30.631,34.47 C26.8396477,34.47 23.8786773,33.8746726 21.748,32.684 L23.299,28.83 C24.9910084,29.7386712 27.0903208,30.193 29.597,30.193 C31.5710098,30.193 33.1376608,29.6838384 34.297,28.6655 C35.4563391,27.6471616 36.036,26.2293424 36.036,24.412 C36.036,20.2446458 33.1690286,18.2393326 27.435,18.396 L27.435,15.294 C29.8163452,15.0746656 31.6884931,14.4480052 33.0515,13.414 C34.4145068,12.3799948 35.096,11.064008 35.096,9.466 C35.096,6.67731939 33.4353499,5.283 30.114,5.283 C27.7013212,5.283 25.6803414,5.70599577 24.051,6.552 L22.594,2.98 C24.8500112,1.78932738 27.6543165,1.194 31.007,1.194 C33.9210145,1.194 36.2944908,1.87549319 38.1275,3.2385 C39.9605091,4.60150682 40.877,6.45798825 40.877,8.808 C40.877,10.5940089 40.20334,12.1606599 38.856,13.508 C37.8846618,14.5106717 36.694007,15.2783307 35.284,15.811 L35.331,15.905 C39.9056895,17.315007 42.193,20.1506454 42.193,24.412 L42.193,24.412 Z M79.8999999,23.378 C79.8999999,30.7727036 77.6440225,34.47 73.1319999,34.47 C68.6513108,34.47 66.4109999,30.7727036 66.4109999,23.378 C66.4109999,15.9832964 68.6513108,12.286 73.1319999,12.286 C77.6440225,12.286 79.8999999,15.9832964 79.8999999,23.378 L79.8999999,23.378 Z M69.2779999,2.04 L58.2799999,34.423 L55.4129999,33.671 L66.4109999,1.288 L69.2779999,2.04 Z M58.3739999,12.286 C58.3739999,19.6493701 56.1180225,23.331 51.6059999,23.331 C47.1253108,23.331 44.8849999,19.6493701 44.8849999,12.286 C44.8849999,4.89129636 47.1253108,1.194 51.6059999,1.194 C56.1180225,1.194 58.3739999,4.89129636 58.3739999,12.286 L58.3739999,12.286 Z M76.1399999,23.237 C76.1399999,17.5969718 75.1373433,14.777 73.1319999,14.777 C71.15799,14.777 70.1709999,17.5969718 70.1709999,23.237 C70.1709999,28.8456947 71.15799,31.65 73.1319999,31.65 C75.1373433,31.65 76.1399999,28.8456947 76.1399999,23.237 L76.1399999,23.237 Z M54.6139999,12.145 C54.6139999,6.47363831 53.6113433,3.638 51.6059999,3.638 C49.63199,3.638 48.6449999,6.47363831 48.6449999,12.145 C48.6449999,17.7223612 49.63199,20.511 51.6059999,20.511 C53.6113433,20.511 54.6139999,17.7223612 54.6139999,12.145 L54.6139999,12.145 Z" id="93%"></path>
            <path d="M93.902,9.234 C93.902,10.4006725 93.6453359,11.3293299 93.132,12.02 C92.5719972,12.7666704 91.7833384,13.14 90.766,13.14 C89.7486616,13.14 88.9600028,12.7666704 88.4,12.02 C87.8866641,11.3293299 87.63,10.4006725 87.63,9.234 C87.63,8.05799412 87.8866641,7.12467012 88.4,6.434 C88.9600028,5.6873296 89.7486616,5.314 90.766,5.314 C91.7926718,5.314 92.5813306,5.6873296 93.132,6.434 C93.6453359,7.12467012 93.902,8.05799412 93.902,9.234 Z M92.208,9.22 C92.208,7.33465724 91.7273381,6.392 90.766,6.392 C89.8046619,6.392 89.324,7.33465724 89.324,9.22 C89.324,11.0586759 89.8046619,11.978 90.766,11.978 C91.7273381,11.978 92.208,11.0586759 92.208,9.22 Z M98.318,6.546 L97.086,6.546 L97.086,13 L95.378,13 L95.378,6.546 L94.538,6.546 L94.538,5.454 L95.378,5.454 L95.378,4.544 C95.378,3.69466242 95.6393307,3.04366893 96.162,2.591 C96.6846693,2.13833107 97.4033288,1.94466634 98.318,2.01 L98.318,3.102 C97.4966626,3.12066676 97.086,3.54532918 97.086,4.376 L97.086,5.454 L98.318,5.454 L98.318,6.546 Z M108.592,9.234 C108.592,10.4006725 108.335336,11.3293299 107.822,12.02 C107.261997,12.7666704 106.473338,13.14 105.456,13.14 C104.438662,13.14 103.650003,12.7666704 103.09,12.02 C102.576664,11.3293299 102.32,10.4006725 102.32,9.234 C102.32,8.05799412 102.576664,7.12467012 103.09,6.434 C103.650003,5.6873296 104.438662,5.314 105.456,5.314 C106.482672,5.314 107.271331,5.6873296 107.822,6.434 C108.335336,7.12467012 108.592,8.05799412 108.592,9.234 Z M106.898,9.22 C106.898,7.33465724 106.417338,6.392 105.456,6.392 C104.494662,6.392 104.014,7.33465724 104.014,9.22 C104.014,11.0586759 104.494662,11.978 105.456,11.978 C106.417338,11.978 106.898,11.0586759 106.898,9.22 Z M115.556,12.552 C114.799996,12.9533353 113.834006,13.154 112.658,13.154 C110.707324,13.154 109.732,12.3046752 109.732,10.606 L109.732,5.454 L111.44,5.454 L111.44,10.704 C111.44,11.5533376 111.864662,11.978 112.714,11.978 C113.180669,11.978 113.558665,11.8940008 113.848,11.726 L113.848,5.454 L115.556,5.454 L115.556,12.552 Z M120.616,5.328 L120.28,6.574 C120.027999,6.48999958 119.766668,6.448 119.496,6.448 C119.169332,6.448 118.898668,6.50866606 118.684,6.63 L118.684,13 L116.976,13 L116.976,5.86 C117.806671,5.45866466 119.019992,5.2813331 120.616,5.328 Z M129.224,12.622 C128.841331,12.9673351 128.248671,13.14 127.446,13.14 C126.568662,13.14 125.852336,12.7900035 125.297,12.09 C124.741664,11.3899965 124.464,10.4286728 124.464,9.206 C124.464,7.9926606 124.75333,7.03133688 125.332,6.322 C125.882669,5.64999664 126.591996,5.314 127.46,5.314 C128.216004,5.314 128.799331,5.48666494 129.21,5.832 L128.846,6.798 C128.575332,6.58333226 128.239335,6.476 127.838,6.476 C126.736661,6.476 126.186,7.37665766 126.186,9.178 C126.186,10.0273376 126.328332,10.6946642 126.613,11.18 C126.897668,11.6653358 127.296664,11.908 127.81,11.908 C128.220669,11.908 128.561332,11.7960011 128.832,11.572 L129.224,12.622 Z M135.922,12.552 C135.165996,12.9533353 134.200006,13.154 133.024,13.154 C131.073324,13.154 130.098,12.3046752 130.098,10.606 L130.098,5.454 L131.806,5.454 L131.806,10.704 C131.806,11.5533376 132.230662,11.978 133.08,11.978 C133.546669,11.978 133.924665,11.8940008 134.214,11.726 L134.214,5.454 L135.922,5.454 L135.922,12.552 Z M141.654,10.83 C141.654,11.4646698 141.406669,12.0059978 140.912,12.454 C140.417331,12.9020022 139.768671,13.126 138.966,13.126 C138.107329,13.126 137.412003,12.9440018 136.88,12.58 L137.328,11.488 C137.692002,11.7773348 138.16333,11.922 138.742,11.922 C139.087335,11.922 139.367332,11.8216677 139.582,11.621 C139.796668,11.4203323 139.904,11.1660015 139.904,10.858 C139.904,10.5406651 139.820001,10.2910009 139.652,10.109 C139.483999,9.92699909 139.199335,9.76133408 138.798,9.612 C137.649994,9.17333114 137.076,8.46867152 137.076,7.498 C137.076,6.88199692 137.297664,6.3640021 137.741,5.944 C138.184335,5.5239979 138.760663,5.314 139.47,5.314 C140.235337,5.314 140.888664,5.49133156 141.43,5.846 L141.01,6.84 C140.664665,6.5599986 140.263336,6.42 139.806,6.42 C139.469998,6.42 139.206334,6.51566571 139.015,6.707 C138.823666,6.89833429 138.728,7.1339986 138.728,7.414 C138.728,7.90866914 139.10133,8.30533184 139.848,8.604 C141.052006,9.08933576 141.654,9.83132834 141.654,10.83 Z M146.056,12.93 C145.831999,13.0326672 145.542668,13.084 145.188,13.084 C144.49733,13.084 143.965335,12.8740021 143.592,12.454 C143.274665,12.0899982 143.116,11.6186696 143.116,11.04 L143.116,6.546 L142.276,6.546 L142.276,5.454 L143.116,5.454 L143.116,3.788 L144.824,3.312 L144.824,5.454 L146.056,5.454 L146.056,6.546 L144.824,6.546 L144.824,10.956 C144.824,11.6093366 145.099331,11.936 145.65,11.936 C145.762001,11.936 145.897332,11.9126669 146.056,11.866 L146.056,12.93 Z M152.936,9.234 C152.936,10.4006725 152.679336,11.3293299 152.166,12.02 C151.605997,12.7666704 150.817338,13.14 149.8,13.14 C148.782662,13.14 147.994003,12.7666704 147.434,12.02 C146.920664,11.3293299 146.664,10.4006725 146.664,9.234 C146.664,8.05799412 146.920664,7.12467012 147.434,6.434 C147.994003,5.6873296 148.782662,5.314 149.8,5.314 C150.826672,5.314 151.615331,5.6873296 152.166,6.434 C152.679336,7.12467012 152.936,8.05799412 152.936,9.234 Z M151.242,9.22 C151.242,7.33465724 150.761338,6.392 149.8,6.392 C148.838662,6.392 148.358,7.33465724 148.358,9.22 C148.358,11.0586759 148.838662,11.978 149.8,11.978 C150.761338,11.978 151.242,11.0586759 151.242,9.22 Z M164.268,13 L162.56,13 L162.56,7.638 C162.56,6.81666256 162.135338,6.406 161.286,6.406 C160.791331,6.406 160.371335,6.57866494 160.026,6.924 L160.026,13 L158.318,13 L158.318,7.596 C158.318,6.79332932 157.846671,6.392 156.904,6.392 C156.493331,6.392 156.120002,6.4619993 155.784,6.602 L155.784,13 L154.076,13 L154.076,5.86 C154.832004,5.49599818 155.774661,5.314 156.904,5.314 C157.968005,5.314 158.751997,5.58933058 159.256,6.14 C159.853336,5.58933058 160.660662,5.314 161.678,5.314 C162.518004,5.314 163.175998,5.55199762 163.652,6.028 C164.062669,6.4480021 164.268,6.97999678 164.268,7.624 L164.268,13 Z M171.652,9.178 L167.032,9.85 C167.172001,11.250007 167.857994,11.95 169.09,11.95 C169.818004,11.95 170.452664,11.8100014 170.994,11.53 L171.4,12.608 C170.755997,12.9626684 169.925338,13.14 168.908,13.14 C167.825328,13.14 166.971336,12.7993367 166.346,12.118 C165.720663,11.4366633 165.408,10.4660063 165.408,9.206 C165.408,7.98332722 165.694997,7.02900343 166.269,6.343 C166.843003,5.65699657 167.629328,5.314 168.628,5.314 C169.636005,5.314 170.401331,5.64299671 170.924,6.301 C171.446669,6.95900329 171.689333,7.9179937 171.652,9.178 Z M170.056,8.506 C170.056,7.07799286 169.561338,6.364 168.572,6.364 C168.049331,6.364 167.648001,6.5739979 167.368,6.994 C167.059998,7.45133562 166.915333,8.11399566 166.934,8.982 L170.056,8.506 Z M176.446,5.328 L176.11,6.574 C175.857999,6.48999958 175.596668,6.448 175.326,6.448 C174.999332,6.448 174.728668,6.50866606 174.514,6.63 L174.514,13 L172.806,13 L172.806,5.86 C173.636671,5.45866466 174.849992,5.2813331 176.446,5.328 Z M181.478,10.83 C181.478,11.4646698 181.230669,12.0059978 180.736,12.454 C180.241331,12.9020022 179.592671,13.126 178.79,13.126 C177.931329,13.126 177.236003,12.9440018 176.704,12.58 L177.152,11.488 C177.516002,11.7773348 177.98733,11.922 178.566,11.922 C178.911335,11.922 179.191332,11.8216677 179.406,11.621 C179.620668,11.4203323 179.728,11.1660015 179.728,10.858 C179.728,10.5406651 179.644001,10.2910009 179.476,10.109 C179.307999,9.92699909 179.023335,9.76133408 178.622,9.612 C177.473994,9.17333114 176.9,8.46867152 176.9,7.498 C176.9,6.88199692 177.121664,6.3640021 177.565,5.944 C178.008335,5.5239979 178.584663,5.314 179.294,5.314 C180.059337,5.314 180.712664,5.49133156 181.254,5.846 L180.834,6.84 C180.488665,6.5599986 180.087336,6.42 179.63,6.42 C179.293998,6.42 179.030334,6.51566571 178.839,6.707 C178.647666,6.89833429 178.552,7.1339986 178.552,7.414 C178.552,7.90866914 178.92533,8.30533184 179.672,8.604 C180.876006,9.08933576 181.478,9.83132834 181.478,10.83 Z M189.624,5.328 L189.288,6.574 C189.035999,6.48999958 188.774668,6.448 188.504,6.448 C188.177332,6.448 187.906668,6.50866606 187.692,6.63 L187.692,13 L185.984,13 L185.984,5.86 C186.814671,5.45866466 188.027992,5.2813331 189.624,5.328 Z M195.524,12.594 C194.842663,12.9580018 193.932672,13.14 192.794,13.14 C190.740656,13.14 189.714,12.3746743 189.714,10.844 C189.714,9.92932876 190.129329,9.24333562 190.96,8.786 C191.613336,8.43133156 192.60266,8.18866732 193.928,8.058 L193.928,7.652 C193.928,6.82132918 193.428672,6.406 192.43,6.406 C191.804663,6.406 191.17467,6.55999846 190.54,6.868 L190.148,5.888 C190.932004,5.50533142 191.795329,5.314 192.738,5.314 C194.595343,5.314 195.524,6.18199132 195.524,7.918 L195.524,12.594 Z M193.928,11.978 L193.928,8.87 C193.031995,8.98200056 192.397335,9.1546655 192.024,9.388 C191.557331,9.67733478 191.324,10.1439968 191.324,10.788 C191.324,11.721338 191.851328,12.188 192.906,12.188 C193.307335,12.188 193.647998,12.1180007 193.928,11.978 Z M200.22,12.93 C199.995999,13.0326672 199.706668,13.084 199.352,13.084 C198.66133,13.084 198.129335,12.8740021 197.756,12.454 C197.438665,12.0899982 197.28,11.6186696 197.28,11.04 L197.28,6.546 L196.44,6.546 L196.44,5.454 L197.28,5.454 L197.28,3.788 L198.988,3.312 L198.988,5.454 L200.22,5.454 L200.22,6.546 L198.988,6.546 L198.988,10.956 C198.988,11.6093366 199.26333,11.936 199.814,11.936 C199.926,11.936 200.061332,11.9126669 200.22,11.866 L200.22,12.93 Z M207.072,9.178 L202.452,9.85 C202.592001,11.250007 203.277994,11.95 204.51,11.95 C205.238004,11.95 205.872664,11.8100014 206.414,11.53 L206.82,12.608 C206.175997,12.9626684 205.345338,13.14 204.328,13.14 C203.245328,13.14 202.391336,12.7993367 201.766,12.118 C201.140663,11.4366633 200.828,10.4660063 200.828,9.206 C200.828,7.98332722 201.114997,7.02900343 201.689,6.343 C202.263003,5.65699657 203.049328,5.314 204.048,5.314 C205.056005,5.314 205.821331,5.64299671 206.344,6.301 C206.866669,6.95900329 207.109333,7.9179937 207.072,9.178 Z M205.476,8.506 C205.476,7.07799286 204.981338,6.364 203.992,6.364 C203.469331,6.364 203.068001,6.5739979 202.788,6.994 C202.479998,7.45133562 202.335333,8.11399566 202.354,8.982 L205.476,8.506 Z M217.626,9.234 C217.626,10.4006725 217.369336,11.3293299 216.856,12.02 C216.295997,12.7666704 215.507338,13.14 214.49,13.14 C213.472661,13.14 212.684003,12.7666704 212.124,12.02 C211.610664,11.3293299 211.354,10.4006725 211.354,9.234 C211.354,8.05799412 211.610664,7.12467012 212.124,6.434 C212.684003,5.6873296 213.472661,5.314 214.49,5.314 C215.516672,5.314 216.30533,5.6873296 216.856,6.434 C217.369336,7.12467012 217.626,8.05799412 217.626,9.234 Z M215.932,9.22 C215.932,7.33465724 215.451338,6.392 214.49,6.392 C213.528662,6.392 213.048,7.33465724 213.048,9.22 C213.048,11.0586759 213.528662,11.978 214.49,11.978 C215.451338,11.978 215.932,11.0586759 215.932,9.22 Z M224.59,12.552 C223.833996,12.9533353 222.868006,13.154 221.692,13.154 C219.741323,13.154 218.766,12.3046752 218.766,10.606 L218.766,5.454 L220.474,5.454 L220.474,10.704 C220.474,11.5533376 220.898662,11.978 221.748,11.978 C222.214669,11.978 222.592665,11.8940008 222.882,11.726 L222.882,5.454 L224.59,5.454 L224.59,12.552 Z M229.65,5.328 L229.314,6.574 C229.061999,6.48999958 228.800668,6.448 228.53,6.448 C228.203332,6.448 227.932668,6.50866606 227.718,6.63 L227.718,13 L226.01,13 L226.01,5.86 C226.840671,5.45866466 228.053992,5.2813331 229.65,5.328 Z M239.252,12.594 C238.785331,12.9580018 238.118004,13.14 237.25,13.14 C236.073994,13.14 235.150003,12.6500049 234.478,11.67 C233.861997,10.7553288 233.554,9.59334038 233.554,8.184 C233.554,6.79332638 233.866663,5.64067124 234.492,4.726 C235.173337,3.72732834 236.097327,3.228 237.264,3.228 C238.085337,3.228 238.747997,3.40999818 239.252,3.774 L238.86,4.838 C238.486665,4.61399888 238.071335,4.502 237.614,4.502 C236.848663,4.502 236.274668,4.87999622 235.892,5.636 C235.565332,6.28000322 235.402,7.12466144 235.402,8.17 C235.402,9.1966718 235.574665,10.0319968 235.92,10.676 C236.312002,11.413337 236.876663,11.782 237.614,11.782 C238.071335,11.782 238.477331,11.6700011 238.832,11.446 L239.252,12.594 Z M245.852,12.552 C245.095996,12.9533353 244.130006,13.154 242.954,13.154 C241.003323,13.154 240.028,12.3046752 240.028,10.606 L240.028,5.454 L241.736,5.454 L241.736,10.704 C241.736,11.5533376 242.160662,11.978 243.01,11.978 C243.476669,11.978 243.854665,11.8940008 244.144,11.726 L244.144,5.454 L245.852,5.454 L245.852,12.552 Z M251.584,10.83 C251.584,11.4646698 251.336669,12.0059978 250.842,12.454 C250.347331,12.9020022 249.698671,13.126 248.896,13.126 C248.037329,13.126 247.342002,12.9440018 246.81,12.58 L247.258,11.488 C247.622002,11.7773348 248.09333,11.922 248.672,11.922 C249.017335,11.922 249.297332,11.8216677 249.512,11.621 C249.726668,11.4203323 249.834,11.1660015 249.834,10.858 C249.834,10.5406651 249.750001,10.2910009 249.582,10.109 C249.413999,9.92699909 249.129335,9.76133408 248.728,9.612 C247.579994,9.17333114 247.006,8.46867152 247.006,7.498 C247.006,6.88199692 247.227664,6.3640021 247.671,5.944 C248.114335,5.5239979 248.690663,5.314 249.4,5.314 C250.165337,5.314 250.818664,5.49133156 251.36,5.846 L250.94,6.84 C250.594665,6.5599986 250.193335,6.42 249.736,6.42 C249.399998,6.42 249.136334,6.51566571 248.945,6.707 C248.753666,6.89833429 248.658,7.1339986 248.658,7.414 C248.658,7.90866914 249.031329,8.30533184 249.778,8.604 C250.982006,9.08933576 251.584,9.83132834 251.584,10.83 Z M255.986,12.93 C255.761999,13.0326672 255.472668,13.084 255.118,13.084 C254.42733,13.084 253.895335,12.8740021 253.522,12.454 C253.204665,12.0899982 253.046,11.6186696 253.046,11.04 L253.046,6.546 L252.206,6.546 L252.206,5.454 L253.046,5.454 L253.046,3.788 L254.754,3.312 L254.754,5.454 L255.986,5.454 L255.986,6.546 L254.754,6.546 L254.754,10.956 C254.754,11.6093366 255.02933,11.936 255.58,11.936 C255.692,11.936 255.827332,11.9126669 255.986,11.866 L255.986,12.93 Z M262.866,9.234 C262.866,10.4006725 262.609336,11.3293299 262.096,12.02 C261.535997,12.7666704 260.747338,13.14 259.73,13.14 C258.712661,13.14 257.924003,12.7666704 257.364,12.02 C256.850664,11.3293299 256.594,10.4006725 256.594,9.234 C256.594,8.05799412 256.850664,7.12467012 257.364,6.434 C257.924003,5.6873296 258.712661,5.314 259.73,5.314 C260.756672,5.314 261.54533,5.6873296 262.096,6.434 C262.609336,7.12467012 262.866,8.05799412 262.866,9.234 Z M261.172,9.22 C261.172,7.33465724 260.691338,6.392 259.73,6.392 C258.768662,6.392 258.288,7.33465724 258.288,9.22 C258.288,11.0586759 258.768662,11.978 259.73,11.978 C260.691338,11.978 261.172,11.0586759 261.172,9.22 Z M274.198,13 L272.49,13 L272.49,7.638 C272.49,6.81666256 272.065337,6.406 271.216,6.406 C270.721331,6.406 270.301335,6.57866494 269.956,6.924 L269.956,13 L268.248,13 L268.248,7.596 C268.248,6.79332932 267.776671,6.392 266.834,6.392 C266.423331,6.392 266.050001,6.4619993 265.714,6.602 L265.714,13 L264.006,13 L264.006,5.86 C264.762004,5.49599818 265.704661,5.314 266.834,5.314 C267.898005,5.314 268.681997,5.58933058 269.186,6.14 C269.783336,5.58933058 270.590661,5.314 271.608,5.314 C272.448004,5.314 273.105997,5.55199762 273.582,6.028 C273.992669,6.4480021 274.198,6.97999678 274.198,7.624 L274.198,13 Z M281.582,9.178 L276.962,9.85 C277.102001,11.250007 277.787994,11.95 279.02,11.95 C279.748003,11.95 280.382664,11.8100014 280.924,11.53 L281.33,12.608 C280.685997,12.9626684 279.855338,13.14 278.838,13.14 C277.755328,13.14 276.901336,12.7993367 276.276,12.118 C275.650663,11.4366633 275.338,10.4660063 275.338,9.206 C275.338,7.98332722 275.624997,7.02900343 276.199,6.343 C276.773003,5.65699657 277.559328,5.314 278.558,5.314 C279.566005,5.314 280.331331,5.64299671 280.854,6.301 C281.376669,6.95900329 281.619333,7.9179937 281.582,9.178 Z M279.986,8.506 C279.986,7.07799286 279.491338,6.364 278.502,6.364 C277.979331,6.364 277.578001,6.5739979 277.298,6.994 C276.989998,7.45133562 276.845333,8.11399566 276.864,8.982 L279.986,8.506 Z M286.376,5.328 L286.04,6.574 C285.787999,6.48999958 285.526668,6.448 285.256,6.448 C284.929332,6.448 284.658668,6.50866606 284.444,6.63 L284.444,13 L282.736,13 L282.736,5.86 C283.566671,5.45866466 284.779992,5.2813331 286.376,5.328 Z M92.684,30 L87.994,30 L87.994,20.368 L92.684,20.368 L92.684,21.558 L89.772,21.558 L89.772,24.47 L92.362,24.47 L92.362,25.646 L89.772,25.646 L89.772,28.81 L92.684,28.81 L92.684,30 Z M99.508,30 L97.632,30 L96.218,27.256 L96.19,27.256 L94.748,30 L93.012,30 L95.35,26.094 L93.25,22.454 L95.042,22.454 L96.316,24.918 L96.344,24.918 L97.674,22.454 L99.284,22.454 L97.142,25.982 L99.508,30 Z M106.388,26.136 C106.388,27.3586728 106.08467,28.3246631 105.478,29.034 C104.87133,29.7433369 104.068672,30.098 103.07,30.098 C102.575331,30.098 102.197335,30.0466672 101.936,29.944 L101.936,33.01 L100.242,33.01 L100.242,22.86 C100.923337,22.4959982 101.795995,22.314 102.86,22.314 C103.961339,22.314 104.824664,22.6499966 105.45,23.322 C106.075336,23.9940034 106.388,24.931994 106.388,26.136 Z M104.694,26.192 C104.694,24.2879905 104.068673,23.336 102.818,23.336 C102.481998,23.336 102.188001,23.3873328 101.936,23.49 L101.936,28.95 C102.132001,29.0340004 102.383998,29.076 102.692,29.076 C104.026673,29.076 104.694,28.1146763 104.694,26.192 Z M113.492,26.178 L108.872,26.85 C109.012001,28.250007 109.697994,28.95 110.93,28.95 C111.658004,28.95 112.292664,28.8100014 112.834,28.53 L113.24,29.608 C112.595997,29.9626684 111.765338,30.14 110.748,30.14 C109.665328,30.14 108.811336,29.7993367 108.186,29.118 C107.560664,28.4366633 107.248,27.4660063 107.248,26.206 C107.248,24.9833272 107.534997,24.0290034 108.109,23.343 C108.683003,22.6569966 109.469328,22.314 110.468,22.314 C111.476005,22.314 112.241331,22.6429967 112.764,23.301 C113.286669,23.9590033 113.529334,24.9179937 113.492,26.178 Z M111.896,25.506 C111.896,24.0779929 111.401338,23.364 110.412,23.364 C109.889331,23.364 109.488001,23.5739979 109.208,23.994 C108.899998,24.4513356 108.755333,25.1139957 108.774,25.982 L111.896,25.506 Z M118.286,22.328 L117.95,23.574 C117.697999,23.4899996 117.436668,23.448 117.166,23.448 C116.839332,23.448 116.568668,23.5086661 116.354,23.63 L116.354,30 L114.646,30 L114.646,22.86 C115.476671,22.4586647 116.689992,22.2813331 118.286,22.328 Z M120.854,20.312 C120.854,20.5453345 120.763001,20.7436658 120.581,20.907 C120.398999,21.0703342 120.177335,21.152 119.916,21.152 C119.654665,21.152 119.433001,21.0703342 119.251,20.907 C119.068999,20.7436658 118.978,20.5453345 118.978,20.312 C118.978,20.0786655 119.068999,19.8780008 119.251,19.71 C119.433001,19.5419992 119.654665,19.458 119.916,19.458 C120.177335,19.458 120.398999,19.5396658 120.581,19.703 C120.763001,19.8663342 120.854,20.0693321 120.854,20.312 Z M120.77,30 L119.062,30 L119.062,22.454 L120.77,22.454 L120.77,30 Z M128.21,26.178 L123.59,26.85 C123.730001,28.250007 124.415994,28.95 125.648,28.95 C126.376004,28.95 127.010664,28.8100014 127.552,28.53 L127.958,29.608 C127.313997,29.9626684 126.483338,30.14 125.466,30.14 C124.383328,30.14 123.529336,29.7993367 122.904,29.118 C122.278664,28.4366633 121.966,27.4660063 121.966,26.206 C121.966,24.9833272 122.252997,24.0290034 122.827,23.343 C123.401003,22.6569966 124.187328,22.314 125.186,22.314 C126.194005,22.314 126.959331,22.6429967 127.482,23.301 C128.004669,23.9590033 128.247333,24.9179937 128.21,26.178 Z M126.614,25.506 C126.614,24.0779929 126.119338,23.364 125.13,23.364 C124.607331,23.364 124.206001,23.5739979 123.926,23.994 C123.617998,24.4513356 123.473333,25.1139957 123.492,25.982 L126.614,25.506 Z M135.314,30 L133.606,30 L133.606,24.652 C133.606,23.8119958 133.153338,23.392 132.248,23.392 C131.818664,23.392 131.426668,23.4619993 131.072,23.602 L131.072,30 L129.364,30 L129.364,22.86 C130.13867,22.4959982 131.123327,22.314 132.318,22.314 C133.372672,22.314 134.151997,22.547331 134.656,23.014 C135.094669,23.406002 135.314,23.9426633 135.314,24.624 L135.314,30 Z M141.214,29.622 C140.831331,29.9673351 140.238671,30.14 139.436,30.14 C138.558662,30.14 137.842336,29.7900035 137.287,29.09 C136.731664,28.3899965 136.454,27.4286728 136.454,26.206 C136.454,24.9926606 136.74333,24.0313369 137.322,23.322 C137.872669,22.6499966 138.581996,22.314 139.45,22.314 C140.206004,22.314 140.789331,22.4866649 141.2,22.832 L140.836,23.798 C140.565332,23.5833323 140.229335,23.476 139.828,23.476 C138.726661,23.476 138.176,24.3766577 138.176,26.178 C138.176,27.0273376 138.318332,27.6946642 138.603,28.18 C138.887668,28.6653358 139.286664,28.908 139.8,28.908 C140.210669,28.908 140.551332,28.7960011 140.822,28.572 L141.214,29.622 Z M147.842,26.178 L143.222,26.85 C143.362001,28.250007 144.047994,28.95 145.28,28.95 C146.008004,28.95 146.642664,28.8100014 147.184,28.53 L147.59,29.608 C146.945997,29.9626684 146.115338,30.14 145.098,30.14 C144.015328,30.14 143.161336,29.7993367 142.536,29.118 C141.910663,28.4366633 141.598,27.4660063 141.598,26.206 C141.598,24.9833272 141.884997,24.0290034 142.459,23.343 C143.033003,22.6569966 143.819328,22.314 144.818,22.314 C145.826005,22.314 146.591331,22.6429967 147.114,23.301 C147.636669,23.9590033 147.879333,24.9179937 147.842,26.178 Z M146.246,25.506 C146.246,24.0779929 145.751338,23.364 144.762,23.364 C144.239331,23.364 143.838001,23.5739979 143.558,23.994 C143.249998,24.4513356 143.105333,25.1139957 143.124,25.982 L146.246,25.506 Z M157.85,29.594 C157.168663,29.9580018 156.258672,30.14 155.12,30.14 C153.066656,30.14 152.04,29.3746743 152.04,27.844 C152.04,26.9293288 152.455329,26.2433356 153.286,25.786 C153.939337,25.4313316 154.92866,25.1886673 156.254,25.058 L156.254,24.652 C156.254,23.8213292 155.754672,23.406 154.756,23.406 C154.130663,23.406 153.50067,23.5599985 152.866,23.868 L152.474,22.888 C153.258004,22.5053314 154.121329,22.314 155.064,22.314 C156.921343,22.314 157.85,23.1819913 157.85,24.918 L157.85,29.594 Z M156.254,28.978 L156.254,25.87 C155.357995,25.9820006 154.723335,26.1546655 154.35,26.388 C153.883331,26.6773348 153.65,27.1439968 153.65,27.788 C153.65,28.721338 154.177328,29.188 155.232,29.188 C155.633335,29.188 155.973999,29.1180007 156.254,28.978 Z M163.582,27.83 C163.582,28.4646698 163.334669,29.0059978 162.84,29.454 C162.345331,29.9020022 161.696671,30.126 160.894,30.126 C160.035329,30.126 159.340003,29.9440018 158.808,29.58 L159.256,28.488 C159.620002,28.7773348 160.09133,28.922 160.67,28.922 C161.015335,28.922 161.295332,28.8216677 161.51,28.621 C161.724668,28.4203323 161.832,28.1660015 161.832,27.858 C161.832,27.5406651 161.748001,27.2910009 161.58,27.109 C161.411999,26.9269991 161.127335,26.7613341 160.726,26.612 C159.577994,26.1733311 159.004,25.4686715 159.004,24.498 C159.004,23.8819969 159.225664,23.3640021 159.669,22.944 C160.112335,22.5239979 160.688663,22.314 161.398,22.314 C162.163337,22.314 162.816664,22.4913316 163.358,22.846 L162.938,23.84 C162.592665,23.5599986 162.191336,23.42 161.734,23.42 C161.397998,23.42 161.134334,23.5156657 160.943,23.707 C160.751666,23.8983343 160.656,24.1339986 160.656,24.414 C160.656,24.9086691 161.02933,25.3053318 161.776,25.604 C162.980006,26.0893358 163.582,26.8313283 163.582,27.83 Z M173.912,30.112 C173.912,31.1013383 173.636669,31.8573307 173.086,32.38 C172.53533,32.9026693 171.779338,33.164 170.818,33.164 C169.697994,33.164 168.839336,32.9866684 168.242,32.632 L168.718,31.512 C169.259336,31.8106682 169.86133,31.96 170.524,31.96 C171.681339,31.96 172.26,31.395339 172.26,30.266 L172.26,29.79 C171.933332,29.9766676 171.462003,30.07 170.846,30.07 C169.931329,30.07 169.196336,29.73867 168.641,29.076 C168.085664,28.41333 167.808,27.517339 167.808,26.388 C167.808,25.1279937 168.11133,24.1433369 168.718,23.434 C169.362003,22.6873296 170.276661,22.314 171.462,22.314 C172.535339,22.314 173.351997,22.4959982 173.912,22.86 L173.912,30.112 Z M172.26,28.838 L172.26,23.49 C172.063999,23.3779994 171.770002,23.322 171.378,23.322 C170.127327,23.322 169.502,24.3159901 169.502,26.304 C169.502,28.1520092 170.099327,29.076 171.294,29.076 C171.667335,29.076 171.989332,28.9966675 172.26,28.838 Z M178.972,22.328 L178.636,23.574 C178.383999,23.4899996 178.122668,23.448 177.852,23.448 C177.525332,23.448 177.254668,23.5086661 177.04,23.63 L177.04,30 L175.332,30 L175.332,22.86 C176.162671,22.4586647 177.375992,22.2813331 178.972,22.328 Z M185.432,26.178 L180.812,26.85 C180.952001,28.250007 181.637994,28.95 182.87,28.95 C183.598004,28.95 184.232664,28.8100014 184.774,28.53 L185.18,29.608 C184.535997,29.9626684 183.705338,30.14 182.688,30.14 C181.605328,30.14 180.751336,29.7993367 180.126,29.118 C179.500663,28.4366633 179.188,27.4660063 179.188,26.206 C179.188,24.9833272 179.474997,24.0290034 180.049,23.343 C180.623003,22.6569966 181.409328,22.314 182.408,22.314 C183.416005,22.314 184.181331,22.6429967 184.704,23.301 C185.226669,23.9590033 185.469333,24.9179937 185.432,26.178 Z M183.836,25.506 C183.836,24.0779929 183.341338,23.364 182.352,23.364 C181.829331,23.364 181.428001,23.5739979 181.148,23.994 C180.839998,24.4513356 180.695333,25.1139957 180.714,25.982 L183.836,25.506 Z M191.822,29.594 C191.140663,29.9580018 190.230672,30.14 189.092,30.14 C187.038656,30.14 186.012,29.3746743 186.012,27.844 C186.012,26.9293288 186.427329,26.2433356 187.258,25.786 C187.911336,25.4313316 188.90066,25.1886673 190.226,25.058 L190.226,24.652 C190.226,23.8213292 189.726672,23.406 188.728,23.406 C188.102663,23.406 187.47267,23.5599985 186.838,23.868 L186.446,22.888 C187.230004,22.5053314 188.093329,22.314 189.036,22.314 C190.893343,22.314 191.822,23.1819913 191.822,24.918 L191.822,29.594 Z M190.226,28.978 L190.226,25.87 C189.329995,25.9820006 188.695335,26.1546655 188.322,26.388 C187.855331,26.6773348 187.622,27.1439968 187.622,27.788 C187.622,28.721338 188.149328,29.188 189.204,29.188 C189.605335,29.188 189.945998,29.1180007 190.226,28.978 Z M196.518,29.93 C196.293999,30.0326672 196.004668,30.084 195.65,30.084 C194.95933,30.084 194.427335,29.8740021 194.054,29.454 C193.736665,29.0899982 193.578,28.6186696 193.578,28.04 L193.578,23.546 L192.738,23.546 L192.738,22.454 L193.578,22.454 L193.578,20.788 L195.286,20.312 L195.286,22.454 L196.518,22.454 L196.518,23.546 L195.286,23.546 L195.286,27.956 C195.286,28.6093366 195.56133,28.936 196.112,28.936 C196.224,28.936 196.359332,28.9126669 196.518,28.866 L196.518,29.93 Z M206.946,26.234 C206.946,27.4006725 206.689336,28.3293299 206.176,29.02 C205.615997,29.7666704 204.827338,30.14 203.81,30.14 C202.792661,30.14 202.004003,29.7666704 201.444,29.02 C200.930664,28.3293299 200.674,27.4006725 200.674,26.234 C200.674,25.0579941 200.930664,24.1246701 201.444,23.434 C202.004003,22.6873296 202.792661,22.314 203.81,22.314 C204.836672,22.314 205.62533,22.6873296 206.176,23.434 C206.689336,24.1246701 206.946,25.0579941 206.946,26.234 Z M205.252,26.22 C205.252,24.3346572 204.771338,23.392 203.81,23.392 C202.848662,23.392 202.368,24.3346572 202.368,26.22 C202.368,28.0586759 202.848662,28.978 203.81,28.978 C204.771338,28.978 205.252,28.0586759 205.252,26.22 Z M211.726,22.328 L211.39,23.574 C211.137999,23.4899996 210.876668,23.448 210.606,23.448 C210.279332,23.448 210.008668,23.5086661 209.794,23.63 L209.794,30 L208.086,30 L208.086,22.86 C208.916671,22.4586647 210.129992,22.2813331 211.726,22.328 Z M221.818,26.178 L217.198,26.85 C217.338001,28.250007 218.023994,28.95 219.256,28.95 C219.984004,28.95 220.618664,28.8100014 221.16,28.53 L221.566,29.608 C220.921997,29.9626684 220.091338,30.14 219.074,30.14 C217.991328,30.14 217.137336,29.7993367 216.512,29.118 C215.886663,28.4366633 215.574,27.4660063 215.574,26.206 C215.574,24.9833272 215.860997,24.0290034 216.435,23.343 C217.009003,22.6569966 217.795328,22.314 218.794,22.314 C219.802005,22.314 220.567331,22.6429967 221.09,23.301 C221.612669,23.9590033 221.855333,24.9179937 221.818,26.178 Z M220.222,25.506 C220.222,24.0779929 219.727338,23.364 218.738,23.364 C218.215331,23.364 217.814001,23.5739979 217.534,23.994 C217.225998,24.4513356 217.081333,25.1139957 217.1,25.982 L220.222,25.506 Z M228.544,30 L226.668,30 L225.254,27.256 L225.226,27.256 L223.784,30 L222.048,30 L224.386,26.094 L222.286,22.454 L224.078,22.454 L225.352,24.918 L225.38,24.918 L226.71,22.454 L228.32,22.454 L226.178,25.982 L228.544,30 Z M233.534,29.622 C233.151331,29.9673351 232.558671,30.14 231.756,30.14 C230.878662,30.14 230.162336,29.7900035 229.607,29.09 C229.051664,28.3899965 228.774,27.4286728 228.774,26.206 C228.774,24.9926606 229.06333,24.0313369 229.642,23.322 C230.192669,22.6499966 230.901996,22.314 231.77,22.314 C232.526004,22.314 233.109331,22.4866649 233.52,22.832 L233.156,23.798 C232.885332,23.5833323 232.549335,23.476 232.148,23.476 C231.046661,23.476 230.496,24.3766577 230.496,26.178 C230.496,27.0273376 230.638332,27.6946642 230.923,28.18 C231.207668,28.6653358 231.606664,28.908 232.12,28.908 C232.530669,28.908 232.871332,28.7960011 233.142,28.572 L233.534,29.622 Z M240.162,26.178 L235.542,26.85 C235.682001,28.250007 236.367994,28.95 237.6,28.95 C238.328003,28.95 238.962664,28.8100014 239.504,28.53 L239.91,29.608 C239.265997,29.9626684 238.435338,30.14 237.418,30.14 C236.335328,30.14 235.481336,29.7993367 234.856,29.118 C234.230663,28.4366633 233.918,27.4660063 233.918,26.206 C233.918,24.9833272 234.204997,24.0290034 234.779,23.343 C235.353003,22.6569966 236.139328,22.314 237.138,22.314 C238.146005,22.314 238.911331,22.6429967 239.434,23.301 C239.956669,23.9590033 240.199333,24.9179937 240.162,26.178 Z M238.566,25.506 C238.566,24.0779929 238.071338,23.364 237.082,23.364 C236.559331,23.364 236.158001,23.5739979 235.878,23.994 C235.569998,24.4513356 235.425333,25.1139957 235.444,25.982 L238.566,25.506 Z M243.094,30 L241.386,30 L241.386,19.01 L243.094,19.01 L243.094,30 Z M246.446,30 L244.738,30 L244.738,19.01 L246.446,19.01 L246.446,30 Z M253.9,26.178 L249.28,26.85 C249.420001,28.250007 250.105994,28.95 251.338,28.95 C252.066003,28.95 252.700664,28.8100014 253.242,28.53 L253.648,29.608 C253.003997,29.9626684 252.173338,30.14 251.156,30.14 C250.073328,30.14 249.219336,29.7993367 248.594,29.118 C247.968663,28.4366633 247.656,27.4660063 247.656,26.206 C247.656,24.9833272 247.942997,24.0290034 248.517,23.343 C249.091003,22.6569966 249.877328,22.314 250.876,22.314 C251.884005,22.314 252.649331,22.6429967 253.172,23.301 C253.694669,23.9590033 253.937333,24.9179937 253.9,26.178 Z M252.304,25.506 C252.304,24.0779929 251.809338,23.364 250.82,23.364 C250.297331,23.364 249.896001,23.5739979 249.616,23.994 C249.307998,24.4513356 249.163333,25.1139957 249.182,25.982 L252.304,25.506 Z M261.004,30 L259.296,30 L259.296,24.652 C259.296,23.8119958 258.843338,23.392 257.938,23.392 C257.508664,23.392 257.116668,23.4619993 256.762,23.602 L256.762,30 L255.054,30 L255.054,22.86 C255.82867,22.4959982 256.813327,22.314 258.008,22.314 C259.062672,22.314 259.841997,22.547331 260.346,23.014 C260.784669,23.406002 261.004,23.9426633 261.004,24.624 L261.004,30 Z M265.742,29.93 C265.517999,30.0326672 265.228668,30.084 264.874,30.084 C264.18333,30.084 263.651335,29.8740021 263.278,29.454 C262.960665,29.0899982 262.802,28.6186696 262.802,28.04 L262.802,23.546 L261.962,23.546 L261.962,22.454 L262.802,22.454 L262.802,20.788 L264.51,20.312 L264.51,22.454 L265.742,22.454 L265.742,23.546 L264.51,23.546 L264.51,27.956 C264.51,28.6093366 264.78533,28.936 265.336,28.936 C265.448,28.936 265.583332,28.9126669 265.742,28.866 L265.742,29.93 Z M269.192,20.368 L268.828,26.696 L267.526,26.696 L267.162,20.368 L269.192,20.368 Z M269.206,29.062 C269.206,29.3513348 269.105667,29.5963323 268.905,29.797 C268.704332,29.9976677 268.464001,30.098 268.184,30.098 C267.894665,30.098 267.652001,29.9976677 267.456,29.797 C267.259999,29.5963323 267.162,29.3513348 267.162,29.062 C267.162,28.7819986 267.259999,28.5416677 267.456,28.341 C267.652001,28.1403323 267.894665,28.04 268.184,28.04 C268.464001,28.04 268.704332,28.1403323 268.905,28.341 C269.105667,28.5416677 269.206,28.7819986 269.206,29.062 Z" id="of-our-customers-rat"></path>
        </g>
    </g>
</svg>