<?xml version="1.0" encoding="utf-8"?>
<!-- Generator: Adobe Illustrator 24.3.0, SVG Export Plug-In . SVG Version: 6.00 Build 0)  -->
<svg version="1.0" id="Layer_1" xmlns="http://www.w3.org/2000/svg" xmlns:xlink="http://www.w3.org/1999/xlink" x="0px" y="0px"
	 viewBox="0 0 194.4 24.7" style="enable-background:new 0 0 194.4 24.7;" xml:space="preserve">
<style type="text/css">
	.st0{fill:#1D1D1B;}
</style>
<path class="st0" d="M6.9,7.7c2.3,1.1,5.2,2.4,5.2,5.4c0,3-2.8,5.2-6.8,5.2c-1,0-2-0.1-2.9-0.4c-0.6-0.2-1.1-0.4-1.4-0.5
	c-0.1,0-0.1-0.1-0.2-0.1l0,0l0,0c-0.2-0.6-0.6-2.9-0.8-4.3l0-0.1l1-0.2l0,0.1c0.4,1.3,1.7,4.4,4.8,4.4c2.1,0,3.3-1.2,3.3-3.1
	c0-1.9-1.6-2.8-3.7-3.9c-2.1-1-5-2.4-5-5.4C0.5,2,3.1,0,6.8,0c1.5,0,2.8,0.4,3.8,0.6l0.1,0l0,0.1c0.1,0.5,0.1,1.1,0.2,1.8
	c0.1,0.6,0.2,1.2,0.3,2l0,0.1l-1.1,0.2l0-0.1C9.6,2.9,8.8,1.1,6.3,1.1c-2.1,0-3.1,1.4-3.1,2.8C3.2,5.7,4.4,6.6,6.9,7.7 M19.9,16.2
	c-0.4,0.2-1,0.4-1.7,0.4c-0.7,0-1.6-0.4-1.6-2.4V7.4h3l0,0C19.8,7.2,19.9,7,20,6.8c0-0.3,0-0.5-0.2-0.7l0,0h-3.2V2.4L16,2.3
	l-2.2,1.9v1.9h-1.3L11.6,7l0.2,0.4h1.9V15c0,2.2,1.1,3.3,3.1,3.3c0.3,0,0.8-0.1,1.2-0.4l2.2-1L19.9,16.2L19.9,16.2z M25.6,12.6
	c-1.1,0.5-1.7,0.9-1.7,1.9c0,1.4,1.2,2,2,2c0.6,0,1.5-0.3,2.1-0.8v-4.1c-0.4,0.2-1.1,0.5-1.7,0.7C26.1,12.4,25.8,12.6,25.6,12.6
	 M33.1,16.9l-2.7,1.4h0c-0.5,0-1.1-0.2-1.5-0.6c-0.3-0.3-0.6-0.6-0.7-1.1c-0.1,0.1-0.2,0.1-0.3,0.2c-1.1,0.7-2.3,1.5-3,1.5
	c-2.3,0-3.7-1.8-3.7-3.4c0-1.3,0.8-2.2,2.4-2.7c1.5-0.5,3.8-1.2,4.5-1.7V10c0-1.8-0.9-2.9-2.3-2.9c-0.5,0-0.9,0.2-1.2,0.5
	c-0.3,0.3-0.6,0.9-0.8,1.8c-0.1,0.5-0.5,0.7-1,0.7c-0.7,0-1.5-0.6-1.5-1.3c0-0.4,0.4-0.8,1-1.2c0.9-0.6,2.9-1.6,4.5-1.9h0
	c1,0,1.9,0.3,2.6,0.7c1,0.7,1.4,1.8,1.4,3.4v4.9c0,1,0.3,1.5,1,1.5c0.3,0,0.7-0.1,1-0.3l0.1,0L33.1,16.9z M49.9,10.7
	c-1.2-0.4-2.4-1.1-2.4-2.2c0-1,0.7-1.7,1.8-1.7c1.7,0,2.5,1.4,3,2.6l0,0.1l0.9-0.2l0-0.1c-0.1-0.7-0.4-2.3-0.7-2.9l0,0l0,0
	c-0.6-0.2-1.4-0.5-2.7-0.5c-2.7,0-4.7,1.5-4.7,3.6c0,2.2,2.3,3.2,3.8,3.8c1.6,0.7,2.3,1.3,2.3,2.3c0,1-0.8,1.7-2,1.7
	c-1.9,0-3.1-1.8-3.6-3.3l0-0.1L44.7,14v0.1c0,1,0.3,2.9,0.5,3.3l0,0c0.5,0.4,1.9,0.9,3.5,0.9c2.5,0,5-1.3,5-3.8
	C53.7,12.6,52.2,11.6,49.9,10.7 M66.4,14.9v-9l-0.3,0C65.7,6,65,6.1,64.3,6.2c-0.9,0.1-1.9,0.2-2.7,0.2l-0.1,0v0.8l1.1,0.2
	c0.9,0.2,1.1,0.3,1.1,1.6v6.3c-0.9,0.8-1.9,1.2-2.9,1.2c-1.1,0-2.4-0.5-2.4-2.8V9.9c0-1.8,0-3,0.1-3.9l0-0.1l-0.2,0
	c-0.5,0.1-1.3,0.2-2.1,0.3l-0.3,0c-0.7,0.1-1.4,0.1-1.9,0.2l-0.1,0v0.8l0.9,0.2c0.7,0.2,0.9,0.3,0.9,1.6v5.3c0,2.6,1.4,4.1,3.8,4.1
	c0.9,0,1.6-0.3,2.4-0.7c0.8-0.4,1.3-0.8,1.9-1.2l0,0v1.7l0.3,0.2l0,0c0.6-0.2,1.4-0.4,2.2-0.5c0.9-0.2,1.7-0.4,2.3-0.4l0.1,0v-0.9
	l-0.8,0C66.7,16.4,66.4,16.2,66.4,14.9 M79.2,7.2c0-0.7-0.7-1.5-1.9-1.5c-1.1,0-2.3,0.9-3.5,2.8V5.7l-0.1,0
	c-1.4,0.5-2.8,0.8-4.4,1.1l-0.1,0v0.8l0.1,0c1.6,0.2,1.7,0.3,1.7,1.9v5.6c0,1.7-0.2,1.8-1.9,2l-0.1,0V18h7.2v-0.9l-0.1,0
	c-2.3-0.2-2.3-0.3-2.3-2v-4.9C74.4,9,75.3,8.2,76,8.2c0.5,0,0.8,0.1,1.2,0.5c0.2,0.2,0.5,0.2,0.9,0.1C78.8,8.5,79.2,7.9,79.2,7.2
	 M86.1,10c0.5,0,0.6-0.1,0.6-0.5c0-0.7-0.2-1.4-0.7-1.9c-0.4-0.4-1-0.7-1.7-0.7c-1.3,0-2.5,1.2-2.9,3.1C82.9,10.1,84.5,10.1,86.1,10
	 M88.9,14.9l0.5,0.7l0,0c-2.2,2.6-4.5,2.7-5,2.7c-3.9,0-5.9-2.9-5.9-5.8c0-1.8,0.7-3.5,2-4.8c1.3-1.3,2.9-2,4.4-2h0
	c2.4,0,4.6,2,4.6,4.2c0,0.5-0.1,0.9-0.8,1c-0.5,0.1-4.1,0.3-7.5,0.5c0.1,3.4,2.2,4.9,4.3,4.9C86.7,16.2,87.8,15.8,88.9,14.9
	L88.9,14.9z M45.4,7V6.1h-5.5V7L40,7c0.9,0.1,1.4,0.3,1.5,0.5c0.1,0.2,0.1,0.4-0.1,0.9c-0.6,1.7-1.7,4.5-2.5,6.3l-2.5-6.4
	c-0.2-0.5-0.2-0.7-0.1-0.9c0.1-0.2,0.5-0.3,1.2-0.4l0.1,0l0-0.9h-6.4V7l0.1,0c1.5,0.2,1.8,0.5,2.4,1.9c0.7,1.6,2,4.6,3.4,8.3
	c0.2,0.5,0.2,0.8,0.1,1.2c-0.1,0.3-0.4,0.8-0.9,1.7c-0.7,1.3-2.4,3.8-3.1,4.5L33,24.7h2.9l0-0.1c0.4-1.1,0.9-2.3,1.6-3.9
	c0.5-1.1,1-2.3,1.7-3.9l0.3-0.8c1.7-3.9,2.5-5.8,3.2-7.1C43.6,7.4,43.9,7.2,45.4,7L45.4,7z M93.2,7.6L93,5.8h-0.5l-0.4,1.4l-0.4-1.4
	h-0.5l-0.3,1.8h0.3l0.2-1.4l0.5,1.4h0.3l0.5-1.4l0.2,1.4H93.2z M90.8,6V5.8h-1.4V6H90v1.5h0.3V6H90.8z M114,5.6h-0.7V8h-3V5.6h-0.7
	v5.7h0.7V8.6h3v2.7h0.7V5.6z M117.4,8.9l1.4,2.4h0.8l-1.6-2.6c0.8-0.3,1.1-0.8,1.1-1.5c0-0.5-0.2-0.9-0.5-1.2
	c-0.3-0.3-0.9-0.4-1.6-0.4h-1.6v5.7h0.7V8.9H117.4z M116.2,6.2h0.9c0.5,0,0.8,0.1,1.1,0.2c0.2,0.2,0.3,0.4,0.3,0.8
	c0,0.4-0.1,0.7-0.3,0.8c-0.2,0.2-0.6,0.3-1,0.3h-0.9V6.2z M124.9,5.6h-0.7V8h-3V5.6h-0.7v5.7h0.7V8.6h3v2.7h0.7V5.6z M132.8,6.3
	c-0.5-0.5-1.1-0.8-1.9-0.8c-0.8,0-1.5,0.3-2,0.8c-0.5,0.5-0.7,1.2-0.7,2.2c0,0.9,0.2,1.7,0.7,2.2c0.5,0.5,1.1,0.8,1.9,0.8l0.2,0
	l1.1,1.3h1l-1.4-1.4c0.5-0.2,1-0.5,1.2-1c0.3-0.5,0.4-1.1,0.4-1.8C133.5,7.5,133.2,6.8,132.8,6.3z M129.4,6.7
	c0.3-0.4,0.8-0.6,1.4-0.6c0.6,0,1.1,0.2,1.4,0.6c0.3,0.4,0.5,1,0.5,1.7c0,0.8-0.2,1.4-0.5,1.8c-0.3,0.4-0.8,0.6-1.4,0.6
	c-0.6,0-1.1-0.2-1.4-0.6c-0.3-0.4-0.5-1-0.5-1.8C128.9,7.7,129.1,7.1,129.4,6.7z M134.6,7v2.8c0,0.5,0.1,0.9,0.4,1.2
	c0.3,0.2,0.6,0.4,1.2,0.4c0.3,0,0.6-0.1,0.8-0.2c0.2-0.1,0.4-0.3,0.6-0.5h0l0.1,0.6h0.5V7h-0.6v2.2c0,0.6-0.1,1-0.3,1.2
	c-0.2,0.2-0.5,0.4-1,0.4c-0.3,0-0.6-0.1-0.7-0.3c-0.2-0.2-0.2-0.4-0.2-0.8V7H134.6z M142.1,11.3c0.2,0,0.4-0.1,0.7-0.2v-0.6
	c-0.5,0.2-0.9,0.3-1.4,0.3c-0.4,0-0.8-0.1-1-0.4c-0.2-0.3-0.4-0.6-0.4-1.1h2.9V8.9c0-0.6-0.2-1-0.5-1.4c-0.3-0.4-0.7-0.5-1.3-0.5
	c-0.6,0-1,0.2-1.4,0.6s-0.5,1-0.5,1.6c0,0.7,0.2,1.2,0.5,1.6c0.4,0.4,0.9,0.6,1.5,0.6C141.6,11.4,141.9,11.4,142.1,11.3z M142,7.8
	c0.2,0.2,0.3,0.5,0.3,0.9H140c0-0.4,0.2-0.7,0.4-0.9c0.2-0.2,0.5-0.3,0.8-0.3C141.5,7.5,141.8,7.6,142,7.8z M146.6,11.3
	c0.2,0,0.4-0.1,0.7-0.2v-0.6c-0.5,0.2-0.9,0.3-1.4,0.3c-0.4,0-0.8-0.1-1-0.4c-0.2-0.3-0.4-0.6-0.4-1.1h2.9V8.9c0-0.6-0.2-1-0.5-1.4
	c-0.3-0.4-0.7-0.5-1.3-0.5c-0.6,0-1,0.2-1.4,0.6s-0.5,1-0.5,1.6c0,0.7,0.2,1.2,0.5,1.6c0.4,0.4,0.9,0.6,1.5,0.6
	C146.1,11.4,146.4,11.4,146.6,11.3z M146.4,7.8c0.2,0.2,0.3,0.5,0.3,0.9h-2.2c0-0.4,0.2-0.7,0.4-0.9c0.2-0.2,0.5-0.3,0.8-0.3
	C146,7.5,146.3,7.6,146.4,7.8z M152.1,11.3V8.5c0-0.5-0.1-0.9-0.4-1.2c-0.3-0.2-0.6-0.4-1.2-0.4c-0.3,0-0.6,0.1-0.8,0.2
	c-0.2,0.1-0.4,0.3-0.6,0.5h0L149.1,7h-0.5v4.3h0.6V9.1c0-0.6,0.1-1,0.3-1.2c0.2-0.2,0.5-0.4,1-0.4c0.3,0,0.6,0.1,0.7,0.3
	c0.2,0.2,0.2,0.4,0.2,0.8v2.8H152.1z M158.8,10.7h-2.5V8.6h2.4V8h-2.4V6.2h2.5V5.6h-3.2v5.7h3.2V10.7z M160.6,5.2H160v6.1h0.6V5.2z
	 M162,6.2c0.1,0.1,0.2,0.1,0.3,0.1c0.1,0,0.2,0,0.3-0.1c0.1-0.1,0.1-0.2,0.1-0.3c0-0.1,0-0.3-0.1-0.3c-0.1-0.1-0.2-0.1-0.3-0.1
	c-0.1,0-0.2,0-0.3,0.1c-0.1,0.1-0.1,0.2-0.1,0.3C161.9,6,162,6.1,162,6.2z M162.6,7H162v4.3h0.6V7z M166.7,10.8h-2.4l2.3-3.3V7h-2.9
	v0.5h2.2l-2.3,3.3v0.4h3.1V10.8z M170.9,11.3V8.4c0-0.5-0.1-0.9-0.4-1.1S169.9,7,169.4,7c-0.3,0-0.5,0-0.8,0.1
	c-0.3,0.1-0.5,0.2-0.7,0.3l0.2,0.5c0.5-0.2,0.9-0.3,1.2-0.3c0.3,0,0.5,0.1,0.7,0.2s0.2,0.4,0.2,0.7v0.3l-0.7,0
	c-1.4,0-2.1,0.5-2.1,1.4c0,0.4,0.1,0.7,0.4,0.9c0.2,0.2,0.6,0.3,1,0.3c0.3,0,0.6,0,0.8-0.1c0.2-0.1,0.4-0.3,0.6-0.5h0l0.1,0.6H170.9
	z M168.3,10.7c-0.1-0.1-0.2-0.3-0.2-0.5c0-0.3,0.1-0.5,0.3-0.7c0.2-0.1,0.6-0.2,1.1-0.2l0.6,0v0.4c0,0.4-0.1,0.7-0.3,0.9
	c-0.2,0.2-0.5,0.3-1,0.3C168.7,10.8,168.5,10.8,168.3,10.7z M172.8,7.6L172.8,7.6c0-0.3,0-0.6,0-0.9V5.2h-0.6v6.1h0.5l0.1-0.6h0
	c0.2,0.2,0.3,0.4,0.6,0.5c0.2,0.1,0.5,0.2,0.8,0.2c0.6,0,1-0.2,1.3-0.6c0.3-0.4,0.5-0.9,0.5-1.6s-0.2-1.2-0.5-1.6
	c-0.3-0.4-0.7-0.6-1.3-0.6C173.6,7,173.1,7.2,172.8,7.6z M175,7.9c0.2,0.3,0.3,0.7,0.3,1.2c0,0.5-0.1,1-0.3,1.3
	c-0.2,0.3-0.5,0.4-0.9,0.4c-0.4,0-0.8-0.1-1-0.4c-0.2-0.3-0.3-0.7-0.3-1.3s0.1-1,0.3-1.3s0.5-0.4,1-0.4C174.5,7.5,174.8,7.6,175,7.9
	z M179.6,11.3c0.2,0,0.4-0.1,0.7-0.2v-0.6c-0.5,0.2-0.9,0.3-1.4,0.3c-0.4,0-0.8-0.1-1-0.4c-0.2-0.3-0.4-0.6-0.4-1.1h2.9V8.9
	c0-0.6-0.2-1-0.5-1.4c-0.3-0.4-0.7-0.5-1.3-0.5c-0.6,0-1,0.2-1.4,0.6s-0.5,1-0.5,1.6c0,0.7,0.2,1.2,0.5,1.6c0.4,0.4,0.9,0.6,1.5,0.6
	C179.2,11.4,179.4,11.4,179.6,11.3z M179.5,7.8c0.2,0.2,0.3,0.5,0.3,0.9h-2.2c0-0.4,0.2-0.7,0.4-0.9c0.2-0.2,0.5-0.3,0.8-0.3
	C179.1,7.5,179.3,7.6,179.5,7.8z M182.5,10.6c-0.1-0.1-0.2-0.3-0.2-0.6V7.5h1.2V7h-1.2V6h-0.4l-0.3,0.9L181,7.2v0.3h0.6v2.5
	c0,0.9,0.4,1.3,1.2,1.3c0.1,0,0.2,0,0.4,0c0.1,0,0.2,0,0.3-0.1v-0.5c-0.1,0-0.1,0-0.3,0.1c-0.1,0-0.2,0-0.3,0
	C182.8,10.8,182.6,10.8,182.5,10.6z M188,11.3V8.5c0-0.5-0.1-0.9-0.4-1.2c-0.3-0.2-0.7-0.4-1.2-0.4c-0.3,0-0.6,0.1-0.8,0.2
	c-0.2,0.1-0.4,0.3-0.5,0.5h0c0-0.1,0-0.3,0-0.6V5.2h-0.6v6.1h0.6V9.1c0-0.6,0.1-1,0.3-1.2c0.2-0.2,0.5-0.4,1-0.4
	c0.3,0,0.6,0.1,0.7,0.3c0.2,0.2,0.2,0.4,0.2,0.8v2.8H188z M192.2,11.3V5.6h-0.7v5.7H192.2z M194.4,11.3V5.6h-0.7v5.7H194.4z
	 M138.1,14h-0.4l-1.1,0.9l0.3,0.3c0.4-0.3,0.6-0.5,0.7-0.6s0.1-0.1,0.1-0.1c0,0.2,0,0.5,0,0.7v3.1h0.5V14z M142.3,14.8
	c-0.1-0.3-0.3-0.5-0.5-0.7s-0.5-0.2-0.8-0.2c-0.4,0-0.7,0.1-1,0.4s-0.4,0.6-0.4,1.1c0,0.4,0.1,0.7,0.3,0.9s0.5,0.3,0.9,0.3
	c0.2,0,0.4,0,0.6-0.1s0.3-0.2,0.4-0.4h0c0,0.6-0.2,1-0.4,1.3S141,18,140.6,18c-0.2,0-0.4,0-0.5-0.1v0.4c0.1,0,0.3,0.1,0.5,0.1
	c1.3,0,1.9-0.8,1.9-2.5C142.5,15.5,142.5,15.1,142.3,14.8z M141.6,14.5c0.1,0.1,0.3,0.2,0.3,0.4s0.1,0.4,0.1,0.6
	c0,0.1,0,0.3-0.1,0.4c-0.1,0.1-0.2,0.2-0.4,0.3s-0.3,0.1-0.5,0.1c-0.3,0-0.5-0.1-0.6-0.2c-0.1-0.2-0.2-0.4-0.2-0.7
	c0-0.3,0.1-0.6,0.2-0.8s0.4-0.3,0.6-0.3C141.3,14.4,141.4,14.4,141.6,14.5z M145.9,17.9h-2.2v0l0.9-0.9c0.4-0.4,0.7-0.7,0.9-1
	c0.2-0.3,0.2-0.5,0.2-0.8c0-0.3-0.1-0.6-0.3-0.8s-0.5-0.3-0.9-0.3c-0.5,0-0.9,0.2-1.3,0.5l0.3,0.3c0.2-0.2,0.4-0.3,0.5-0.3
	s0.3-0.1,0.5-0.1c0.2,0,0.4,0.1,0.6,0.2s0.2,0.3,0.2,0.5c0,0.2,0,0.3-0.1,0.5s-0.1,0.3-0.2,0.4c-0.1,0.1-0.3,0.4-0.7,0.7l-1.1,1.1
	v0.4h2.8V17.9z M147,17.9c0.3,0.3,0.6,0.5,1.1,0.5c0.4,0,0.7-0.1,1-0.4s0.4-0.6,0.4-1.1c0-0.4-0.1-0.7-0.3-0.9
	c-0.2-0.2-0.5-0.3-0.9-0.3c-0.5,0-0.8,0.2-1,0.5h0c0-0.6,0.2-1.1,0.4-1.3s0.6-0.4,1.1-0.4c0.2,0,0.4,0,0.5,0.1V14
	c-0.1,0-0.3-0.1-0.5-0.1c-0.6,0-1.1,0.2-1.5,0.6s-0.5,1-0.5,1.9C146.6,17.1,146.7,17.5,147,17.9z M147.6,17.8
	c-0.1-0.1-0.3-0.2-0.3-0.4s-0.1-0.4-0.1-0.6c0-0.1,0-0.3,0.1-0.4s0.2-0.2,0.3-0.3s0.3-0.1,0.5-0.1c0.3,0,0.5,0.1,0.6,0.2
	s0.2,0.4,0.2,0.7c0,0.3-0.1,0.6-0.2,0.8S148.3,18,148,18C147.9,18,147.7,17.9,147.6,17.8z M153.2,16.9v-0.4h-2.5v0.4H153.2z
	 M157.5,17.9h-2.2v0l0.9-0.9c0.4-0.4,0.7-0.7,0.9-1c0.2-0.3,0.2-0.5,0.2-0.8c0-0.3-0.1-0.6-0.3-0.8S156.4,14,156,14
	c-0.5,0-0.9,0.2-1.3,0.5l0.3,0.3c0.2-0.2,0.4-0.3,0.5-0.3s0.3-0.1,0.5-0.1c0.2,0,0.4,0.1,0.6,0.2s0.2,0.3,0.2,0.5
	c0,0.2,0,0.3-0.1,0.5s-0.1,0.3-0.2,0.4c-0.1,0.1-0.3,0.4-0.7,0.7l-1.1,1.1v0.4h2.8V17.9z M160.6,14.5c-0.2-0.4-0.6-0.6-1.1-0.6
	c-0.5,0-0.8,0.2-1.1,0.5s-0.3,0.9-0.3,1.7c0,0.7,0.1,1.3,0.4,1.6s0.6,0.6,1.1,0.6c0.5,0,0.8-0.2,1.1-0.5s0.4-0.9,0.4-1.7
	C160.9,15.4,160.8,14.9,160.6,14.5z M158.8,14.8c0.1-0.3,0.4-0.4,0.7-0.4c0.3,0,0.6,0.1,0.7,0.4s0.2,0.7,0.2,1.4
	c0,0.6-0.1,1.1-0.2,1.4s-0.4,0.4-0.7,0.4c-0.3,0-0.6-0.1-0.7-0.4s-0.2-0.7-0.2-1.4C158.6,15.5,158.7,15.1,158.8,14.8z M164.3,17.9
	h-2.2v0l0.9-0.9c0.4-0.4,0.7-0.7,0.9-1c0.2-0.3,0.2-0.5,0.2-0.8c0-0.3-0.1-0.6-0.3-0.8s-0.5-0.3-0.9-0.3c-0.5,0-0.9,0.2-1.3,0.5
	l0.3,0.3c0.2-0.2,0.4-0.3,0.5-0.3s0.3-0.1,0.5-0.1c0.2,0,0.4,0.1,0.6,0.2s0.2,0.3,0.2,0.5c0,0.2,0,0.3-0.1,0.5s-0.1,0.3-0.2,0.4
	c-0.1,0.1-0.3,0.4-0.7,0.7l-1.1,1.1v0.4h2.8V17.9z M167.8,17.9h-2.2v0l0.9-0.9c0.4-0.4,0.7-0.7,0.9-1c0.2-0.3,0.2-0.5,0.2-0.8
	c0-0.3-0.1-0.6-0.3-0.8s-0.5-0.3-0.9-0.3c-0.5,0-0.9,0.2-1.3,0.5l0.3,0.3c0.2-0.2,0.4-0.3,0.5-0.3s0.3-0.1,0.5-0.1
	c0.2,0,0.4,0.1,0.6,0.2s0.2,0.3,0.2,0.5c0,0.2,0,0.3-0.1,0.5s-0.1,0.3-0.2,0.4c-0.1,0.1-0.3,0.4-0.7,0.7l-1.1,1.1v0.4h2.8V17.9z"/>
</svg>
