<svg id="Layer_1" data-name="Layer 1" xmlns="http://www.w3.org/2000/svg" viewBox="0 0 765.35 255.91"><defs><style>.cls-1{fill:#522367;}</style></defs><title>staysuretour-logo</title><path class="cls-1" d="M668.74,118.94c-1,0-2.57,0-3.33-.82-.55-.58-.49-1-.27-1.36,1.67-2.91,16.44-11.86,21.32-15.39.6-.43.1-1.63-.07-2-.38-1.06-1.52-2.65-.33-3.7a1.14,1.14,0,0,1,1.35-.06c.38.34.76.64,1.16,1a6.85,6.85,0,0,0,3.27,2,17.68,17.68,0,0,0,4.81.34c1.71-.09,3.25,1.12,4.78,1.8a26.09,26.09,0,0,0,5.25,1.62c2.61.58,5.49,3.82,5.49,4-1.53,2.67,0,5.79,2.16,9.31,1.4,2.24,1.48,4.55,2.68,6.83.89,1.73,4.53,4.94,4.51,7.6-3.36.91-10.69-4-14.3-5-1.56-.44-8.31-1.07-9.92-1.83-1.13-.53-8.12-4.62-12.6-4.67s-16,.55-16,.36m22.89,138.81A140.41,140.41,0,0,1,690.39,227l0-.64c.11-3.82-.12-45-.12-45s21.07-2.14,29.37-1.81c.23,0,1,0,1.63-.11,3.75-.38,17.81-1.46,25.75-2.87a4.86,4.86,0,0,0,1-.48,97.1,97.1,0,0,1,9.61-4.38c10.68-3.86,17.14-5.37,11.84-18.29.2.17-6.81-30.85-16-38.58-.17.18-4.12-8.39-6.13-10.46s-1.11-6.69-7.26-11.81c-6.21-4-5.52-4.67-13.11-.3,0,0-7.11-5.62-6.32-13.57A23,23,0,0,0,723,77.15c2.39-4.77-2.91-10-5.5-9.9-.86.24-1.07.41-1.79.63,0-.17-4-3.27-6.15-3.31,0,0-3.23-.76-4.2.49-.18-.23-4.82-1.68-6.53,2.46l-2,1.23s-2.47-1.83-3.4-.93c0,0-3-6-9.35-2.33,0,0-10.14,5-10.69,7.12-.16.2-5.18-2.57-8.3-.27l-15.58,11c-.5.89-1.9,2-4,3.15l-1.24.47,0-.11c1-.92,1.91-4.56,2.71-8.54,1.8-1.26,12.59-9.17,14.5-19.34,1.49-8-5.45-11.09-14.2-18.4-8.51-7.09-18.65-14-31.39-12.63-6.21.69-21.77,1.32-26.25,1.64-17.55,1.28-31.82,17.1-9.83,30v.1c-.2,2.21,1,7,1,7l-2.54,4.74s.74,16.42,4.1,23.45c0,0,1.29,3.28,1,4.9-.45,2,1.51,6,6,7.92-9.37,3.05-17.08,5.52-20.45,6.7a30.93,30.93,0,0,1-9.32,4.78c-10.53,6.21-19.28,14.85-19,33.87-32.8,18.87-72.51,41.68-82.52,47.4-6.84,3.91-10.7,3.56-17.06,12.18-4.11,5.58-6.75,14.71-4.44,21.14,2,5.59,8.14,9.64,14,8.25,14.15-3.38,7.32-21.71,4.9-30.65-.71-2.63,1.5-5.58,6.22-8.39,13.16-7.81,49.15-28.38,79.1-45.52.93,11.37,4.73,26,12.67,45.36,0,1.27.11,2.53.17,3.81,0,0-.66,6,1.14,9.1.22,0-2.19,19.53-2.37,28.4l.08.72c.22,1.42,1.2,7.77,1.84,12.89H6.38v6.57H771.53v-6.57ZM148.85,78.56c1-.45,2.41-1,3.89-1.66,3.06-1.3,6.81-2.89,9.27-4l0,22.53c-3.1,2.6-8,4.55-11.54,4.56-4.21,0-10.89-2.95-10.91-10.9,0-5.35,3.39-7.9,9.26-10.5M123.28,91.47c0,9,7.91,18.8,20.67,18.78,4.22,0,11-4.32,17-8.13l1.69-1.07a15,15,0,0,0,4,6.08,13.9,13.9,0,0,0,8.35,3.09h.11l15-8-2-4.85-.43.24A12.15,12.15,0,0,1,182.19,99c-3.42,0-5.31-3-5.31-8.36l0-27.17c0-9.22-2.32-14.9-7.76-19a24.32,24.32,0,0,0-14.25-4.09h-.05c-9,1.75-20.07,7.22-25.1,10.54-3.47,2.26-5.62,4.16-5.62,6.65,0,3.78,4.5,7,8.17,7,3,0,4.85-1.34,5.67-4.07,1.35-4.76,2.83-7.89,4.67-9.83A8.89,8.89,0,0,1,149.3,48c7.94,0,12.69,6,12.7,16.12v2.61c-4.07,2.91-16.82,7-25.29,9.68-9.17,2.95-13.44,7.74-13.43,15.07m17.83,106c0,13.95-10.76,22.82-23.05,22.82s-23-8.87-23-22.82,10.76-22.82,23-22.82,23.05,8.88,23.05,22.82m-62.83,0c0,22.35,16.44,34.49,39.78,34.49s39.78-12.14,39.78-34.49S141.41,163,118.06,163s-39.78,12.14-39.78,34.48m-67.5-92.09.18.07,1,.43a54.22,54.22,0,0,0,7.57,2.72,58.41,58.41,0,0,0,16.22,2.24c21.76,0,37.55-12.29,37.53-29.15s-16-24.33-28.87-30.23C30.86,45.15,24,40.14,24,30.22c0-7.8,5.33-15.68,17.28-15.7,13.62,0,18.4,9.86,21.27,19.52l.12.37,5.89-.87-.06-.44c-.59-4.31-1.12-7.89-1.59-11-.57-3.87-1-6.93-1.39-9.87l0-.3-.29-.07C59.72,10.38,52.26,8.4,44,8.41c-20.56,0-34.91,11.34-34.9,27.51,0,16.68,16,24.32,27.71,29.92s20.62,11,20.64,21.53-7.11,17-18.59,17c-17.61,0-24.65-17-26.87-24.29l-.12-.41-5.72,1.4,0,.39c1,7.58,3.16,20.37,4.49,23.7Zm72-56.11,0,42.71c0,12,6,18.35,17.38,18.33a17.94,17.94,0,0,0,6.91-2l12-5.41-1.78-4.85-.43.18a24.88,24.88,0,0,1-9.67,2.22c-4.15,0-9.1-2.35-9.11-13.58l0-37.63,16.74,0,.1-.06A4.16,4.16,0,0,0,117.14,46,4.24,4.24,0,0,0,116,42.35l-.13-.13-17.8,0,0-20.53-2.86-.55L82.75,31.74l0,10.52h-7l-5,4.84,1.08,2.18ZM182.44,165a10.65,10.65,0,0,0-10.65,10.65v26.87c.09,6.9.09,13.43,5.61,19.49,6.72,7.46,19.5,9.94,29.34,9.94s22.62-2.48,29.33-9.94c5.52-6.06,5.52-12.59,5.61-19.49V165h-5.53a10.65,10.65,0,0,0-10.65,10.65v26.87c0,6.77-.62,8.93-3.28,11.59-3.27,3.27-8.62,4.69-15.48,4.69s-12.22-1.42-15.49-4.69c-2.66-2.66-3.27-4.82-3.27-11.59V165Zm248.34-56.87v-4.88l-.41,0c-12.7-.89-13.06-1.77-13.07-11l0-27.24c3-7,7.67-11.59,11.86-11.6,2.58,0,4.46.78,6.93,2.87,1.19,1.08,2.9,1.27,4.9.52a9.29,9.29,0,0,0,6-8.48c0-4-4.14-8.2-10.3-8.19S424,45.26,417.25,55.51V39.6l-.59.2a122.06,122.06,0,0,1-24.22,6l-.37.06v4.35l.38.05c8.67,1.14,9.48,1.51,9.49,10.75l0,31.2c0,9.52-1.21,10.19-10.76,11.07l-.39,0v4.87Zm-251-61.07c8.49,1,10,2.78,13.45,10.63,4.1,8.74,11.07,25.6,19.1,46.23a8.66,8.66,0,0,1,.33,6.57c-.64,1.88-2,4.5-4.72,9.33-4.13,7.41-13.06,21.09-17.08,24.82l-.83.77,16.21,0,.11-.28c2.43-6.31,5.22-12.67,9.08-21.48,2.67-6.09,5.7-13,9.45-21.8l1.94-4.56c9.19-21.56,13.81-32.38,17.63-39.76,4.38-8.29,5.82-9.38,14.11-10.55l.38-.05V42.05l-30.61,0V47l.38,0c5.24.68,7.61,1.47,8.44,2.83.6,1,.48,2.42-.41,4.93-3.26,9.2-9.6,25.3-14.13,35.32L208.5,54.33c-1-2.51-1.2-3.91-.68-4.82.64-1.12,2.53-1.82,6.74-2.5l.38-.06-.2-4.85-35.36,0V47ZM475,46.57a12.74,12.74,0,0,1,9.34,3.78,14.79,14.79,0,0,1,4,10.69c0,1.76-.47,2.54-3.34,2.55-8.92.3-17.4.46-25.88.48,2.19-10.65,8.37-17.49,15.85-17.5m.9,63.3c2.49,0,15.48-.74,27.58-15l.23-.27-3-3.93-.35.29c-5.74,4.8-11.94,7.23-18.43,7.24-11.48,0-23.21-8.34-23.73-27,18.85-.63,39-2.13,41.81-2.58,3.61-.52,4.33-2.36,4.32-5.37,0-12.4-11.9-23.27-25.43-23.25h-.16c-8.34,0-17.25,4-24.44,11.05a36.79,36.79,0,0,0-11.1,26.61c0,16,11.24,32.22,32.66,32.2M310.36,49c3.85.83,5.07,1.46,5.08,9l0,29.56c0,14.32,7.66,22.53,21,22.51,4.83,0,8.63-1.51,13.18-3.94a87.77,87.77,0,0,0,10.66-6.75l.18-.13,0,9.67L362,110l.22-.06c3.27-.89,7.78-2,12.12-3,5.18-1.18,9.53-2,12.93-2.4l.39,0V99.7L383,99.54c-5.89-.42-7.15-1.21-7.16-8.66l-.06-50.09-1.66.28a102.62,102.62,0,0,1-10.49,1.31c-4.82.59-10.59,1.06-15.07,1.21h-.43V48l6.11.94c4.92.86,6.21,1.4,6.22,9.11l0,34.89a24.62,24.62,0,0,1-16.14,6.5c-6.17,0-13.53-2.74-13.54-15.82l0-20.46c0-9.77,0-16.84.47-21.75l.06-.57L330,41c-2.92.45-7.33,1.12-11.54,1.54l-1.64.17c-3.94.39-7.65.76-10.82.89l-.42,0V48ZM278.3,81.69C287.45,85.45,291,89.06,291,94.56s-4.66,9.72-10.88,9.72c-10.39,0-17.24-9.94-20-18.48l-.11-.35-5.19.7v.39c0,5.7,1.65,16.2,2.87,18.43l.12.14c2.79,2.08,10.62,5,19.33,5,13.93,0,28-7.31,28-21.23,0-10.88-8.53-16.32-21.33-21.14-6.6-2.47-13.35-5.86-13.35-12.26,0-5.45,4.14-9.42,9.88-9.42,9.2,0,14.07,7.94,16.52,14.61L297,61l5.22-1.24-.06-.39c-.52-3.73-2.34-12.95-3.66-16.23l-.08-.18-.17-.07a39.15,39.15,0,0,0-15.11-2.7c-15,0-25.89,8.51-25.87,20.18,0,12.44,12.64,17.76,21,21.28M30.47,229.93H46.75V176.87H70.84V165H17A10.65,10.65,0,0,0,6.38,175.65v1.22H30.47Zm269.27-37.62H273.8v-15.9H299c6.44,0,8,1.56,9.2,3.12a9.24,9.24,0,0,1,1.28,5.06c0,7.27-6.25,7.72-9.74,7.72m26.21-7.9a19.22,19.22,0,0,0-4.23-12.51c-5.43-6.25-12.14-6.9-19.5-6.9h-34a10.66,10.66,0,0,0-10.66,10.65v54.28H273.8V203.81h18.48l17.39,26.12h19.12l-19.67-27.14c2.57-.45,7.08-1.37,10.57-4,4.6-3.49,6.26-9.38,6.26-14.34" transform="translate(-6.17 -8.41)"/></svg>