<?xml version="1.0" encoding="utf-8"?>
<!-- Generator: Adobe Illustrator 19.0.0, SVG Export Plug-In . SVG Version: 6.00 Build 0)  -->
<svg version="1.1" id="Layer_1" xmlns="http://www.w3.org/2000/svg" xmlns:xlink="http://www.w3.org/1999/xlink" x="0px" y="0px"
	 viewBox="-364.1 467.1 447 67" style="enable-background:new -364.1 467.1 447 67;" xml:space="preserve">
<style type="text/css">
	.st0{fill:#FFFFFF;}
</style>
<title>Staysure logo+strapline Purple</title>
<path class="st0" d="M-345.4,488.1c-6.6-3.1-10-5.5-10-10.4c0-3.8,2.6-7.7,8.4-7.7c6.7,0,9,4.8,10.4,9.6v0.2l2.9-0.4v-0.2
	c-0.3-2.1-0.6-3.9-0.8-5.4c-0.3-1.9-0.5-3.5-0.7-4.8v-0.2h-0.1c-3.4-1-6.8-1.6-10.4-1.7c-10,0-17,5.5-17,13.4
	c0,8.2,7.8,11.9,13.5,14.6s10.1,5.4,10.1,10.5c0,5.2-3.5,8.3-9.1,8.3c-8.6,0-12.1-8.3-13.1-11.9v-0.2l-2.9,0.7v0.2
	c0.5,3.9,1.2,7.8,2.2,11.6v0.1h0.1l0.5,0.2c1.2,0.5,2.4,1,3.7,1.3c2.6,0.8,5.3,1.2,8,1.2c10.6,0,18.4-6,18.4-14.3
	S-339.1,491-345.4,488.1"/>
<path class="st0" d="M-310,511c-1.5,0.7-3.1,1-4.7,1.1c-2,0-4.4-1.2-4.4-6.7v-18.4h8.2l0,0c0.6-0.3,1-0.9,1.1-1.5
	c0.1-0.6-0.1-1.3-0.5-1.7l0,0h-8.7v-10.2l-1.4-0.3l-6.1,5.2v5.2h-3.5l-2.3,2.4l0.5,1.1h5.3v20.8c0,5.9,2.9,9,8.5,9
	c1.2-0.1,2.3-0.4,3.4-1l6-2.6l-0.9-2.4L-310,511z"/>
<path class="st0" d="M-294.4,501.4l1.9-0.8c1.5-0.6,3.3-1.4,4.5-2v11c-1.6,1.3-3.6,2.1-5.6,2.2c-2.9,0.1-5.2-2.2-5.3-5
	c0-0.1,0-0.2,0-0.3C-298.9,503.9-297.2,502.7-294.4,501.4 M-275.2,510.6l-0.2,0.1c-0.8,0.5-1.8,0.7-2.7,0.7c-1.7,0-2.6-1.5-2.6-4.1
	v-13.3c0-4.5-1.1-7.3-3.8-9.3c-2-1.4-4.5-2.1-6.9-2l0,0c-4.3,1-8.5,2.8-12.3,5.2c-1.7,1.1-2.8,2-2.8,3.2c0.3,2,2,3.4,4,3.5
	c1.3,0.1,2.5-0.7,2.8-2c0.3-1.8,1.1-3.4,2.2-4.9c0.9-0.9,2.1-1.4,3.3-1.3c3.9,0,6.2,3,6.2,7.9v1.3c-2,1.4-8.2,3.5-12.4,4.7
	c-4.5,1.5-6.6,3.8-6.6,7.4c0.3,5.3,4.8,9.4,10.1,9.2c0,0,0,0,0,0c2.1,0,5.4-2.1,8.3-4l0.8-0.5c0.4,1.2,1,2.2,1.9,3
	c1.2,0.9,2.6,1.5,4.1,1.5l0,0l7.4-4L-275.2,510.6z"/>
<path class="st0" d="M-228.4,496.2c-3.2-1.2-6.5-2.9-6.5-6c0-2.5,2-4.6,4.5-4.6c0.1,0,0.2,0,0.3,0c4.5,0,6.9,3.9,8.1,7.2v0.2
	l2.6-0.6v-0.2c-0.4-2.7-0.9-5.3-1.7-7.9v-0.1l0,0c-2.3-0.9-4.9-1.4-7.4-1.3c-7.3,0-12.7,4.1-12.7,9.8c0,6.1,6.2,8.6,10.2,10.4
	c4.5,1.8,6.2,3.6,6.2,6.3c-0.1,2.7-2.4,4.9-5.1,4.8c-0.1,0-0.1,0-0.2,0c-5.1,0-8.4-4.9-9.7-9.1v-0.2l-2.5,0.3v0.2
	c0,3.1,0.5,6.1,1.4,9l0,0c2.9,1.7,6.1,2.5,9.4,2.5c6.8,0,13.7-3.6,13.7-10.4c0-5.3-4.2-8-10.4-10.4"/>
<path class="st0" d="M-183.5,507.6v-24.5l-0.8,0.1c-1.3,0.2-3.1,0.5-5.2,0.6c-2.3,0.3-5.2,0.5-7.4,0.6h-0.2v2.2l3,0.5
	c2.4,0.4,3,0.7,3,4.5v17c-2.2,2-5,3.1-7.9,3.2c-3,0-6.6-1.3-6.6-7.7v-10c0-4.8,0-8.2,0.2-10.6v-0.3l-0.6,0.1
	c-1.4,0.2-3.6,0.5-5.6,0.7h-0.8c-1.9,0.2-3.7,0.4-5.3,0.4h-0.1v2.1l2.3,0.5c1.9,0.4,2.5,0.7,2.5,4.4v14.4c0,7,3.7,11,10.2,11
	c2.3-0.1,4.5-0.7,6.4-1.9c1.8-1,3.5-2.1,5.2-3.3l0,0v4.7l0.7,0.6h0.1c1.6-0.4,3.8-1,5.9-1.5c2.5-0.6,4.7-1,6.3-1.2h0.2v-2.4h-2.3
	C-183,511.7-183.6,511.3-183.5,507.6"/>
<path class="st0" d="M-148.7,486.8c-0.3-2.5-2.5-4.2-5-4c-3,0-6.2,2.5-9.5,7.6v-7.8l-0.3,0.1c-3.8,1.4-7.8,2.4-11.8,2.9h-0.2v2.1
	h0.2c4.2,0.6,4.6,0.7,4.6,5.2v15.3c0,4.6-0.6,5-5.2,5.4h-0.2v2.4h19.5v-2.2h-0.2c-6.2-0.4-6.4-0.9-6.4-5.4v-13.4
	c1.5-3.5,3.8-5.6,5.8-5.6c1.3,0,2.5,0.5,3.5,1.4c0.7,0.5,1.6,0.6,2.4,0.3c1.7-0.6,2.9-2.3,3-4.1"/>
<path class="st0" d="M-130.1,494.3c-4.4,0.2-8.5,0.2-12.6,0.2c1.1-5.2,4.1-8.6,7.8-8.6c1.7,0,3.4,0.7,4.6,1.9c1.3,1.4,2,3.3,2,5.2
	C-128.5,493.9-128.7,494.2-130.1,494.3 M-122.7,507.6c-2.5,2.2-5.7,3.4-9,3.5c-5.6,0-11.3-4.1-11.6-13.2c9.2-0.3,19-1,20.4-1.2
	c1.7-0.2,2.1-1.1,2.1-2.6c0-6.1-5.8-11.4-12.4-11.4h-0.1c-4.5,0.2-8.8,2.1-11.9,5.4c-3.5,3.4-5.5,8.1-5.4,13
	c-0.2,8.5,6.4,15.5,14.9,15.8c0.3,0,0.7,0,1,0c1.2,0,7.6-0.3,13.5-7.3l0.1-0.1l-1.5-1.9L-122.7,507.6z"/>
<path class="st0" d="M-240.6,486.1v-2.4h-15v2.4h0.3c2.6,0.3,3.7,0.7,4.1,1.4c0.4,0.7,0.2,1.2-0.2,2.4c-1.6,4.5-4.7,12.4-6.9,17.3
	l-6.9-17.5c-0.5-1.2-0.6-1.9-0.3-2.4c0.3-0.4,1.2-0.9,3.3-1.2h0.2l-0.2-2.5h-17.3v2.4h0.2c4.1,0.5,4.9,1.4,6.6,5.2
	c2,4.3,5.4,12.5,9.3,22.6c0.5,1,0.5,2.2,0.2,3.2c-0.7,1.6-1.4,3.1-2.3,4.6c-2.4,4.3-5.2,8.4-8.4,12.1l-0.4,0.4h7.9V534
	c1.2-3.1,2.6-6.2,4.5-10.5c1.3-3,2.8-6.4,4.6-10.6l1-2.2c4.5-10.5,6.8-15.9,8.7-19.3c2.1-4,2.9-4.6,6.9-5.2H-240.6z"/>
<path class="st0" d="M-111.5,487.6l-0.5-3.9l-1.3,3.9h-0.9l-1.3-3.9l-0.5,3.9h-0.9l0.7-4.8h1.2l1.2,3.8l1.2-3.8h1.3l0.7,4.8H-111.5z
	 M-118.6,483.5v4.1h-0.9v-4.1h-1.5v-0.7h3.9v0.7H-118.6z"/>
<path class="st0" d="M-72.4,516.9h-1.7l-3-9.9c-0.1-0.4-0.3-1-0.5-1.7c-0.1-0.4-0.2-0.8-0.3-1.2c-0.2,1-0.4,2-0.7,2.9l-2.9,9.9h-1.7
	l-3.9-14.8h1.8l2.3,9.1c0.3,1.1,0.5,2.3,0.7,3.5c0.2-1.2,0.4-2.4,0.8-3.6l2.6-9h1.8l2.8,9.1c0.4,1.2,0.6,2.3,0.8,3.5
	c0.2-1.2,0.4-2.3,0.7-3.5l2.3-9.1h1.8L-72.4,516.9z"/>
<path class="st0" d="M-56.8,511.4c0.1,1.5-0.4,3-1.4,4.2c-1,1-2.3,1.6-3.8,1.5c-0.9,0-1.8-0.2-2.6-0.7c-0.8-0.5-1.4-1.2-1.7-2
	c-0.4-1-0.6-2-0.6-3.1c-0.1-1.5,0.4-3,1.3-4.2c1-1,2.4-1.6,3.8-1.5c1.4-0.1,2.8,0.5,3.7,1.5C-57.2,508.4-56.7,509.8-56.8,511.4z
	 M-65.3,511.4c-0.1,1.1,0.2,2.3,0.9,3.2c0.6,0.8,1.5,1.2,2.5,1.1c1,0.1,1.9-0.4,2.5-1.1c0.6-1,0.9-2.1,0.9-3.2
	c0.1-1.1-0.2-2.3-0.9-3.2c-0.6-0.8-1.6-1.2-2.5-1.1c-1-0.1-1.9,0.3-2.5,1.1C-65,509.1-65.3,510.2-65.3,511.4L-65.3,511.4z"/>
<path class="st0" d="M-48.8,505.6c0.4,0,0.9,0,1.3,0.1l-0.2,1.6c-0.4-0.1-0.8-0.1-1.2-0.2c-0.9,0-1.7,0.4-2.3,1.1
	c-0.7,0.8-1,1.7-1,2.7v6h-1.7v-11.1h1.4l0.2,2.1l0,0c0.4-0.7,0.9-1.3,1.5-1.7C-50.3,505.8-49.5,505.6-48.8,505.6z"/>
<path class="st0" d="M-41.8,515.7c0.3,0,0.6,0,0.9,0c0.2,0,0.4-0.1,0.7-0.1v1.3c-0.3,0.1-0.5,0.2-0.8,0.2c-0.3,0.1-0.6,0.1-1,0.1
	c-2.1,0-3.2-1.1-3.2-3.5v-6.6h-1.6v-0.8l1.6-0.7l0.7-2.4h1v2.6h3.2v1.3h-3.2v6.6c0,0.6,0.1,1.1,0.5,1.5
	C-42.8,515.6-42.3,515.8-41.8,515.7z"/>
<path class="st0" d="M-30.5,516.9v-7.2c0.1-0.7-0.2-1.5-0.6-2c-0.5-0.5-1.2-0.7-1.9-0.7c-1-0.1-1.9,0.3-2.6,1
	c-0.6,0.9-0.9,2-0.8,3.1v5.8h-1.7v-15.8h1.7v4.8c0,0.5,0,0.9-0.1,1.4h0.1c0.3-0.5,0.8-1,1.4-1.2c0.6-0.3,1.4-0.5,2.1-0.5
	c1.1-0.1,2.2,0.3,3,1c0.8,0.8,1.1,2,1,3.1v7.2H-30.5z"/>
<path class="st0" d="M-12.4,515.5L-12.4,515.5c-0.8,1.1-2.1,1.8-3.5,1.7c-1.3,0.1-2.6-0.5-3.5-1.5c-0.9-1.2-1.3-2.7-1.2-4.2
	c-0.1-1.5,0.3-3,1.2-4.3c0.8-1,2.1-1.6,3.5-1.5c1.4-0.1,2.7,0.6,3.5,1.7h0.1v-0.8v-0.8v-4.7h1.7v15.8h-1.4L-12.4,515.5z
	 M-15.8,515.8c0.9,0.1,1.9-0.3,2.5-0.9c0.6-0.9,0.9-2,0.8-3v-0.4c0.1-1.2-0.2-2.4-0.8-3.4c-0.6-0.7-1.6-1.1-2.5-1
	c-0.9,0-1.8,0.4-2.3,1.2c-0.6,1-0.8,2.1-0.8,3.2c-0.1,1.1,0.2,2.2,0.8,3.2C-17.5,515.4-16.7,515.8-15.8,515.8L-15.8,515.8z"/>
<path class="st0" d="M2.3,511.4c0.1,1.5-0.4,3-1.4,4.2c-1,1-2.3,1.6-3.8,1.5c-0.9,0-1.8-0.2-2.6-0.7c-0.8-0.5-1.4-1.2-1.7-2
	c-0.4-1-0.7-2-0.6-3.1c-0.1-1.5,0.4-3,1.4-4.2c1-1,2.4-1.6,3.8-1.5c1.4-0.1,2.8,0.5,3.7,1.5C1.9,508.4,2.4,509.8,2.3,511.4z
	 M-6.2,511.4c-0.1,1.1,0.2,2.3,0.8,3.2c0.6,0.8,1.5,1.2,2.5,1.1c1,0.1,1.9-0.4,2.5-1.1c0.6-1,0.9-2.1,0.9-3.2
	c0.1-1.1-0.2-2.3-0.9-3.2c-0.6-0.8-1.6-1.2-2.5-1.1c-1-0.1-1.9,0.3-2.5,1.1C-5.9,509.1-6.2,510.2-6.2,511.4z"/>
<path class="st0" d="M5.1,502.8c0-0.3,0.1-0.6,0.3-0.8c0.2-0.2,0.4-0.3,0.7-0.3c0.3,0,0.5,0.1,0.7,0.3c0.2,0.2,0.3,0.5,0.3,0.8
	c0,0.3-0.1,0.6-0.3,0.8c-0.2,0.2-0.4,0.3-0.7,0.3c-0.3,0-0.5-0.1-0.7-0.3C5.2,503.4,5.1,503.1,5.1,502.8z M6.9,516.9H5.2v-11.1h1.7
	V516.9z"/>
<path class="st0" d="M18.1,516.9v-7.2c0.1-0.7-0.2-1.5-0.6-2c-0.5-0.5-1.2-0.7-1.9-0.7c-0.9-0.1-1.9,0.3-2.5,1
	c-0.6,0.9-0.9,2-0.8,3.1v5.8h-1.7v-11.1h1.4l0.3,1.5h0.1c0.4-0.5,0.9-1,1.5-1.3c0.6-0.3,1.4-0.5,2.1-0.4c1.1-0.1,2.2,0.3,3,1
	c0.7,0.8,1.1,2,1,3.1v7.2H18.1z"/>
<path class="st0" d="M32.3,505.8v1l-2.1,0.2c0.2,0.3,0.4,0.6,0.5,0.9c0.2,0.4,0.2,0.8,0.2,1.3c0.1,1-0.4,2.1-1.2,2.7
	c-0.9,0.7-2,1-3.1,1c-0.3,0-0.6,0-0.9-0.1c-0.6,0.2-1,0.8-1.1,1.4c0,0.3,0.1,0.5,0.4,0.7c0.4,0.2,0.8,0.3,1.3,0.2h2
	c1-0.1,2,0.2,2.8,0.8c0.7,0.5,1,1.3,1,2.2c0.1,1.1-0.5,2.2-1.5,2.8c-1.3,0.7-2.8,1.1-4.3,1c-1.2,0.1-2.3-0.2-3.4-0.8
	c-0.8-0.5-1.2-1.4-1.2-2.3c0-0.6,0.2-1.2,0.6-1.7c0.5-0.5,1.1-0.9,1.8-1c-0.3-0.1-0.5-0.3-0.7-0.6c-0.2-0.3-0.3-0.6-0.3-1
	c0-0.4,0.1-0.7,0.3-1.1c0.3-0.4,0.6-0.7,1-0.9c-0.6-0.2-1.1-0.7-1.4-1.2c-0.4-0.6-0.5-1.3-0.5-2c-0.1-1,0.3-2.1,1.1-2.8
	c0.9-0.7,2-1.1,3.1-1c0.5,0,1,0.1,1.6,0.2L32.3,505.8z M23.4,518.8c0,0.6,0.3,1.1,0.8,1.4c0.7,0.3,1.4,0.5,2.1,0.5
	c1.1,0.1,2.2-0.1,3.1-0.6c0.6-0.3,1-1,1-1.7c0.1-0.5-0.2-1-0.6-1.3c-0.7-0.3-1.4-0.4-2.1-0.3h-2c-0.6,0-1.2,0.2-1.7,0.6
	C23.7,517.6,23.4,518.2,23.4,518.8z M24.4,509.4c0,0.6,0.2,1.3,0.7,1.7c0.5,0.4,1.2,0.6,1.8,0.6c1.2,0.2,2.3-0.6,2.5-1.8
	c0-0.2,0-0.4,0-0.6c0.2-1.2-0.7-2.3-1.9-2.5c-0.2,0-0.4,0-0.6,0c-0.7,0-1.3,0.2-1.8,0.6C24.5,508,24.3,508.7,24.4,509.4z"/>
<path class="st0" d="M45,505.6c0.4,0,0.9,0,1.3,0.1l-0.2,1.6c-0.4-0.1-0.8-0.1-1.2-0.2c-0.9,0-1.7,0.4-2.3,1.1c-0.7,0.8-1,1.7-1,2.7
	v6h-1.7v-11.1h1.4l0.2,2.1l0,0c0.4-0.7,0.9-1.3,1.5-1.7C43.6,505.8,44.3,505.6,45,505.6z"/>
<path class="st0" d="M48.3,502.8c0-0.3,0.1-0.6,0.3-0.8c0.2-0.2,0.4-0.3,0.7-0.3c0.3,0,0.5,0.1,0.7,0.3c0.2,0.2,0.3,0.5,0.3,0.8
	c0,0.3-0.1,0.6-0.3,0.8c-0.2,0.2-0.4,0.3-0.7,0.3c-0.3,0-0.5-0.1-0.7-0.3C48.4,503.4,48.3,503.1,48.3,502.8z M50,516.9h-1.7v-11.1
	H50V516.9z"/>
<path class="st0" d="M62.7,505.8v1l-2.1,0.2c0.5,0.6,0.7,1.4,0.7,2.2c0,1-0.4,1.9-1.1,2.6c-0.9,0.7-2,1-3.1,1c-0.3,0-0.6,0-0.9-0.1
	c-0.6,0.2-1,0.8-1.1,1.4c0,0.3,0.1,0.5,0.4,0.7c0.4,0.2,0.8,0.3,1.3,0.2h2c1-0.1,2,0.2,2.8,0.8c0.7,0.5,1,1.3,1,2.2
	c0,1.1-0.5,2.2-1.5,2.8c-1.3,0.7-2.8,1.1-4.3,1c-1.2,0.1-2.4-0.2-3.5-0.8c-1.2-0.9-1.5-2.6-0.7-3.9c0-0.1,0.1-0.1,0.1-0.2
	c0.5-0.5,1.1-0.9,1.7-1c-0.2-0.1-0.4-0.3-0.6-0.5c-0.2-0.3-0.3-0.6-0.3-1c0-0.4,0.1-0.7,0.3-1.1c0.3-0.4,0.6-0.7,1-0.9
	c-0.6-0.2-1.1-0.7-1.4-1.2c-0.4-0.6-0.6-1.3-0.5-2c-0.1-1,0.3-2.1,1.1-2.8c0.9-0.7,2-1.1,3.1-1c0.5,0,1.1,0.1,1.6,0.2H62.7z
	 M54,518.8c0,0.6,0.3,1.1,0.8,1.4c0.7,0.3,1.4,0.5,2.2,0.4c1.1,0.1,2.2-0.1,3.1-0.6c0.6-0.3,1-1,1-1.7c0-0.5-0.2-1-0.6-1.3
	c-0.7-0.3-1.4-0.4-2.1-0.3h-2c-0.6,0-1.2,0.2-1.7,0.6C54.2,517.6,53.9,518.2,54,518.8z M54.9,509.4c0,0.6,0.2,1.3,0.7,1.7
	c0.5,0.4,1.2,0.6,1.8,0.6c1.2,0.2,2.3-0.6,2.4-1.8c0-0.2,0-0.4,0-0.6c0.2-1.2-0.6-2.3-1.8-2.5c-0.2,0-0.5,0-0.7,0
	c-0.6,0-1.3,0.2-1.7,0.6C55,508,54.8,508.7,54.9,509.4L54.9,509.4z"/>
<path class="st0" d="M72.6,516.9v-7.2c0.1-0.7-0.2-1.4-0.6-2c-0.5-0.5-1.2-0.7-1.9-0.7c-1-0.1-1.9,0.3-2.6,1c-0.6,0.9-0.9,2-0.8,3.1
	v5.8H65v-15.8h1.7v4.8c0,0.5,0,0.9-0.1,1.4h0.1c0.3-0.5,0.8-1,1.4-1.2c0.6-0.3,1.4-0.5,2.1-0.5c1.1-0.1,2.2,0.3,3.1,1
	c0.7,0.8,1.1,2,1,3.1v7.2H72.6z"/>
<path class="st0" d="M81.3,515.7c0.3,0,0.6,0,0.9,0c0.2,0,0.4-0.1,0.7-0.1v1.3c-0.3,0.1-0.5,0.2-0.8,0.2c-0.3,0.1-0.6,0.1-1,0.1
	c-2.1,0-3.2-1.1-3.2-3.5v-6.6h-1.6v-0.8l1.6-0.7l0.7-2.4h1v2.6h3.2v1.3h-3.2v6.6c0,0.6,0.1,1.1,0.5,1.5
	C80.4,515.6,80.9,515.8,81.3,515.7z"/>
</svg>
