<svg id="Layer_1" data-name="Layer 1" xmlns="http://www.w3.org/2000/svg" viewBox="0 0 146.74 38.8"><defs><style>.cls-1{fill:#522367;}</style></defs><title>staysure-logo-nostrapline</title><path class="cls-1" d="M10.83,12.18C7,10.39,5.05,9,5.05,6.16c0-2.2,1.51-4.43,4.89-4.43,3.85,0,5.2,2.79,6,5.53v.1l1.67-.24V7c-.17-1.22-.32-2.23-.45-3.11-.16-1.1-.29-2-.39-2.8V1h-.08a23,23,0,0,0-6-1C4.91,0,.85,3.2.85,7.77c0,4.72,4.52,6.89,7.83,8.47s5.83,3.11,5.83,6.1-2,4.82-5.27,4.82c-5,0-7-4.82-7.59-6.88v-.12L0,20.56v.11a47.67,47.67,0,0,0,1.27,6.7v.05h.06l.28.12a14.75,14.75,0,0,0,2.14.77A16.39,16.39,0,0,0,8.36,29C14.52,29,19,25.51,19,20.73s-4.52-6.88-8.15-8.55"/><path class="cls-1" d="M31.32,25.43a7,7,0,0,1-2.73.63c-1.18,0-2.57-.67-2.57-3.85V11.57h4.73a1.18,1.18,0,0,0,.62-.89,1.23,1.23,0,0,0-.31-1H26V3.78l-.81-.16-3.53,3v3h-2L18.31,11l.3.62h3.07v12c0,3.4,1.69,5.19,4.91,5.19a4.93,4.93,0,0,0,1.95-.56L32,26.76l-.5-1.38Z"/><path class="cls-1" d="M40.36,19.88l1.1-.47c.87-.37,1.93-.82,2.62-1.14v6.38a5.82,5.82,0,0,1-3.26,1.28A3,3,0,0,1,37.74,23v-.16c0-1.52,1-2.24,2.62-3M51.47,25.2l-.12.07a3.43,3.43,0,0,1-1.57.41c-1,0-1.5-.84-1.5-2.37V15.63c0-2.61-.65-4.22-2.19-5.39a6.93,6.93,0,0,0-4-1.16h0a23.54,23.54,0,0,0-7.1,3c-1,.63-1.6,1.17-1.6,1.88a2.36,2.36,0,0,0,2.31,2,1.51,1.51,0,0,0,1.61-1.15A6.67,6.67,0,0,1,38.59,12a2.53,2.53,0,0,1,1.91-.76c2.24,0,3.58,1.71,3.58,4.56v.74c-1.15.82-4.76,2-7.15,2.73-2.6.84-3.81,2.19-3.81,4.26A5.59,5.59,0,0,0,39,28.84h0c1.19,0,3.11-1.22,4.8-2.29l.48-.31A4.11,4.11,0,0,0,45.38,28a4,4,0,0,0,2.36.87h0L52,26.58Z"/><path class="cls-1" d="M78.55,16.86c-1.86-.7-3.77-1.66-3.77-3.47a2.65,2.65,0,0,1,2.63-2.67h.17c2.6,0,4,2.26,4.67,4.14V15l1.48-.35v-.11a28.67,28.67,0,0,0-1-4.59V9.87h0a11,11,0,0,0-4.27-.77c-4.24,0-7.33,2.4-7.33,5.7,0,3.52,3.57,5,5.93,6,2.59,1.06,3.6,2.09,3.6,3.64a2.88,2.88,0,0,1-3,2.76h-.1c-2.94,0-4.88-2.82-5.64-5.24v-.1l-1.46.2v.11a18.75,18.75,0,0,0,.8,5.21h0a10.56,10.56,0,0,0,5.46,1.42c3.94,0,7.93-2.06,7.93-6,0-3.08-2.41-4.62-6-6"/><path class="cls-1" d="M104.56,23.44V9.27l-.48.08c-.75.12-1.79.29-3,.37s-3,.29-4.27.33h-.12V11.3l1.73.27c1.39.24,1.76.4,1.76,2.58V24a7,7,0,0,1-4.57,1.83c-1.75,0-3.82-.78-3.82-4.48V15.58c0-2.76,0-4.76.14-6.15V9.27l-.37.06c-.82.12-2.07.31-3.26.43h-.47c-1.11.11-2.16.22-3.06.25H84.7v1.23l1.35.28c1.09.23,1.44.41,1.44,2.54v8.36c0,4,2.16,6.37,5.93,6.37a7.55,7.55,0,0,0,3.73-1.11,25.29,25.29,0,0,0,3-1.9h0v2.73l.42.33h.06c.93-.25,2.2-.56,3.43-.85,1.47-.33,2.7-.55,3.66-.67h.11V25.93h-1.32c-1.67-.12-2-.34-2-2.45"/><path class="cls-1" d="M124.7,11.4a2.69,2.69,0,0,0-2.91-2.32c-1.74,0-3.6,1.47-5.5,4.37V8.94l-.17.06a34.3,34.3,0,0,1-6.85,1.69h-.1v1.23h.1c2.45.32,2.68.43,2.68,3v8.83c0,2.69-.34,2.88-3,3.13h-.11v1.37h11.3V27H120c-3.59-.26-3.69-.51-3.69-3.13V16.11c.86-2,2.18-3.27,3.36-3.27a2.77,2.77,0,0,1,2,.81,1.26,1.26,0,0,0,1.38.15,2.64,2.64,0,0,0,1.71-2.4"/><path class="cls-1" d="M135.45,15.75c-2.52.09-4.92.13-7.32.13.63-3,2.38-5,4.49-5A3.61,3.61,0,0,1,135.26,12a4.12,4.12,0,0,1,1.14,3c0,.5-.13.72-1,.72m4.34,7.76a8,8,0,0,1-5.21,2c-3.25,0-6.56-2.37-6.7-7.65,5.33-.17,11-.59,11.82-.72,1-.14,1.23-.66,1.23-1.51,0-3.51-3.36-6.59-7.19-6.59h-.05a10.27,10.27,0,0,0-6.91,3.12,10.38,10.38,0,0,0-3.15,7.52,8.87,8.87,0,0,0,8.63,9.12q.3,0,.6,0c.7,0,4.38-.2,7.8-4.22l.07-.08-.84-1.11Z"/><path class="cls-1" d="M71.51,11V9.59H62.85V11H63c1.48.19,2.15.41,2.39.8s.13.68-.12,1.4c-.93,2.6-2.72,7.15-4,10l-4-10.11c-.28-.72-.34-1.11-.19-1.37s.72-.51,1.91-.7h.11L59,9.59H49V11h.11c2.4.29,2.83.79,3.8,3,1.16,2.47,3.12,7.24,5.39,13.08a2.49,2.49,0,0,1,.09,1.86,20.45,20.45,0,0,1-1.34,2.64,43.19,43.19,0,0,1-4.84,7L52,38.8h4.58v-.08c.69-1.78,1.48-3.58,2.58-6.07.76-1.72,1.61-3.68,2.68-6.16l.55-1.3C65,19.1,66.32,16,67.41,14c1.24-2.34,1.65-2.64,4-3Z"/><path class="cls-1" d="M146.2,11.9l-.29-2.26-.74,2.26h-.51l-.75-2.26-.28,2.26h-.53l.42-2.76h.72l.68,2.22.67-2.22h.74l.41,2.76Zm-4.07-2.38V11.9h-.54V9.52h-.84V9.14H143v.38Z"/></svg>