<?xml version="1.0" encoding="UTF-8" standalone="no"?>
<svg width="149px" height="40px" viewBox="0 0 149 40" version="1.1" xmlns="http://www.w3.org/2000/svg" xmlns:xlink="http://www.w3.org/1999/xlink">
    <!-- Generator: Sketch 3.8.3 (29802) - http://www.bohemiancoding.com/sketch -->
    <title>Logo</title>
    <desc>Created with Sketch.</desc>
    <defs>
        <polygon id="path-1" points="19.268 0.62 0 0.62 0 15.3203 0 30.0206 19.268 30.0206 19.268 0.62"></polygon>
    </defs>
    <g id="Cruise-Landing-Page" stroke="none" stroke-width="1" fill="none" fill-rule="evenodd">
        <g transform="translate(-145.000000, -31.000000)" id="Header">
            <g transform="translate(-59.000000, 0.000000)">
                <g id="Logo" transform="translate(204.000000, 30.000000)">
                    <path d="M147.7719,10.2762 L147.0919,12.5262 L146.3959,10.2762 L145.6639,10.2762 L145.2349,13.0762 L145.7789,13.0762 L146.0659,10.7852 L146.8249,13.0762 L147.3439,13.0762 L148.0939,10.7852 L148.3899,13.0762 L148.9369,13.0762 L148.5159,10.2762 L147.7719,10.2762 Z M142.8579,10.2762 L142.8579,10.6562 L143.7069,10.6562 L143.7069,13.0762 L144.2619,13.0762 L144.2619,10.6562 L145.1019,10.6562 L145.1019,10.2762 L142.8579,10.2762 Z" id="Fill-1" fill="#702282"></path>
                    <g id="Group-19" transform="translate(0.000000, 0.380300)">
                        <g id="Group-4">
                            <mask id="mask-2" fill="white">
                                <use xlink:href="#path-1"></use>
                            </mask>
                            <g id="Clip-3"></g>
                            <path d="M10.991,12.9756 C7.1,11.1626 5.124,9.7196 5.124,6.8756 C5.124,4.6346 6.661,2.3726 10.088,2.3726 C13.998,2.3726 15.368,5.2066 16.19,7.9836 L16.223,8.0876 L17.919,7.8386 L17.899,7.7146 C17.728,6.4786 17.579,5.4506 17.449,4.5546 C17.285,3.4416 17.156,2.5606 17.051,1.7146 L17.041,1.6296 L16.959,1.6106 C15.396,1.1916 13.255,0.6196 10.889,0.6196 C4.986,0.6196 0.861,3.8606 0.861,8.5046 C0.861,13.2936 5.446,15.4926 8.808,17.1056 C12.159,18.7526 14.724,20.2526 14.724,23.2926 C14.724,26.3086 12.676,28.1816 9.383,28.1816 C4.328,28.1816 2.311,23.2996 1.676,21.1996 L1.642,21.0836 L0,21.4816 L0.015,21.5946 C0.295,23.7716 0.917,27.4436 1.294,28.3976 L1.316,28.4476 L1.365,28.4666 C1.457,28.5046 1.552,28.5466 1.655,28.5926 C2.143,28.7976 2.814,29.0866 3.83,29.3716 C5.307,29.8016 6.874,30.0206 8.485,30.0206 C14.733,30.0206 19.268,26.5076 19.268,21.6646 C19.268,16.7796 14.675,14.6706 10.991,12.9756" id="Fill-2" fill="#702282" mask="url(#mask-2)"></path>
                        </g>
                        <path d="M31.7917,26.432 C31.1517,26.706 30.1687,27.066 29.0127,27.066 C27.8217,27.066 26.4067,26.389 26.4067,23.164 L26.4067,12.358 L31.2137,12.358 L31.2387,12.346 C31.5817,12.168 31.8107,11.841 31.8717,11.44 C31.9317,11.038 31.8147,10.645 31.5537,10.385 L31.5177,10.35 L26.4067,10.35 L26.4067,4.455 L25.5817,4.295 L22.0017,7.33 L22.0017,10.35 L20.0027,10.35 L18.5777,11.733 L18.8927,12.358 L22.0017,12.358 L22.0017,24.619 C22.0017,28.069 23.7257,29.893 26.9867,29.893 C27.4907,29.893 28.2337,29.677 28.9717,29.32 L32.4287,27.775 L31.9177,26.383 L31.7917,26.432 Z" id="Fill-5" fill="#702282"></path>
                        <path d="M52.2447,26.1967 L52.1217,26.2687 C51.6477,26.5257 51.0507,26.6817 50.5297,26.6817 C49.5487,26.6817 49.0087,25.8287 49.0087,24.2777 L49.0087,16.4767 C49.0087,13.8287 48.3427,12.1967 46.7847,11.0167 C45.7037,10.2447 44.2977,9.8367 42.6927,9.8367 L42.6797,9.8367 C40.1067,10.3387 36.9127,11.9037 35.4657,12.8537 C34.4727,13.4997 33.8547,14.0467 33.8547,14.7637 C33.8547,15.8457 35.1417,16.7737 36.1977,16.7737 C37.0547,16.7737 37.5877,16.3947 37.8307,15.6117 C38.2157,14.2447 38.6407,13.3487 39.1687,12.7907 C39.6247,12.2897 40.3097,12.0157 41.1037,12.0157 C43.3837,12.0157 44.7457,13.7487 44.7457,16.6477 L44.7457,17.3977 C43.5737,18.2317 39.9127,19.3977 37.4777,20.1707 C34.8457,21.0137 33.6187,22.3847 33.6187,24.4937 C33.6187,27.0887 35.8857,29.8927 39.5447,29.8927 C40.7577,29.8927 42.7017,28.6537 44.4187,27.5637 C44.5807,27.4607 44.7427,27.3547 44.9017,27.2567 C45.1687,27.9767 45.5337,28.5197 46.0587,29.0017 C46.6177,29.5087 47.6487,29.8927 48.4557,29.8927 L48.4867,29.8927 L52.8137,27.5957 L52.2447,26.1967 Z M40.9617,20.7937 C41.2647,20.6637 41.6547,20.4987 42.0817,20.3197 C42.9617,19.9447 44.0417,19.4867 44.7457,19.1627 L44.7457,25.6347 C43.8527,26.3827 42.4397,26.9367 41.4307,26.9367 C40.2207,26.9367 38.3047,26.0877 38.3047,23.8047 C38.3047,22.2697 39.2787,21.5387 40.9617,20.7937 L40.9617,20.7937 Z" id="Fill-7" fill="#702282"></path>
                        <path d="M79.7324,17.7296 C77.8354,17.0186 75.8994,16.0436 75.8994,14.2056 C75.8994,12.6386 77.0954,11.5046 78.7434,11.5046 C81.3874,11.5046 82.7774,13.7896 83.4794,15.7056 L83.5184,15.8086 L85.0134,15.4586 L84.9974,15.3446 C84.8514,14.2736 84.3284,11.6276 83.9544,10.6836 L83.9344,10.6346 L83.8794,10.6146 C82.8924,10.2286 81.6024,9.8336 79.5444,9.8336 C75.2354,9.8336 72.1094,12.2646 72.1094,15.6196 C72.1094,19.1886 75.7324,20.7236 78.1284,21.7376 C80.7534,22.8176 81.7744,23.8526 81.7744,25.4356 C81.7744,27.0246 80.4314,28.2236 78.6474,28.2236 C75.6644,28.2236 73.7004,25.3636 72.9234,22.9106 L72.8894,22.8096 L71.4024,23.0066 L71.4024,23.1226 C71.4024,24.7566 71.8674,27.7716 72.2214,28.4096 L72.2564,28.4496 C73.0514,29.0486 75.3014,29.8926 77.8014,29.8926 C81.7994,29.8926 85.8464,27.8016 85.8464,23.8046 C85.8464,20.6806 83.4004,19.1196 79.7324,17.7296" id="Fill-9" fill="#702282"></path>
                        <path d="M106.1234,24.4071 L106.1234,10.0261 L105.6404,10.1051 C104.8754,10.2311 103.8244,10.4031 102.6314,10.4791 C101.2484,10.6491 99.5944,10.7771 98.3064,10.8191 L98.1824,10.8241 L98.1824,12.0841 L99.9374,12.3571 C101.3484,12.6071 101.7194,12.7621 101.7194,14.9751 L101.7194,24.9931 C100.3204,26.2091 98.7184,26.8501 97.0854,26.8501 C95.3134,26.8501 93.2044,26.0641 93.2044,22.3091 L93.2044,16.4351 C93.2044,13.6251 93.2044,11.5941 93.3434,10.1871 L93.3614,10.0241 L92.9824,10.0831 C92.1464,10.2091 90.8804,10.4031 89.6704,10.5221 L89.1984,10.5681 C88.0694,10.6771 87.0034,10.7811 86.0924,10.8191 L85.9704,10.8241 L85.9704,12.0801 L87.3464,12.3571 C88.4494,12.6001 88.8014,12.7761 88.8014,14.9331 L88.8014,23.4211 C88.8014,27.5321 90.9944,29.8921 94.8214,29.8921 C96.2074,29.8921 97.2964,29.4611 98.6044,28.7621 C99.8234,28.1301 100.7194,27.4991 101.6654,26.8311 L101.7194,26.7941 L101.7194,29.5691 L102.1494,29.9031 L102.2114,29.8871 C103.1504,29.6301 104.4444,29.3261 105.6924,29.0291 C107.1794,28.6911 108.4294,28.4641 109.4044,28.3481 L109.5204,28.3351 L109.5204,26.9401 L108.1744,26.8941 C106.4834,26.7701 106.1234,26.5471 106.1234,24.4071" id="Fill-11" fill="#702282"></path>
                        <path d="M126.5656,12.1912 C126.5656,11.0522 125.3816,9.8332 123.6106,9.8332 C121.8426,9.8332 119.9666,11.3232 118.0336,14.2632 L118.0336,9.6932 L117.8636,9.7552 C115.6106,10.5582 113.4016,11.1012 110.9106,11.4632 L110.8006,11.4802 L110.8006,12.7312 L110.9126,12.7442 C113.4016,13.0752 113.6296,13.1782 113.6296,15.8342 L113.6296,24.7922 C113.6296,27.5252 113.2806,27.7182 110.5396,27.9672 L110.4246,27.9772 L110.4246,29.3762 L121.8996,29.3762 L121.8996,27.9772 L121.7806,27.9672 C118.1396,27.7072 118.0336,27.4542 118.0336,24.7922 L118.0336,16.9752 C118.9066,14.9502 120.2426,13.6462 121.4436,13.6462 C122.1836,13.6462 122.7246,13.8682 123.4316,14.4712 C123.7756,14.7802 124.2656,14.8422 124.8356,14.6242 C125.8716,14.2212 126.5656,13.2392 126.5656,12.1912" id="Fill-13" fill="#702282"></path>
                        <path d="M141.889,24.4803 C140.239,25.8543 138.461,26.5533 136.597,26.5533 C133.301,26.5533 129.933,24.1493 129.795,18.7853 C135.203,18.6133 141,18.1893 141.801,18.0593 C142.836,17.9103 143.04,17.3793 143.04,16.5183 C143.04,12.9583 139.634,9.8333 135.746,9.8333 L135.7,9.8333 C133.305,9.8333 130.745,10.9863 128.678,12.9983 C126.618,15.0103 125.484,17.7213 125.484,20.6353 C125.484,25.2343 128.701,29.8923 134.852,29.8923 C135.565,29.8923 139.294,29.6873 142.773,25.6033 L142.839,25.5263 L141.995,24.3963 L141.889,24.4803 Z M137.487,16.6093 C134.924,16.6903 132.493,16.7343 130.057,16.7343 C130.687,13.6813 132.465,11.7163 134.617,11.7163 C135.67,11.7163 136.599,12.0943 137.294,12.8053 C138.053,13.5803 138.473,14.6973 138.449,15.8783 C138.449,16.3833 138.311,16.6093 137.487,16.6093 L137.487,16.6093 Z" id="Fill-15" fill="#702282"></path>
                        <path d="M72.5796,11.744 L72.5796,10.35 L63.7916,10.35 L63.7916,11.746 L63.9036,11.759 C65.4076,11.955 66.0886,12.184 66.3256,12.577 C66.5006,12.859 66.4636,13.268 66.2046,13.993 C65.2676,16.632 63.4406,21.248 62.1376,24.125 L58.0966,13.858 C57.8096,13.137 57.7556,12.733 57.9046,12.472 C58.0896,12.15 58.6316,11.948 59.8386,11.759 L59.9476,11.741 L59.8926,10.35 L49.7446,10.35 L49.7446,11.746 L49.8536,11.759 C52.2926,12.051 52.7326,12.561 53.7166,14.814 C54.8876,17.331 56.8796,22.172 59.1836,28.097 C59.4646,28.823 59.4926,29.387 59.2726,29.982 C59.0916,30.519 58.6906,31.276 57.9156,32.658 C56.7266,34.786 54.1606,38.711 53.0036,39.78 L52.7616,40 L57.4226,40 L57.4506,39.919 C58.1516,38.109 58.9556,36.284 60.0656,33.754 C60.8346,32.006 61.7056,30.026 62.7826,27.499 L63.3466,26.19 C65.9916,20.003 67.3166,16.899 68.4156,14.779 C69.6786,12.401 70.0956,12.092 72.4726,11.759 L72.5796,11.744 Z" id="Fill-17" fill="#702282"></path>
                    </g>
                </g>
            </g>
        </g>
    </g>
</svg>