<?xml version="1.0" encoding="utf-8"?>
<!-- Generator: Adobe Illustrator 24.0.2, SVG Export Plug-In . SVG Version: 6.00 Build 0)  -->
<svg version="1.1" id="Layer_1" xmlns="http://www.w3.org/2000/svg" xmlns:xlink="http://www.w3.org/1999/xlink" x="0px" y="0px"
	 viewBox="0 0 453.8 130.2" style="enable-background:new 0 0 453.8 130.2;" xml:space="preserve">
<style type="text/css">
	.st0{opacity:0.5;}
	.st1{fill:#FFFFFF;}
</style>
<g id="XMLID_2_">
	<g id="XMLID_50_" class="st0">
		
			<image style="overflow:visible;enable-background:new    ;" width="1013" height="546" id="XMLID_164_" xlink:href="B9A20ED4.png"  transform="matrix(0.2382 0 0 0.2382 0.5306 0)">
		</image>
	</g>
	<g id="XMLID_5_" class="st0">
		
			<image style="overflow:visible;enable-background:new    ;" width="1108" height="504" id="XMLID_188_" xlink:href="B9A20EDB.png"  transform="matrix(0.2395 0 0 0.2395 188.23 9.5105)">
		</image>
	</g>
	<path id="XMLID_23_" class="st1" d="M82,91.9c-6.1,0-9.3-4.7-9-12.9c-3.9,5.6-9.9,11.3-15.8,11.3c-4.1,0-10.6-1.8-7.7-14
		c1.5-6.5,5.2-13.1,8.8-19.6c3-5.4,5.9-10.6,6.9-14.7c0.8-3.5-0.1-5.1-2.8-5.1c-9.2,0-18.9,13.2-20.9,22.1c-1.4,5.9,1.2,5.9,2,5.9
		c3.1,0,7.3-4.1,10.4-10l0.3-0.7l2.3,1.2l-0.3,0.5c-2,3.6-7.5,11.8-14.2,11.8c-4.8,0-6.9-3.4-5.6-9.2C39.1,46.9,53.5,34,64,34
		c6.2,0,8.8,3.3,7.3,9.6c-1,4.5-3.9,10.1-7,16C61,66.2,57.5,73,56.1,79.1c-1.6,6.8,0.9,7.7,3.2,7.7c4.4,0,11.9-8.3,15.2-16.8
		c2-8,5.5-17,5.6-17l0.1-0.4l6.9-1.7l-0.3,0.9c0,0.1-3.7,9.8-6.8,23.2c-1.5,6.3-2.1,13.9,3.1,13.9c7,0,14-14.1,17.1-27.4
		c3.9-16.8,1.1-22.8-2.8-22.8c-1.7,0-3.5,1-5.5,3.1l-0.4,0.4l-2.2-1.5l0.5-0.5c0.5-0.6,5.4-5.9,10.8-5.9c6.7,0,8.7,8.6,5.4,23
		C102.1,74,93,91.9,82,91.9 M108.2,90.3c3.9,0,8.7-6.5,13.9-13.4l0.9-1.1l-2-1.8l-1,1.3c-3.2,4.3-7.6,10-9.3,10
		c-0.5,0-1.6,0-0.4-5.4c1.3-5.6,3-10.9,4-13.7c0.4-1.1,0.6-1.7,0.6-2c0.2-1,0.2-1.9-1.4-1.9c-0.7,0-2.7,0.4-3.7,1.7
		c-0.3,0.5-0.7,1.3-1.2,2.4c-1,2.1-2.4,5.3-4.6,8.3l-0.8,1.1l1.9,1.7l0.2-0.3c-0.1,0.6-0.3,1.2-0.4,1.8
		C103.1,87,104.1,90.3,108.2,90.3 M114,59.4c1.9,0,3.7-1.4,4.1-3.3c0.4-1.8-0.7-3.3-2.6-3.3c-1.8,0-3.7,1.5-4.1,3.3
		S112.1,59.4,114,59.4 M134.6,90.3c3.5,0,7.1-3.4,14.6-13.4l0.8-1.1l-2-1.8l-0.9,1.3c-1.9,2.6-7.9,10.6-9.5,10.6
		c-0.2,0-0.8,0-0.4-1.6c0.5-2.2,1.5-5,2.5-7.7c1-2.8,2-5.7,2.6-8c0.9-4.1-0.5-6.4-4-6.4c-3.8,0-8,3.5-10.8,6.4
		c0.8-2.7,1.3-4.3,1.3-4.4l-0.5-0.1h0.6c0.1-0.5,0.4-1.9-1.1-1.9c-0.8,0-3.6,0.1-4.6,1.7c-0.3,0.4-0.4,0.9-0.6,1.9l-3.7,16
		c-0.7,1.5-2.2,4.8-2.5,6.3c-0.4,1.9,0.7,2.2,1.5,2.2c1,0,4.5-0.6,5-2.6c1.2-5.2,2.4-9.9,3.4-13.4c3.4-4.6,8-8.6,9.9-8.6
		c1.3,0,1.3,1.1,1.1,2.1c-0.4,1.7-1.4,4.4-2.4,7.3c-1.3,3.5-2.7,7.4-3.4,10.3C130.3,89.6,132.9,90.3,134.6,90.3 M149.8,90.3
		c3.6,0,8.7-4.5,15.2-13.4l0.8-1.1l-1.9-1.7l-0.9,1.3c-5.5,7.4-8.9,10.1-10.2,10.1c-0.9,0-1.7-0.9-0.1-8.1c0.6-2.7,1.9-7.4,3.3-11.9
		h6.2l1.3-3.2H157c1.6-5.6,3.3-10.9,3.9-12.8l0.2-0.6h-4.6l-0.2,0.5c-1,2.9-2.1,5.9-3.2,8.8c-0.5,1.4-1,2.8-1.5,4.1h-2.9l-1.3,3.2
		h3.1c-1.8,5.3-3.1,9.6-4,13.5C144.6,86.6,145.7,90.3,149.8,90.3 M168.1,90.3c3.4,0,9.1-2.3,17.3-13.4l0.8-1.1l-1.9-1.7l-0.9,1.3
		c-5,6.8-9,10.1-12,10.1c-3.2,0-4.9-2.5-4.6-6.7h0.1c7.3-3.8,13.5-7.1,14.6-11.8c0.7-2.8-1-4.6-4.3-4.6c-5.9,0-13.8,6.3-16.1,16.4
		C159.5,85.5,162.4,90.3,168.1,90.3 M174.5,65.6c1.1,0,1.7,0.9,1.4,2.2c-0.7,2.9-5.2,6.1-8.6,7.9C169.1,68.3,172.6,65.6,174.5,65.6
		 M190.7,90.3c3.7,0,7.5-3.4,14.9-13.4l0.8-1.1l-1.9-1.7l-0.9,1.3c-6.5,8.8-8.9,10.1-9.7,10.1c-0.7,0-1.2,0-0.7-2.4
		c0.8-3.5,3.7-9.1,5.9-13.2c1.4-2.8,2.5-4.7,2.7-5.6c0.1-0.6,0.2-1.9-1.8-1.9c-1.3,0-2.9,0.4-4.4,0.8c-1.3,0.3-2.6,0.7-3.7,0.8
		c0.3-2.3-0.8-3.9-2.9-3.9c-1.8,0-4,1.3-4.6,3.7c-0.6,2.4,0.7,4.3,3.2,4.8c-0.6,1.3-1.9,3.9-3.6,6.1l-0.8,1.1l1.9,1.7l0.9-1.3
		c1.8-2.4,3.7-5.9,4.4-7.5c2.1-0.4,4.3-1.6,6.1-2.6c0.7-0.4,1.5-0.8,2-1.1c-0.8,1.3-2,2.9-3.4,4.8c-3.1,4.1-6.9,9.3-7.9,13.8
		C186.2,87.8,187.5,90.3,190.7,90.3 M188.4,63c0.2,0,0.3,0.3,0.3,0.8C188.4,63.7,188.2,63.4,188.4,63C188.2,63.1,188.3,63,188.4,63"
		/>
	<path id="XMLID_1_" class="st1" d="M257.1,77c0,2.9-0.7,5.5-2.2,7.8c-1.5,2.3-3.6,4-6.4,5.3c-2.8,1.3-6.1,1.9-9.8,1.9
		c-3.1,0-5.8-0.2-7.9-0.7c-2.1-0.4-4.3-1.2-6.6-2.3V77.6c2.4,1.2,5,2.2,7.6,2.9c2.6,0.7,5,1,7.2,1c1.9,0,3.3-0.3,4.2-1
		s1.3-1.5,1.3-2.5c0-0.6-0.2-1.2-0.5-1.7s-0.9-1-1.7-1.5s-2.9-1.5-6.3-3c-3.1-1.4-5.4-2.7-6.9-4.1c-1.5-1.3-2.7-2.8-3.4-4.5
		c-0.7-1.7-1.1-3.7-1.1-6c0-4.3,1.6-7.7,4.7-10.2c3.2-2.4,7.5-3.6,13-3.6c4.9,0,9.8,1.1,14.9,3.4l-3.9,9.8c-4.4-2-8.2-3-11.4-3
		c-1.7,0-2.9,0.3-3.6,0.9s-1.1,1.3-1.1,2.2s0.5,1.8,1.4,2.5c1,0.7,3.5,2.1,7.8,4c4.1,1.8,6.9,3.8,8.5,5.9
		C256.3,71.2,257.1,73.8,257.1,77z M298,91.3l-2.3-8.8h-15.3l-2.4,8.8h-14L279.3,44h17l15.6,47.3H298z M293,72l-2-7.7
		c-0.5-1.7-1-3.9-1.7-6.7c-0.7-2.7-1.1-4.7-1.3-5.9c-0.2,1.1-0.6,2.9-1.1,5.4c-0.6,2.5-1.8,7.5-3.8,14.9H293z M322,91.3V44.2h12.7
		V81h18.1v10.3H322z M392,91.3h-28V44.2h28v10.2h-15.2v7.4h14.1V72h-14.1v8.9H392V91.3z M415.9,74.7h-10.6l-1.6-30.5h13.9
		L415.9,74.7z M403.8,85.9c0-2,0.6-3.5,1.7-4.6c1.2-1.1,2.8-1.6,5.1-1.6c2.2,0,3.9,0.5,5,1.6s1.7,2.6,1.7,4.6c0,1.9-0.6,3.4-1.8,4.5
		c-1.2,1.1-2.8,1.6-4.9,1.6s-3.8-0.5-5-1.6C404.4,89.4,403.8,87.9,403.8,85.9z"/>
</g>
</svg>
