<?xml version="1.0" encoding="UTF-8" standalone="no"?>
<svg width="25px" height="25px" viewBox="0 0 25 25" version="1.1" xmlns="http://www.w3.org/2000/svg" xmlns:xlink="http://www.w3.org/1999/xlink">
    <!-- Generator: Sketch 3.8.3 (29802) - http://www.bohemiancoding.com/sketch -->
    <title>molecules</title>
    <desc>Created with Sketch.</desc>
    <defs></defs>
    <g id="Page-1" stroke="none" stroke-width="1" fill="none" fill-rule="evenodd">
        <g id="molecules">
            <path d="M5,23 C7.209139,23 9,21.209139 9,19 C9,16.790861 7.209139,15 5,15 C2.790861,15 1,16.790861 1,19 C1,21.209139 2.790861,23 5,23 Z" id="Oval-1" fill="#6F2C91"></path>
            <path d="M20,23 C22.209139,23 24,21.209139 24,19 C24,16.790861 22.209139,15 20,15 C17.790861,15 16,16.790861 16,19 C16,21.209139 17.790861,23 20,23 Z" id="Oval-1" fill="#6F2C91"></path>
            <path d="M12.5,10 C14.709139,10 16.5,8.209139 16.5,6 C16.5,3.790861 14.709139,2 12.5,2 C10.290861,2 8.5,3.790861 8.5,6 C8.5,8.209139 10.290861,10 12.5,10 Z" id="Oval-1" fill="#6F2C91"></path>
            <path d="M12.5,6.5 L19.5,18.5" id="Line" stroke="#6F2C91" stroke-width="2" stroke-linecap="square"></path>
            <path d="M12.4461524,6.46891109 L5.55384758,18.5310889" id="Line" stroke="#6F2C91" stroke-width="2" stroke-linecap="square"></path>
            <path d="M18.5,19 L4.5,19" id="Line" stroke="#6F2C91" stroke-width="2" stroke-linecap="square"></path>
        </g>
    </g>
</svg>