<?xml version="1.0" encoding="UTF-8" standalone="no"?>
<svg width="25px" height="25px" viewBox="0 0 25 25" version="1.1" xmlns="http://www.w3.org/2000/svg" xmlns:xlink="http://www.w3.org/1999/xlink">
    <!-- Generator: Sketch 3.8.3 (29802) - http://www.bohemiancoding.com/sketch -->
    <title>organisms</title>
    <desc>Created with Sketch.</desc>
    <defs></defs>
    <g id="Page-1" stroke="none" stroke-width="1" fill="none" fill-rule="evenodd">
        <g id="organisms">
            <g id="Group-2" transform="translate(5.000000, 4.000000)" stroke="#6F2C91" stroke-linecap="square">
                <path d="M14.5,15.5 L0.5,15.5" id="Line"></path>
                <path d="M14.5,8.5 L0.5,8.5" id="Line"></path>
                <path d="M14.5,1.5 L0.5,1.5" id="Line"></path>
            </g>
            <g id="Group" transform="translate(12.500000, 12.500000) rotate(-270.000000) translate(-12.500000, -12.500000) translate(5.000000, 4.000000)" stroke="#6F2C91" stroke-linecap="square">
                <path d="M14.5,15.5 L0.5,15.5" id="Line"></path>
                <path d="M14.5,8.5 L0.5,8.5" id="Line"></path>
                <path d="M14.5,1.5 L0.5,1.5" id="Line"></path>
            </g>
            <path d="M5.5,8 C6.88071187,8 8,6.88071187 8,5.5 C8,4.11928813 6.88071187,3 5.5,3 C4.11928813,3 3,4.11928813 3,5.5 C3,6.88071187 4.11928813,8 5.5,8 Z" id="Oval-1" fill="#6F2C91"></path>
            <path d="M5.5,15 C6.88071187,15 8,13.8807119 8,12.5 C8,11.1192881 6.88071187,10 5.5,10 C4.11928813,10 3,11.1192881 3,12.5 C3,13.8807119 4.11928813,15 5.5,15 Z" id="Oval-1" fill="#6F2C91"></path>
            <path d="M5.5,22 C6.88071187,22 8,20.8807119 8,19.5 C8,18.1192881 6.88071187,17 5.5,17 C4.11928813,17 3,18.1192881 3,19.5 C3,20.8807119 4.11928813,22 5.5,22 Z" id="Oval-1" fill="#6F2C91"></path>
            <path d="M12.5,8 C13.8807119,8 15,6.88071187 15,5.5 C15,4.11928813 13.8807119,3 12.5,3 C11.1192881,3 10,4.11928813 10,5.5 C10,6.88071187 11.1192881,8 12.5,8 Z" id="Oval-1" fill="#6F2C91"></path>
            <path d="M12.5,15 C13.8807119,15 15,13.8807119 15,12.5 C15,11.1192881 13.8807119,10 12.5,10 C11.1192881,10 10,11.1192881 10,12.5 C10,13.8807119 11.1192881,15 12.5,15 Z" id="Oval-1" fill="#6F2C91"></path>
            <path d="M12.5,22 C13.8807119,22 15,20.8807119 15,19.5 C15,18.1192881 13.8807119,17 12.5,17 C11.1192881,17 10,18.1192881 10,19.5 C10,20.8807119 11.1192881,22 12.5,22 Z" id="Oval-1" fill="#6F2C91"></path>
            <path d="M19.5,8 C20.8807119,8 22,6.88071187 22,5.5 C22,4.11928813 20.8807119,3 19.5,3 C18.1192881,3 17,4.11928813 17,5.5 C17,6.88071187 18.1192881,8 19.5,8 Z" id="Oval-1" fill="#6F2C91"></path>
            <path d="M19.5,15 C20.8807119,15 22,13.8807119 22,12.5 C22,11.1192881 20.8807119,10 19.5,10 C18.1192881,10 17,11.1192881 17,12.5 C17,13.8807119 18.1192881,15 19.5,15 Z" id="Oval-1" fill="#6F2C91"></path>
            <path d="M19.5,22 C20.8807119,22 22,20.8807119 22,19.5 C22,18.1192881 20.8807119,17 19.5,17 C18.1192881,17 17,18.1192881 17,19.5 C17,20.8807119 18.1192881,22 19.5,22 Z" id="Oval-1" fill="#6F2C91"></path>
        </g>
    </g>
</svg>